<svg width="238" height="272" viewBox="0 0 238 272" fill="none" xmlns="http://www.w3.org/2000/svg">
<path fill-rule="evenodd" clip-rule="evenodd" d="M0 204L119 0L238 204H132.912L170.003 272H68.003L105.094 204H0ZM161.503 161.499V156.499V149.499V144.499H166.503H182.003H187.003V149.499V156.499V161.499H192.003H199.003H204.003V166.499V181.999V186.999H199.003H192.003H187.003V191.999V198.999V203.999H182.003H166.503H161.503V198.999V191.999V186.999H156.503H149.503H144.503V181.999V166.499V161.499H149.503H156.503H161.503ZM166.503 161.499V149.499H182.003V161.499V166.499H187.003H199.003V181.999H187.003H182.003V186.999V198.999H166.503V186.999V181.999H161.503H149.503V166.499H161.503H166.503V161.499Z" fill="#EAFBF0"/>
</svg>
