<svg width="1000" height="100" viewBox="0 0 1000 100" fill="none" xmlns="http://www.w3.org/2000/svg">
<g clip-path="url(#clip0_84_2465)">
<rect width="1000" height="100" fill="url(#paint0_linear_84_2465)"/>
<mask id="path-1-inside-1_84_2465" fill="white">
<path d="M0 0H1000V178H0V0Z"/>
</mask>
<path d="M1000 177H0V179H1000V177Z" fill="white" mask="url(#path-1-inside-1_84_2465)"/>
<rect opacity="0.9" x="408" y="-2" width="60" height="178" fill="url(#paint1_linear_84_2465)"/>
<rect opacity="0.9" x="478" y="-2" width="60" height="178" fill="url(#paint2_linear_84_2465)"/>
<rect opacity="0.9" x="610" y="-2" width="60" height="178" fill="url(#paint3_linear_84_2465)"/>
<rect opacity="0.9" x="857" y="-2" width="60" height="178" fill="url(#paint4_linear_84_2465)"/>
<rect opacity="0.9" x="478" y="-2" width="30" height="178" fill="url(#paint5_linear_84_2465)"/>
<rect opacity="0.9" x="561" y="-2" width="30" height="178" fill="url(#paint6_linear_84_2465)"/>
<rect opacity="0.9" x="625" y="-2" width="30" height="178" fill="url(#paint7_linear_84_2465)"/>
<rect opacity="0.9" x="787" width="60" height="178" fill="url(#paint8_linear_84_2465)"/>
<rect opacity="0.9" x="945" width="60" height="178" fill="url(#paint9_linear_84_2465)"/>
<rect opacity="0.9" x="701" y="-2" width="30" height="178" fill="url(#paint10_linear_84_2465)"/>
<rect opacity="0.9" x="772" y="-2" width="30" height="178" fill="url(#paint11_linear_84_2465)"/>
<rect opacity="0.9" x="870" y="-2" width="30" height="178" fill="url(#paint12_linear_84_2465)"/>
<rect opacity="0.9" x="975" y="-2" width="30" height="178" fill="url(#paint13_linear_84_2465)"/>
<g opacity="0.5">
<path d="M366.362 245.431C366.875 246.501 368.952 248.094 370.319 248.46C372.425 249.034 375.3 248.12 379.91 245.379C381.077 244.7 390.441 238.537 400.688 231.722C410.934 224.907 419.7 219.24 420.184 219.136C420.64 219.005 424.681 218.614 429.15 218.248L437.262 217.543L444.662 215.193C464.528 208.848 470.448 207.333 479.955 206.106C482.289 205.793 484.594 205.453 485.078 205.323C485.533 205.166 487.013 204.827 488.351 204.539C490.002 204.174 490.998 203.808 491.453 203.364C491.852 203.025 492.08 202.659 491.994 202.581C491.909 202.503 490.827 202.268 489.603 202.033C486.444 201.458 477.251 201.171 470.847 201.432C467.887 201.537 465.411 201.615 465.382 201.563C465.297 201.51 472.583 199.317 493.474 193.155C498.569 191.64 502.924 190.334 503.151 190.256C503.379 190.178 502.098 189.812 500.305 189.473C497.43 188.898 496.548 188.846 492.905 188.977C488.066 189.133 478.361 190.491 471.957 191.901C470.164 192.293 471.701 191.666 478.133 189.368C487.412 186.052 500.817 181.953 505.571 180.986C511.889 179.707 512.942 178.924 510.836 177.096C510.068 176.417 509.356 176.077 508.502 175.947C506.766 175.66 502.269 175.738 499.793 176.077C498.626 176.26 497.658 176.338 497.573 176.286C497.516 176.234 498.256 175.921 499.252 175.633C500.22 175.32 502.895 174.484 505.229 173.727C508.701 172.631 510.694 172.213 516.785 171.247C525.152 169.941 527.486 169.445 528.739 168.74C530.418 167.8 529.507 166.52 526.689 165.841C524.754 165.397 507.591 165.397 502.724 165.841C500.846 166.024 498.597 166.233 497.743 166.311L496.178 166.468L500.874 162.186C505.684 157.799 510.153 154.535 517.952 149.652C522.534 146.78 529.906 142.576 533.663 140.669C539.327 137.797 543.567 134.742 543.567 133.567C543.567 132.757 542.827 132.392 541.604 132.549C539.953 132.731 534.061 135.134 522.932 140.095C517.439 142.549 512.828 144.612 512.686 144.665C512.515 144.743 513.682 143.62 515.248 142.21C518.578 139.181 520.769 137.64 527.429 133.697C535.627 128.867 536.737 128.11 536.737 127.274C536.737 126.673 536.566 126.491 535.826 126.308L534.915 126.073L537.619 124.454C542.059 121.817 544.507 120.563 552.248 116.881C560.218 113.095 560.559 112.912 560.075 112.625C559.762 112.442 564.032 109.883 567.789 107.951C569.496 107.063 570.436 106.254 570.72 105.418C570.863 104.948 570.72 104.818 569.781 104.556C568.728 104.269 568.415 104.321 566.28 105.079C560.986 106.933 540.892 115.288 533.378 118.735C531.3 119.675 529.621 120.406 529.621 120.354C529.621 119.989 538.615 113.722 542.913 111.084C545.788 109.335 548.093 107.794 548.036 107.638C548.008 107.507 549.829 106.332 552.078 105.079C556.688 102.52 558.652 101.031 558.652 100.117C558.652 99.543 558.567 99.5168 557.087 99.6213C555.863 99.7257 554.554 100.17 551.309 101.632C547.524 103.329 539.298 107.507 536.737 109.022C534.545 110.301 536.594 108.682 539.355 106.959C542.628 104.896 546.926 102.755 559.079 97.1145C563.633 94.9995 567.561 93.0411 567.817 92.7277C568.13 92.4144 568.329 91.7616 568.329 91.161C568.329 90.2993 568.244 90.1687 567.817 90.2732C567.561 90.3515 563.69 91.1871 559.222 92.1271C550.341 94.0072 549.203 94.3467 542.742 97.0101C540.323 97.9762 538.302 98.7335 538.245 98.6813C538.16 98.629 539.81 96.1745 541.888 93.25C543.966 90.3515 546.072 87.2964 546.584 86.513C547.353 85.2858 547.894 84.868 550.171 83.5885C551.736 82.7268 553.672 81.8912 554.952 81.5518C559.705 80.2984 562.296 79.4106 562.893 78.8361L563.491 78.2355L561.47 77.3738C559.421 76.5121 559.421 76.5121 556.205 76.6949C553.985 76.7994 552.96 76.7733 552.96 76.5644C552.96 76.4338 553.728 74.6843 554.639 72.6998C556.29 69.1747 557.315 66.4329 557.628 64.5528C557.77 63.8478 557.685 63.5084 557.258 63.1689C556.745 62.725 556.66 62.7511 555.607 63.2211C554.668 63.665 553.615 64.9445 549.118 71.0025C543.084 79.0711 544.194 78.105 538.644 80.2462C537.448 80.7162 534.517 82.074 532.154 83.2752C527.23 85.7558 527.287 85.8864 531.528 80.8467C536.395 75.076 545.389 66.2762 550.285 62.49C553.643 59.9049 554.668 58.7821 554.668 57.7376L554.668 56.9803L553.444 57.6332C552.789 57.9987 548.491 60.3488 543.909 62.8033C535.143 67.5557 532.752 69.1485 527.202 74.0054C525.722 75.311 524.498 76.3033 524.498 76.1988C524.498 75.8855 528.71 69.1485 531.386 65.1534C536.224 57.9987 543.596 48.1284 546.983 44.3421C548.662 42.4359 549.545 41.1303 549.545 40.4514C549.545 40.2164 549.174 39.9814 548.548 39.877C547.723 39.7464 547.268 39.877 545.93 40.582C543.966 41.6526 538.587 46.3789 534.46 50.609C530.703 54.4736 521.652 64.4223 519.489 67.0596C517.866 69.018 517.382 69.488 517.98 68.4696C518.976 66.7462 526.661 55.4658 531.357 48.7812C532.382 47.345 534.26 44.5249 535.57 42.5143C536.879 40.5037 538.587 37.8663 539.355 36.6391C540.152 35.4118 542.116 32.5917 543.71 30.3722C546.841 26.0637 547.495 24.6536 546.954 23.4003L546.641 22.6691L543.795 25.4109C535 33.8451 520.058 50.5829 512.971 59.931C511.576 61.7589 510.409 63.2211 510.352 63.195C510.21 63.0383 512.43 56.0925 513.91 52.0452C517.781 41.5743 523.502 31.5994 535.342 14.705C542.628 4.31236 542.173 5.0174 542.002 4.20793C541.774 3.29399 541.404 3.29399 539.839 4.23403C538.217 5.22629 536.082 7.52414 531.613 13.0077C522.961 23.6614 518.265 30.3983 511.462 41.8615C506.681 49.9562 502.297 58.9649 499.28 66.929C498.768 68.2869 498.341 69.2008 498.341 68.9397C498.284 68.0518 501.102 60.7405 502.924 57.0065C503.948 54.9175 507.478 48.1022 510.779 41.8615C521.395 21.703 523.616 16.5328 524.953 9.09087C525.522 5.95743 525.665 -1.0406 525.266 -4.17405C525.039 -5.76688 524.953 -5.94967 524.441 -5.87133C523.986 -5.8191 523.359 -4.69628 521.367 -0.178902C518.094 7.23692 518.179 7.08026 501.074 41.4176C499.679 44.2638 498.483 46.5355 498.398 46.4833C498 46.0916 500.931 34.0801 503.009 27.6304C507.108 14.8877 517.61 -10.5715 521.253 -16.5511C521.794 -17.4389 522.221 -18.5095 522.221 -18.9795C522.221 -19.8935 522.733 -20.938 524.042 -22.6352C524.555 -23.2881 525.608 -24.8025 526.405 -26.0298C527.202 -27.2571 528.34 -28.6671 528.881 -29.1632L529.906 -30.0511L529.279 -30.3905C528.397 -30.8344 526.689 -30.8083 525.437 -30.3383C522.847 -29.346 518.151 -25.5598 514.65 -21.5908C508.075 -14.1488 502.411 -4.59183 496.036 9.92646C494.812 12.7204 493.73 15.0966 493.645 15.175C493.389 15.3839 493.759 9.06476 494.356 3.03289C495.011 -3.73013 495.865 -9.292 496.719 -12.3732C497.544 -15.3239 500.647 -24.907 501.444 -26.9437C502.24 -28.9543 507.107 -44.4127 506.994 -44.5171C506.766 -44.726 505.144 -43.7076 504.29 -42.8459C503.123 -41.6187 497.487 -31.1739 495.523 -26.6043C492.649 -19.9196 490.116 -11.4332 487.668 -0.440029C486.928 2.79788 486.273 5.53964 486.216 5.6963C485.989 6.1141 486.33 -0.54448 486.672 -2.73787C487.81 -10.702 490.03 -18.9534 494.527 -31.905C497.373 -40.1564 498.284 -42.9504 498.142 -43.081C498.085 -43.1332 497.63 -43.1332 497.146 -43.0548C494.613 -42.7154 491.482 -37.8586 486.842 -27.0743C483.683 -19.7629 482.659 -16.8906 480.951 -10.6759C478.845 -2.94678 477.735 2.71954 476.425 11.9632C476.198 13.6344 476.169 13.4516 476.141 9.87423C476.084 3.34622 476.881 -5.94967 478.275 -14.7494C479.414 -22.0347 480.439 -25.4553 483.939 -33.7328C484.936 -36.0307 485.818 -38.198 485.932 -38.5636C486.046 -38.9292 486.985 -41.0964 488.009 -43.3943C489.034 -45.6922 490.799 -49.8701 491.937 -52.6641C493.873 -57.4165 493.958 -57.7559 493.417 -57.8343C491.738 -58.0954 489.774 -56.4503 486.757 -52.2724C482.516 -46.345 478.105 -37.8586 475.201 -29.9466L473.238 -24.5936L473.408 -27.2048C474.035 -36.0829 477.08 -46.58 482.659 -58.931C484.196 -62.2994 485.704 -65.9029 486.046 -66.8951C486.387 -67.9135 486.729 -68.9319 486.814 -69.193C486.928 -69.5324 486.786 -69.6369 486.216 -69.6369C483.882 -69.6369 479.129 -63.1611 473.238 -52.0113C467.944 -41.932 466.606 -38.6941 463.276 -27.8577C461.54 -22.2958 461.454 -22.0608 461.255 -23.1575C460.857 -25.6381 460.43 -39.1903 460.6 -43.786C460.828 -50.0529 461.284 -53.4997 463.134 -63.7095C463.987 -68.3313 464.727 -72.5614 464.813 -73.1359L464.984 -74.1282L464.073 -73.9715C460.885 -73.3709 456.929 -66.1901 455.022 -57.5209C454.566 -55.3536 454.111 -53.5519 454.026 -53.4736C453.94 -53.3691 453.94 -54.1525 454.026 -55.1447C454.14 -56.1631 454.396 -59.0876 454.652 -61.6727C454.88 -64.2578 455.591 -70.4725 456.217 -75.486C456.815 -80.4995 457.299 -84.6513 457.242 -84.7035C457.185 -84.7296 456.616 -84.3641 455.99 -83.8679C455.079 -83.1629 454.68 -82.5624 454.225 -81.309C453.456 -79.1939 449.984 -67.339 448.789 -62.8478C448.248 -60.9155 447.764 -59.2443 447.679 -59.1398C447.394 -58.8265 447.65 -62.4561 448.106 -65.459C448.333 -66.9735 448.959 -70.2113 449.472 -72.6398C450.013 -75.0943 450.411 -77.1049 450.383 -77.1311C450.155 -77.366 447.707 -74.7026 447.024 -73.4493C443.381 -66.8429 439.994 -50.4707 439.595 -37.6497L439.538 -35.5607L438.485 -39.4775C436.578 -46.6322 434.586 -57.6776 432.394 -73.5537C432.138 -75.486 431.882 -77.1311 431.825 -77.1833C431.598 -77.4183 430.231 -76.3477 430.004 -75.7732C429.634 -74.8854 429.178 -70.8642 428.751 -64.9106C428.438 -60.5238 428.467 -58.6176 428.865 -51.4629C429.121 -46.8933 429.292 -43.081 429.235 -43.0287C428.951 -42.6893 424.596 -47.3111 420.924 -51.8807C410.593 -64.7278 406.124 -69.5847 399.578 -74.9637C392.462 -80.839 389.901 -82.3796 383.895 -84.3641C380.48 -85.513 380.451 -85.513 380.223 -84.9646C379.882 -84.1552 380.081 -83.7896 381.874 -82.0401C382.757 -81.1784 383.98 -79.8728 384.578 -79.1417C385.176 -78.4105 386.798 -76.8438 388.193 -75.6426C389.616 -74.4676 391.438 -72.7181 392.263 -71.752C393.8 -70.0286 401.542 -59.636 401.542 -59.3487C401.542 -59.0615 396.76 -62.3516 393.174 -65.0934C391.295 -66.5557 387.794 -69.4019 385.404 -71.4125C381.277 -74.9115 380.309 -75.6165 378.829 -76.0082C378.26 -76.191 378.203 -76.1127 378.203 -75.3293C378.203 -74.1804 379.91 -71.3081 384.009 -65.5895C390.299 -56.8159 393.658 -53.0558 398.553 -49.3217C399.948 -48.225 402.908 -45.8749 405.099 -44.0471C407.291 -42.2193 409.539 -40.3653 410.08 -39.9214C411.048 -39.1119 411.019 -39.1119 408.088 -40.3392C403.562 -42.2193 403.705 -42.1409 398.695 -46.8411C393.259 -51.9068 391.352 -53.9174 385.233 -61.2027C378.857 -68.8013 377.861 -69.898 377.576 -69.7413C377.434 -69.663 377.377 -69.428 377.463 -69.2191C377.548 -69.0102 377.463 -68.8535 377.292 -68.8535C377.093 -68.8535 377.036 -68.3835 377.121 -67.4957C377.263 -66.0073 379.056 -62.1166 384.208 -52.0374L387.026 -46.58L385.517 -46.7628C384.72 -46.8411 381.476 -47.4939 378.345 -48.1989C370.034 -50.079 369.55 -50.1312 368.383 -49.7918C365.935 -49.0606 368.298 -46.4494 374.161 -43.4204C377.975 -41.4359 386.884 -37.7541 390.299 -36.7357C393.515 -35.7696 393.544 -35.7435 399.065 -30.0249C400.745 -28.2754 403.392 -25.847 404.9 -24.6197C408.429 -21.7996 409.482 -20.938 408.913 -21.2774C408.259 -21.7213 396.675 -26.9698 393.43 -28.3277C389.901 -29.7899 381.931 -32.8189 381.59 -32.8189C381.106 -32.8189 382.017 -31.1739 382.984 -30.2861C383.525 -29.7638 384.948 -28.9282 386.144 -28.4321C388.164 -27.5443 396.219 -23.1575 396.845 -22.583C397.101 -22.348 396.475 -22.4525 395.337 -22.818C395.166 -22.8964 394.995 -22.8441 394.995 -22.6875C394.995 -22.3219 396.988 -21.2252 403.534 -17.9873C414.748 -12.4516 420.697 -8.79588 425.165 -4.67016C425.535 -4.3307 425.535 -4.30458 425.165 -4.51349C424.937 -4.61794 421.778 -6.62857 418.135 -8.97864C409.852 -14.3055 409.084 -14.7494 405.014 -16.6295C401.314 -18.3268 389.872 -22.7136 386.314 -23.8103C384.151 -24.4631 380.394 -25.2465 377.69 -25.612C376.353 -25.7948 376.21 -25.5598 376.836 -24.3325C377.064 -23.8625 377.861 -23.3403 379.512 -22.6091C380.821 -22.0608 381.988 -21.5908 382.159 -21.5908C382.301 -21.5908 382.927 -21.1991 383.497 -20.7029C384.749 -19.6585 387.851 -18.0134 395.565 -14.2794C404.843 -9.78811 414.008 -4.5396 423.6 1.77951C432.85 7.86362 441.673 14.6005 439.538 13.8955C437.489 13.2427 430.971 9.87423 417.765 2.69343C406.409 -3.49511 404.587 -4.43515 402.452 -5.2185C400.545 -5.94966 396.731 -6.81136 396.475 -6.57634C395.565 -5.76687 402.338 -1.06671 414.492 5.95744C429.406 14.5483 440.791 21.703 444.377 24.7581C446.085 26.2204 445.459 25.9331 442.242 23.8181C437.859 20.9718 436.749 20.2929 430.971 17.1073C424.88 13.7388 419.217 10.9709 416.456 10.0048C415.545 9.69146 411.56 8.72531 407.661 7.88971C403.733 7.02802 400.318 6.27078 400.033 6.19244C399.663 6.08799 399.549 6.21855 399.549 6.79302C399.549 7.21081 399.72 7.75917 399.891 7.99417C400.261 8.43807 407.917 12.0676 412.642 14.026C418.22 16.3239 425.564 20.3974 433.846 25.8026C439.51 29.5105 439.852 29.876 435.838 28.0743C433.96 27.2126 430.63 25.907 428.438 25.1498C424.681 23.8442 423.77 23.6614 412.528 21.8335C405.982 20.7891 400.545 19.9796 400.46 20.0579C400.375 20.1363 400.488 20.5018 400.688 20.8674C401.314 21.9119 404.559 23.1653 411.105 24.8625C421.209 27.4999 426.076 29.1971 429.235 31.1817C430.146 31.7561 432.651 33.1139 434.785 34.2106C438.087 35.8818 445.259 40.4775 444.975 40.7387C444.918 40.7909 444.519 40.7126 444.064 40.5559C442.783 40.112 440.421 40.1903 439.055 40.7648C436.721 41.7048 435.44 43.6632 434.586 47.5017L434.017 50.0868L432.138 51.6274C430.146 53.2463 429.321 54.4736 428.353 57.2676C426.731 61.9155 426.161 66.459 426.19 74.8932C426.19 83.0663 426.588 87.3747 427.471 89.0459C427.784 89.6465 428.182 90.1687 428.324 90.1687C428.467 90.1687 428.381 90.5604 428.097 91.0043C427.698 91.6832 427.584 92.4405 427.613 94.4772C427.613 98.4201 428.751 102.703 431.142 107.794C431.74 109.074 432.508 110.902 432.821 111.842C433.163 112.782 433.334 113.2 433.248 112.756C433.049 111.711 433.163 111.868 434.472 114.192C435.355 115.759 435.838 116.307 436.977 116.986C437.745 117.456 438.4 117.795 438.457 117.769C438.514 117.691 437.546 113.33 434.415 99.5691C434.045 97.924 433.789 96.5401 433.846 96.4617C434.074 96.2528 437.176 98.629 438.742 100.196C442.47 103.956 445.572 108.082 447.024 111.215C448.134 113.67 449.643 126.595 449.643 133.88C449.643 141.113 449.045 145.056 446.654 153.752C445.829 156.754 444.548 161.063 443.808 163.282C442.442 167.356 439.681 174.432 439.083 175.242C438.827 175.633 438.798 175.633 438.912 175.268C439.937 172.213 441.417 164.379 442.015 158.713C442.584 153.308 442.499 136.909 441.872 132.209C441.189 127.222 440.449 123.932 439.624 122.234L438.941 120.85L438.201 121.529C437.29 122.365 437.205 123.122 436.977 132.209C436.635 146.936 435.639 155.919 433.248 165.711C432.366 169.471 428.552 183.728 428.097 185.086C427.841 185.843 427.641 184.773 426.702 177.513C426.275 174.067 425.877 171.194 425.848 171.142C425.649 170.907 424.027 171.743 423.913 172.134C423.827 172.369 423.628 174.902 423.486 177.775C422.974 186.418 422.547 191.013 422.29 190.648C422.148 190.465 422.034 189.473 422.034 188.454C422.034 184.955 420.896 176.156 420.013 172.604C419.387 170.124 419.074 169.889 417.936 170.933C417.31 171.508 417.281 171.743 417.11 176.887C416.968 181.9 416.57 185.582 415.659 190.178C415.232 192.371 415.232 192.345 414.492 188.219C413.894 185.008 412.556 181.195 411.617 180.072C410.991 179.341 410.849 179.263 410.365 179.524C410.052 179.707 409.71 180.02 409.596 180.255C409.511 180.464 409.397 183.284 409.369 186.522C409.283 195.583 408.657 199.369 404.985 213.156C404.189 216.081 403.392 218.614 403.192 218.797C402.538 219.345 372.453 237.858 369.806 239.347C367.729 240.496 367.131 240.966 366.59 241.906C365.879 243.185 365.822 244.256 366.362 245.431ZM430.004 85.4164C430.004 81.6823 431.028 75.8855 432.935 68.9135C433.732 65.9368 433.875 65.6495 434.045 66.4329C434.159 66.929 434.586 72.0209 435.013 77.7655C435.44 83.5102 435.838 88.2626 435.895 88.3409C436.237 88.7065 437.603 87.5314 438.03 86.513L438.514 85.338L438.514 88.0014C438.542 90.6649 438.4 91.0827 437.66 90.2732C437.461 90.0382 436.635 89.5159 435.838 89.0981C434.216 88.2365 431.825 88.0798 430.573 88.7326C429.548 89.2809 429.434 89.2287 429.748 88.2887C429.89 87.8186 430.004 86.513 430.004 85.4164ZM438.827 79.8545C438.969 78.2616 439.311 73.692 439.567 69.6708C439.823 65.6495 440.079 62.3333 440.108 62.2811C440.278 62.0983 441.531 62.8294 442.869 63.8478C446.796 66.8507 452.375 74.9454 457.669 85.2858C459.974 89.8032 464.158 98.6029 464.158 98.9685C464.158 99.0468 463.077 97.7935 461.767 96.2006C460.43 94.6078 458.921 92.8322 458.409 92.2316C457.64 91.3438 444.918 80.4028 443.352 79.28C442.982 78.9928 442.698 79.0711 441.73 79.7239C440.335 80.6378 439.738 81.4212 439.055 83.2229C438.571 84.5285 438.571 84.5285 438.542 83.6407C438.542 83.1446 438.656 81.4212 438.827 79.8545ZM442.271 88.602C442.413 87.0875 442.669 85.7558 442.783 85.6514C442.982 85.4686 449.899 93.9811 454.538 100.091C456.189 102.285 460.828 108.969 462.735 111.946C464.101 114.087 464.187 114.296 463.845 114.949C463.646 115.315 463.418 116.907 463.333 118.474L463.162 121.346L459.234 115.68C457.071 112.547 454.993 109.283 454.652 108.369C454.282 107.481 453.428 104.818 452.773 102.441C452.119 100.065 451.265 97.5846 450.895 96.9056C450.269 95.7828 449.216 94.895 448.874 95.2084C448.817 95.2867 448.675 96.2267 448.589 97.3234L448.419 99.3079L447.707 97.8718C447.309 97.0884 446.91 96.4356 446.796 96.4356C446.569 96.4356 446.939 98.3157 447.252 98.8902C447.707 99.6996 442.584 93.9811 442.072 93.0933C441.872 92.7277 441.759 92.1794 441.815 91.866C441.901 91.5788 442.1 90.1165 442.271 88.602ZM454.14 47.6583C454.766 48.05 458.836 52.0713 460.259 53.6641C461.084 54.6042 464.357 59.3304 465.126 60.6621C465.496 61.3149 464.5 60.166 460.031 54.7608C457.697 51.9407 455.278 49.1467 454.709 48.5462C453.513 47.3189 453.4 47.1622 454.14 47.6583Z" fill="url(#paint14_linear_84_2465)"/>
</g>
<path d="M354.352 278.707C353.781 280.05 354.079 283.103 354.923 284.515C356.214 286.701 359.591 288.205 366.219 289.503C367.883 289.845 381.91 291.963 397.328 294.218C412.745 296.473 425.779 298.545 426.301 298.841C426.822 299.092 430.72 301.985 434.965 305.242L442.711 311.118L451.401 314.99C474.763 325.354 481.367 328.77 490.826 335.308C493.16 336.902 495.493 338.451 496.04 338.724C496.586 338.952 498.2 339.84 499.64 340.66C501.427 341.662 502.644 342.141 503.463 342.118C504.133 342.141 504.679 342.004 504.679 341.867C504.679 341.731 503.959 340.66 503.115 339.476C500.906 336.446 493.16 328.839 487.325 323.942C484.644 321.664 482.41 319.751 482.434 319.682C482.41 319.569 490.851 323.486 514.933 334.829C520.817 337.585 525.857 339.931 526.13 340.045C526.403 340.159 525.633 338.815 524.392 337.084C522.431 334.283 521.711 333.531 518.409 330.729C514.039 326.994 504.282 320.411 497.355 316.516C495.419 315.423 497.356 316.106 505.151 319.25C516.398 323.782 531.989 330.934 537.054 333.895C543.782 337.836 545.445 337.995 545.346 334.715C545.321 333.508 545.023 332.643 544.403 331.845C543.161 330.205 539.164 326.675 536.681 324.99C535.49 324.215 534.571 323.509 534.546 323.395C534.546 323.304 535.49 323.623 536.632 324.17C537.774 324.671 540.902 326.083 543.658 327.29C547.729 329.112 549.865 330.342 556.096 334.374C564.637 339.931 567.144 341.366 568.907 341.753C571.265 342.277 571.687 340.432 569.875 337.585C568.609 335.649 553.638 321.915 548.971 318.407C547.158 317.063 544.998 315.446 544.179 314.831L542.665 313.715L550.833 313.738C559.199 313.76 566.201 314.489 577.646 316.471C584.374 317.633 594.801 319.865 599.891 321.209C607.562 323.236 614.166 323.965 615.284 322.94C616.053 322.234 615.755 321.322 614.539 320.48C612.925 319.318 605.502 316.699 591.077 312.121C583.952 309.866 577.969 307.975 577.795 307.907C577.571 307.838 579.657 307.793 582.363 307.816C588.148 307.838 591.524 308.248 601.083 310.139C612.826 312.485 614.514 312.713 615.308 311.984C615.879 311.46 615.904 311.164 615.433 310.412L614.862 309.478L618.759 310.23C625.14 311.483 628.467 312.348 638.72 315.332C649.272 318.407 649.743 318.521 649.594 317.883C649.495 317.473 655.652 318.658 660.767 319.979C663.1 320.571 664.689 320.616 665.732 320.115C666.303 319.819 666.303 319.591 665.732 318.612C665.086 317.519 664.764 317.314 662.182 316.266C655.801 313.647 630.329 304.855 620.497 301.848C617.791 301.005 615.631 300.299 615.681 300.254C616.028 299.935 629.832 301.666 636.089 302.805C640.26 303.579 643.735 304.08 643.835 303.898C643.934 303.761 646.64 304.194 649.793 304.9C656.248 306.358 659.376 306.631 660.245 305.834C660.791 305.333 660.742 305.242 659.351 304.149C658.185 303.26 656.62 302.6 652.4 301.279C647.484 299.73 636.337 296.792 632.662 296.063C629.534 295.425 632.861 295.653 636.908 296.359C641.724 297.179 647.509 298.75 663.473 303.556C669.456 305.356 674.744 306.791 675.266 306.722C675.837 306.7 676.631 306.29 677.202 305.766C678.021 305.014 678.071 304.832 677.599 304.581C677.301 304.445 673.13 302.076 668.339 299.32C658.805 293.853 657.489 293.238 649.321 290.391C646.292 289.298 643.81 288.341 643.81 288.25C643.785 288.136 647.559 287.316 652.152 286.428C656.72 285.562 661.462 284.583 662.653 284.31C664.491 283.854 665.36 283.923 668.562 284.629C670.747 285.13 673.23 285.95 674.67 286.679C680.007 289.389 683.111 290.687 684.178 290.665L685.271 290.619L684.327 288.25C683.359 285.859 683.359 285.859 680.38 283.444C678.344 281.759 677.475 280.916 677.674 280.734C677.798 280.62 680.132 279.709 682.813 278.707C687.605 276.953 691.105 275.381 693.166 273.992C693.96 273.491 694.209 273.126 694.159 272.488C694.134 271.691 694.035 271.646 692.669 271.213C691.428 270.849 689.293 271.122 679.61 272.807C666.675 275.017 668.562 275.062 661.685 272.488C660.196 271.942 656.347 270.78 653.145 269.937C646.491 268.161 646.417 268.32 654.907 267.318C664.64 266.179 680.852 265.701 688.722 266.316C694.109 266.749 696.071 266.589 697.064 265.678L697.784 265.018L696.095 264.608C695.177 264.403 689.193 263.013 682.863 261.487C670.697 258.617 667.097 258.093 657.638 257.888C655.106 257.843 653.095 257.729 653.194 257.638C653.492 257.365 663.572 254.859 669.704 253.515C680.727 251.146 696.542 248.436 703.097 247.844C706.374 247.525 708.385 247.092 709.03 246.5C709.254 246.295 709.154 245.794 708.707 245.202C708.112 244.427 707.59 244.177 705.753 243.721C703.022 243.083 693.836 242.901 686.214 243.288C679.263 243.653 661.909 245.088 657.514 245.657C654.237 246.067 653.368 246.09 654.858 245.68C657.365 244.974 674.794 241.284 685.246 239.211C687.505 238.778 691.825 237.822 694.879 237.116C697.933 236.41 701.93 235.476 703.767 235.02C705.629 234.588 710.023 233.699 713.524 233.039C720.351 231.786 722.263 231.08 722.983 229.554L723.405 228.665L718.316 228.779C702.625 229.098 673.677 231.74 658.607 234.223C655.652 234.701 653.244 235.043 653.219 234.975C653.244 234.724 661.784 230.442 666.924 228.096C680.256 222.06 694.73 217.937 721.121 212.676C737.358 209.442 736.29 209.692 736.911 208.849C737.581 207.87 737.258 207.574 734.999 207.141C732.641 206.708 728.594 207.005 719.482 208.212C701.806 210.58 691.304 212.699 674.471 217.254C662.604 220.489 650.215 224.839 640.011 229.372C638.273 230.146 637.032 230.602 637.28 230.374C638.075 229.554 647.484 225.431 652.623 223.632C655.503 222.63 665.062 219.509 673.875 216.708C702.302 207.62 709.154 204.886 717.397 199.465C720.873 197.188 727.65 191.197 730.282 188.145C731.598 186.574 731.697 186.346 731.176 186.004C730.729 185.685 729.115 186.164 723.082 188.51C713.176 192.359 713.4 192.291 665.831 208.553C661.909 209.92 658.706 210.945 658.681 210.831C658.706 210.171 672.684 202.039 680.628 198.076C696.319 190.241 729.686 176.438 738.549 174.137C739.865 173.796 741.256 173.203 741.703 172.793C742.571 171.996 744.011 171.495 746.767 171.062C747.835 170.903 750.193 170.425 752.055 169.992C753.917 169.559 756.251 169.24 757.195 169.24L758.932 169.286L758.709 168.489C758.361 167.395 756.847 166.051 755.308 165.459C752.105 164.252 744.409 163.796 737.581 164.457C724.771 165.687 710.743 169.491 691.378 177.053C687.654 178.51 684.452 179.718 684.303 179.718C683.88 179.695 690.211 174.479 696.468 169.696C703.469 164.32 709.502 160.152 713.176 158.148C716.702 156.235 728.519 150.358 731.151 149.219C733.758 148.103 752.701 138.514 752.701 138.332C752.701 137.967 750.317 137.557 748.753 137.626C746.569 137.762 731.722 142.363 725.664 144.778C716.801 148.308 706.523 153.683 693.935 161.314C690.211 163.546 687.034 165.414 686.835 165.505C686.239 165.687 692.868 160.152 695.251 158.512C703.817 152.476 713.598 147.055 729.835 139.357C740.163 134.437 743.614 132.729 743.614 132.501C743.614 132.41 743.217 132.045 742.72 131.726C740.188 129.995 732.839 131.726 718.539 137.421C708.832 141.27 705.207 142.956 697.808 147.01C688.622 152.066 682.267 156.121 672.336 163.136C670.548 164.411 670.697 164.229 674.074 161.086C680.231 155.346 689.764 147.875 699.348 141.316C707.267 135.872 711.414 133.708 722.337 129.289C725.391 128.082 728.221 126.898 728.668 126.67C729.115 126.442 731.995 125.303 735.074 124.119C738.152 122.935 743.664 120.702 747.313 119.176C753.52 116.58 753.917 116.352 753.52 115.851C752.304 114.279 749.026 114.143 742.422 115.373C733.088 117.149 721.171 121.021 711.116 125.599L704.313 128.697L706.945 126.556C715.932 119.313 728.569 112.594 745.178 106.284C749.722 104.576 754.464 102.64 755.705 102.048C756.971 101.433 758.237 100.818 758.56 100.659C758.982 100.454 758.957 100.249 758.461 99.793C756.425 97.9253 746.122 99.7703 730.381 104.781C716.18 109.337 711.935 111.09 698.727 117.878C691.924 121.34 691.627 121.477 692.495 120.361C694.506 117.878 707.019 105.715 711.538 101.843C717.695 96.5587 721.369 93.9166 732.69 86.4912C737.829 83.143 742.497 80.0453 743.118 79.6126L744.21 78.8837L743.267 78.2915C739.915 76.2644 729.637 79.3621 719.731 85.398C717.273 86.924 715.162 88.1312 715.014 88.1312C714.84 88.154 715.585 87.4707 716.602 86.6735C717.67 85.8763 720.674 83.5302 723.355 81.4803C726.012 79.4076 732.541 74.5561 737.854 70.684C743.142 66.7891 747.512 63.5548 747.512 63.4637C747.487 63.3953 746.643 63.2587 745.625 63.1904C744.16 63.0765 743.242 63.2815 741.653 64.0103C738.972 65.2403 724.671 72.8023 719.358 75.7633C717.049 77.016 715.038 78.0865 714.865 78.1093C714.318 78.1549 717.993 75.1939 721.245 72.9389C722.884 71.8001 726.508 69.4768 729.264 67.7685C732.07 66.0603 734.329 64.6253 734.329 64.5798C734.354 64.1925 729.686 64.557 727.899 65.1036C718.44 67.9508 699.919 79.5215 687.381 90.3861L685.345 92.1627L688.151 87.9034C693.29 80.1365 702.054 68.9074 715.237 53.3051C716.851 51.4146 718.191 49.7747 718.191 49.6836C718.216 49.2964 716.007 49.1369 715.262 49.4558C714.095 49.9341 709.874 53.0774 703.841 57.9289C699.397 61.5049 697.61 63.1904 691.155 69.7501C687.034 73.9411 683.558 77.4032 683.458 77.4032C682.887 77.4716 683.483 69.9551 684.625 63.0309C687.828 43.5565 688.548 35.744 687.952 25.8133C687.331 14.9942 686.562 11.6004 683.21 5.06337C681.323 1.32795 681.298 1.30517 680.579 1.60125C679.511 2.03403 679.337 2.51235 679.238 5.47337C679.188 6.9311 679.014 9.04935 678.841 10.1654C678.667 11.2815 678.592 13.9464 678.667 16.1102C678.791 18.274 678.716 21.2578 678.518 22.7611C678.22 25.4944 675.092 40.755 674.819 41.0055C674.546 41.2561 673.503 34.5596 672.981 29.2981C672.733 26.5193 672.386 21.2351 672.212 17.568C671.939 11.2132 671.765 9.82378 670.846 8.29773C670.524 7.68272 670.399 7.7055 669.655 8.38881C668.562 9.39102 667.321 13.2631 665.459 21.5312C662.604 34.218 661.958 40.1855 662.678 47.3603C662.852 49.433 663.2 53.8518 663.373 57.2C663.547 60.5482 663.746 63.9648 663.795 64.7847C663.87 66.2653 663.845 66.2425 662.455 62.8259C660.295 57.5644 660.345 57.7467 660.444 49.638C660.518 40.8689 660.767 37.589 662.356 26.3371C664.019 14.607 664.193 12.8531 663.795 12.762C663.597 12.7165 663.324 12.8759 663.2 13.1264C663.076 13.377 662.852 13.4453 662.703 13.3087C662.529 13.1492 662.033 13.5137 661.263 14.3564C659.972 15.7686 657.837 20.5973 652.747 33.5119L650.017 40.5272L648.874 39.1606C648.254 38.4545 646.044 35.2885 643.984 32.168C638.522 23.8772 638.149 23.4444 636.809 22.8067C633.978 21.4856 633.556 25.6538 635.791 32.988C637.231 37.7712 641.501 48.1119 643.512 51.7335C645.399 55.1501 645.399 55.1956 644.778 64.6025C644.579 67.4724 644.579 71.709 644.728 73.9867C645.126 79.2709 645.225 80.8653 645.051 80.1137C644.902 79.2026 639.788 65.3542 638.249 61.5732C636.56 57.4733 632.489 48.4536 632.191 48.1803C631.769 47.7931 630.999 49.9569 630.999 51.5057C630.974 52.394 631.421 54.2617 631.992 55.6512C632.911 58.0427 635.766 68.3152 635.766 69.3174C635.766 69.7274 635.319 69.1352 634.673 67.9052C634.599 67.7002 634.4 67.6091 634.251 67.7457C633.904 68.0646 634.599 70.6157 637.231 78.6787C641.749 92.4816 643.462 100.431 643.437 107.606C643.437 108.198 643.413 108.221 643.288 107.742C643.189 107.469 642.345 103.187 641.402 98.2214C639.242 86.9468 638.993 85.9446 637.231 81.0475C635.617 76.606 629.807 63.6231 627.747 59.8193C626.481 57.5189 623.948 53.829 621.937 51.3463C620.944 50.1163 620.597 50.2074 619.976 51.779C619.728 52.3713 619.926 53.4646 620.671 55.4234C621.292 56.9494 621.863 58.2933 622.012 58.43C622.136 58.5438 622.31 59.3866 622.334 60.2749C622.434 62.1882 623.576 66.1058 626.754 75.5355C630.577 86.8785 633.581 98.7908 635.94 111.979C638.224 124.688 639.515 137.626 638.323 135.302C637.156 133.093 634.673 124.939 629.981 108.107C625.959 93.6205 625.264 91.3428 624.147 88.9512C623.179 86.7873 620.671 82.9836 620.224 82.9836C618.66 82.9608 620.1 92.4816 624.023 108.334C628.864 127.763 631.992 143.115 632.216 148.65C632.315 151.292 632.042 150.54 631.247 146.122C630.13 140.131 629.807 138.651 627.796 131.248C625.686 123.436 623.377 116.489 621.888 113.436C621.391 112.434 618.834 108.403 616.227 104.553C613.62 100.659 611.361 97.2648 611.187 96.9687C610.964 96.5815 610.74 96.6043 610.194 97.1053C609.797 97.4698 609.424 98.0847 609.35 98.4264C609.251 99.1097 612.478 108.403 614.737 113.892C617.419 120.361 619.951 129.79 622.037 141.133C623.452 148.9 623.402 149.493 621.614 144.709C620.795 142.454 619.132 138.651 617.94 136.236C615.904 132.091 615.284 131.203 607.215 120.611C602.498 114.461 598.525 109.405 598.376 109.405C598.227 109.405 597.979 109.815 597.805 110.293C597.359 111.705 598.997 115.395 603.094 122.115C609.4 132.501 612.031 137.876 612.9 142.136C613.148 143.365 614.042 146.554 614.862 149.219C616.153 153.319 618.039 163.068 617.543 163.068C617.444 163.068 617.17 162.68 616.922 162.179C616.227 160.767 614.092 158.945 612.354 158.353C609.424 157.305 606.445 157.988 602.051 160.653L599.096 162.453L595.993 162.293C592.716 162.111 590.829 162.521 587.328 164.184C581.494 166.94 576.678 170.447 568.683 177.827C560.913 184.956 557.164 189.033 556.344 191.197C556.046 191.972 555.897 192.746 556.022 192.86C556.146 192.974 555.699 193.247 555.029 193.407C554.035 193.68 553.216 194.249 551.304 196.049C547.556 199.488 544.477 204.135 541.721 210.489C541.026 212.084 539.959 214.293 539.338 215.364C538.742 216.457 538.494 216.958 538.841 216.503C539.661 215.432 539.611 215.66 538.543 218.735C537.823 220.807 537.724 221.673 538.072 223.176C538.295 224.201 538.543 225.021 538.618 225.044C538.742 225.021 542.044 220.443 552.397 205.934C553.638 204.203 554.731 202.791 554.855 202.768C555.252 202.768 555.699 207.323 555.575 209.943C555.252 216.206 554.035 222.288 552.322 226.183C550.957 229.212 539.983 241.694 533.057 248.049C526.18 254.358 521.909 257.319 511.557 262.99C507.981 264.949 502.768 267.683 500.012 269.026C494.947 271.486 485.811 275.449 484.52 275.677C483.924 275.814 483.899 275.791 484.346 275.563C488.145 273.718 496.884 268.07 502.793 263.605C508.428 259.346 523.945 244.974 527.868 240.373C532.014 235.476 534.497 232.014 535.39 229.873L536.11 228.119L534.819 228.119C533.23 228.119 532.436 228.711 523.598 236.455C509.297 249.028 499.888 256.066 488.492 262.694C484.148 265.268 467.265 274.652 465.577 275.472C464.634 275.928 465.478 274.834 471.56 267.751C474.465 264.403 476.848 261.578 476.873 261.51C476.923 261.146 474.713 260.576 474.242 260.827C473.944 260.963 471.362 263.013 468.507 265.405C459.842 272.534 455.1 276.201 455.224 275.677C455.274 275.404 456.118 274.447 457.086 273.559C460.413 270.507 467.787 261.92 470.393 258.116C472.206 255.451 472.156 254.996 470.17 254.996C469.078 254.996 468.829 255.178 463.789 259.528C458.899 263.788 455.05 266.68 449.886 269.96C447.428 271.532 447.453 271.509 450.73 267.318C453.263 264.038 455.721 259.642 455.969 257.911C456.118 256.772 456.068 256.59 455.398 256.431C454.951 256.34 454.355 256.34 454.032 256.453C453.759 256.567 450.979 258.936 447.875 261.738C439.186 269.573 435.04 272.375 418.729 281.463C415.253 283.376 412.149 284.947 411.802 284.947C410.709 284.902 366.865 276.976 363.141 276.156C360.236 275.495 359.268 275.427 357.902 275.814C356.065 276.361 354.998 277.249 354.352 278.707ZM562.005 190.058C565.555 186.801 571.961 182.565 580.253 178.009C583.778 176.051 584.175 175.914 583.58 176.734C583.207 177.258 578.738 182.041 573.649 187.393C568.559 192.746 564.388 197.21 564.363 197.324C564.314 197.916 566.623 197.985 567.963 197.438L569.503 196.8L566.97 199.124C564.463 201.47 563.941 201.72 564.066 200.422C564.115 200.058 563.892 198.941 563.594 197.939C562.998 195.889 561.061 193.839 559.348 193.407C557.933 193.065 557.884 192.928 559.051 192.359C559.622 192.063 560.962 191.015 562.005 190.058ZM574.989 192.268C576.628 190.992 581.271 187.28 585.317 183.977C589.364 180.674 592.741 177.987 592.815 177.964C593.138 177.941 593.535 179.581 593.734 181.54C594.305 187.302 591.475 198.828 586.261 212.084C583.977 217.869 579.26 228.893 578.912 229.212C578.838 229.28 579.086 227.322 579.458 224.884C579.806 222.425 580.178 219.669 580.302 218.735C580.476 217.345 579.781 197.62 579.483 195.388C579.433 194.842 579.111 194.682 577.646 194.477C575.56 194.158 574.294 194.363 571.985 195.388C570.322 196.14 570.322 196.14 571.141 195.343C571.613 194.91 573.351 193.498 574.989 192.268ZM569.676 202.654C571.241 201.447 572.73 200.49 572.929 200.49C573.276 200.49 571.216 213.45 569.453 222.493C568.808 225.727 566.499 235.271 565.332 239.393C564.488 242.354 564.363 242.605 563.445 242.901C562.924 243.061 561.21 244.268 559.646 245.566L556.766 247.935L558.728 239.849C559.82 235.385 561.111 230.875 561.682 229.804C562.204 228.734 563.991 225.727 565.679 223.131C567.368 220.534 568.981 217.687 569.304 216.799C569.825 215.318 569.751 213.701 569.155 213.701C569.031 213.724 568.013 214.43 566.896 215.318L564.86 216.913L565.605 215.09C566.002 214.088 566.275 213.2 566.176 213.109C565.977 212.927 564.512 214.863 564.239 215.614C563.867 216.685 564.835 207.597 565.232 206.412C565.406 205.934 565.828 205.365 566.176 205.137C566.523 204.955 568.088 203.839 569.676 202.654ZM618.958 176.438C619.132 177.28 618.859 184.045 618.586 186.574C618.412 188.054 616.773 194.796 616.177 196.573C615.879 197.438 616.103 195.639 617.344 187.348C617.99 183.02 618.536 178.647 618.61 177.668C618.735 175.641 618.784 175.413 618.958 176.438Z" fill="url(#paint15_linear_84_2465)"/>
<g opacity="0.5">
<path d="M980.247 62.2691C972.804 63.6996 967.001 63.3899 958.337 61.0745C954.672 60.1012 950.766 59.703 946.024 59.8063C942.728 59.88 936.363 60.6469 937.697 60.8091C945.734 61.7824 954.302 63.7438 961.182 66.1624C964.542 67.3569 965.233 67.6961 964.944 67.9616C964.574 68.3007 961.375 69.5543 959.044 70.2769C953.306 72.0613 948.773 72.3858 943.468 71.4419C941.684 71.1323 939.883 70.6013 934.434 68.7579C929.274 67.0325 926.606 66.5311 923.021 66.6048C920.77 66.6343 915.45 67.0325 913.44 67.3127C913.215 67.3422 914.341 67.4897 915.964 67.6224C919.275 67.9173 923.825 68.6989 926.782 69.4953C930.93 70.6161 937.617 73.3001 937.954 73.9932C938.115 74.3472 937.392 74.8633 934.916 76.1316C931.187 78.0488 926.638 79.0369 921.703 79.0221C918.375 79.0074 914.614 78.5945 908.457 77.5474C895.083 75.2763 890.068 75.1583 883.959 77.0165C882.4 77.4737 879.266 78.7272 878.976 78.9926C878.944 79.0221 880.294 79.0221 881.966 78.9926C888.251 78.8599 893.942 80.0102 899.488 82.5615C901.127 83.2989 901.979 83.7855 901.979 83.992C901.979 84.6114 897.607 86.9415 894.312 88.0475C890.309 89.419 886.403 89.8762 877.128 90.009C869.042 90.1417 866.1 90.4514 862.146 91.6312C857.581 92.9879 854.977 94.5217 850.171 98.7247C848.145 100.494 846.634 101.91 846.714 101.984C846.795 102.058 847.663 101.704 848.659 101.173C854.446 98.1348 861.182 96.1734 867.21 95.7457C869.573 95.5835 874.234 95.8784 876.26 96.3208L877.481 96.5863L877.224 97.1467C876.838 97.9725 872.386 101.704 869.926 103.252C865.554 106.025 860.78 108.281 851.087 112.189C838.516 117.233 834.064 119.489 829.916 122.91C828.068 124.429 825.689 127.025 825.174 128.057C825.062 128.278 825.946 127.644 827.168 126.641C834.353 120.698 842.551 116.451 849.029 115.315C851.296 114.917 854.173 114.726 854.414 114.947C854.961 115.448 851.489 120.374 848.306 123.618C843.821 128.146 839.69 131.375 828.052 139.427C816.816 147.199 816.221 147.657 811.736 151.742C806.994 156.092 806.865 156.24 803.441 162.478C802.139 164.823 800.869 167.138 800.596 167.625C799.68 169.261 798.089 172.727 798.233 172.742C798.314 172.727 799.375 171.488 800.596 169.955C808.923 159.543 818.777 150.326 828.164 144.191C831.395 142.082 831.524 142.141 829.932 144.987C827.071 150.149 822.297 157.478 819.034 161.681C815.047 166.813 814.26 167.654 806.849 174.541C802.927 178.169 799.278 181.635 798.715 182.269C796.594 184.628 794.488 187.976 792.543 192.179C791.627 194.14 789.89 198.535 790.019 198.535C790.067 198.55 790.437 197.975 790.823 197.296C793.089 193.329 797.204 187.696 801.03 183.36C803.715 180.307 809.63 174.792 813.006 172.226C816.767 169.335 816.88 169.379 815.063 173.081C809.1 185.189 803.522 193.875 794.681 204.817C786.643 214.787 786.033 216.025 785.116 224.358C784.907 226.26 784.361 230.271 783.895 233.265L783.059 238.692L782.239 238.619C781.789 238.56 780.84 238.486 780.133 238.427L778.831 238.324L778.895 235.315C778.944 233.649 779.185 229.239 779.426 225.479C780.133 214.801 779.972 213.002 777.449 202.369C775.198 192.961 774.587 188.241 774.716 181.635C774.796 177.166 775.407 172.152 776.468 167.167C777.609 161.785 778.397 159.056 778.751 159.056C778.944 159.056 779.474 160.723 780.117 163.407C783.203 175.883 784.923 186.192 785.727 197.105L785.84 198.476L786.177 197.311C788.347 190.129 788.765 184.879 787.865 176.267C787.64 174.054 787.238 170.235 786.981 167.816C785.374 152.715 787.222 141.256 793.379 128.205C795.083 124.577 795.677 123.589 795.951 123.84C796.127 124.002 796.642 129.93 797.028 136.36C797.172 138.823 797.301 145.282 797.301 150.768C797.301 156.225 797.317 160.693 797.333 160.679C797.365 160.649 797.687 159.705 798.04 158.584C799.085 155.384 799.76 152.376 801.304 144.501C802.975 135.829 803.843 131.995 805.065 127.807C808.843 114.873 814.758 104.697 823.792 95.5245C825.287 94.0055 826.042 93.3714 826.235 93.4009C826.83 93.5336 825.624 103.459 824.274 109.741C823.149 114.932 820.915 122.556 819.613 125.668C819.339 126.302 819.162 126.848 819.195 126.877C819.291 126.966 820.979 124.031 822.072 121.849C823.262 119.43 824.644 116.156 827.955 107.839C833.389 94.1825 836.812 88.1803 843.162 81.1753C846.071 77.9751 850.813 73.89 851.199 74.244C851.569 74.5832 850.797 79.8333 849.769 84.2575C849.11 86.9562 847.357 92.1031 846.264 94.5807C845.862 95.4507 845.589 96.2029 845.654 96.2029C845.782 96.2029 849.463 92.0588 850.958 90.2449C851.521 89.5518 853.385 87.1922 855.057 85.0096C858.433 80.6149 860.908 77.5769 864.107 73.8458C866.824 70.7046 875.777 62.4018 878.816 60.2045C883.252 57.019 889.57 53.0225 890.212 53.0225C891.145 53.0225 888.026 60.6911 885.503 64.5697C883.509 67.6371 880.616 71.1765 877.931 73.8458L876.999 74.7601L878.591 74.008C881.355 72.6808 885.358 70.4539 887.801 68.8907C891.37 66.5901 895.421 62.8147 899.664 57.8006C905.403 51.0316 909.631 47.5069 915.578 44.528C918.697 42.9942 922.362 41.549 922.49 41.8144C922.732 42.2421 920.947 46.9465 919.613 49.3799C917.105 54.0105 913.617 58.0956 909.165 61.6202C907.782 62.7115 906.464 63.7143 906.239 63.8323L905.837 64.0535L906.416 63.9945C907.605 63.8765 911.994 62.5345 913.778 61.7529C916.832 60.3962 920.401 58.0956 927.152 53.0814C933.228 48.5982 935.061 47.6544 944.4 44.1298C950.492 41.8439 950.653 41.7849 950.701 42.2126C950.75 42.6993 949.303 45.5603 948.21 47.1825C946.442 49.778 942.664 53.3616 939.867 55.1313C939.481 55.3673 939.208 55.5885 939.256 55.6327C939.481 55.8392 951.119 52.7128 953.675 51.7542C962.307 48.5245 968.142 47.7134 976.244 48.5982C980.166 49.0112 985.551 50.0877 985.551 50.4417C985.551 51.3855 974.797 53.9368 965.988 55.0871C963.899 55.3525 961.954 55.6032 961.648 55.6475C961.343 55.6917 961.857 55.8392 962.774 55.9424C969.348 56.724 977.9 59.3196 980.536 61.2957C981.243 61.8266 981.163 62.0773 980.247 62.2691Z" fill="url(#paint16_linear_84_2465)"/>
</g>
<path d="M788.301 11.5768C788.651 20.4731 790.827 26.9054 796.549 35.8539C798.961 39.6413 800.679 43.904 801.981 49.2864C802.884 53.0274 803.793 60.4748 803.171 59.0281C799.431 50.3116 794.211 41.3466 788.893 34.4461C786.278 31.0812 785.615 30.422 785.348 30.8421C785.008 31.3789 784.306 35.4285 784.049 38.3117C783.409 45.4123 784.353 50.6374 787.224 56.2836C788.179 58.1856 789.435 60.0274 793.551 65.5185C797.421 70.7252 798.901 73.556 799.891 77.6232C800.535 80.1707 801.619 86.3098 801.855 88.6741C801.884 88.9382 801.346 87.7219 800.675 85.9385C799.276 82.3098 796.851 77.4579 794.89 74.4052C792.134 70.1263 786.52 63.5372 785.492 63.4018C784.971 63.3458 784.502 64.3438 783.56 67.5832C782.133 72.4655 782.196 77.9434 783.714 83.5016C784.744 87.2475 786.438 91.3419 789.705 97.9121C796.799 112.186 798.479 117.798 797.854 125.342C797.717 127.261 796.995 131.238 796.729 131.658C796.699 131.705 796.289 130.183 795.821 128.288C794.089 121.155 790.825 115.147 785.735 109.798C784.253 108.21 783.344 107.422 783.069 107.495C782.242 107.714 780.459 113.467 779.983 117.573C779.368 122.571 779.944 127.136 782.583 137.639C784.861 146.801 785.341 150.227 784.967 155.102C784.542 160.729 783.286 164.207 779.134 171.112C777.387 174.021 775.955 176.225 775.833 176.161C775.71 176.096 775.919 174.993 776.325 173.681C778.623 166.083 779.196 157.796 777.936 150.849C777.435 148.128 775.626 142.977 774.42 140.85L773.695 139.567L773.025 140.055C772.04 140.782 768.411 147.122 767.09 150.442C764.717 156.352 763.154 162.532 760.881 174.842C757.965 190.797 756.305 196.615 752.997 202.5C751.53 205.122 748.788 208.722 747.566 209.667C747.304 209.872 747.883 208.651 748.85 206.919C754.603 196.716 757.783 185.972 757.332 178.267C757.175 175.571 756.557 172.26 756.189 172.066C755.353 171.627 749.832 177.284 746.467 182.02C741.785 188.677 738.728 194.477 731.512 210.445C724.549 225.861 724.119 226.693 720.028 233.194C715.66 240.079 715.502 240.276 708.214 246.343C705.479 248.64 702.774 250.89 702.207 251.371C700.3 252.983 696.156 256.003 696.093 255.845C696.088 255.749 697.42 254.115 699.096 252.195C710.467 239.125 719.78 224.756 725.119 212.003C726.953 207.615 726.835 207.491 723.519 210.291C717.497 215.343 709.162 223.318 704.542 228.483C698.901 234.792 698.018 235.978 691.074 246.768C687.422 252.473 683.904 257.812 683.228 258.671C680.722 261.898 676.892 265.456 671.872 269.135C669.532 270.862 664.192 274.374 664.153 274.229C664.119 274.179 664.774 273.559 665.563 272.884C670.17 268.926 676.442 262.294 681.068 256.447C684.328 252.341 689.895 243.722 692.296 239.008C695.012 233.745 694.919 233.634 690.529 236.991C676.176 247.997 666.274 257.358 654.35 271.196C643.482 283.783 642.014 284.91 631.168 288.89C628.692 289.798 623.503 291.833 619.648 293.418L612.656 296.28L613.004 297.178C613.219 297.665 613.606 298.708 613.899 299.484L614.432 300.916L618.429 299.779C620.639 299.135 626.453 297.303 631.4 295.701C645.439 291.127 647.89 290.672 662.852 289.756C676.096 288.965 682.582 287.984 691.363 285.502C697.304 283.831 703.812 281.369 710.144 278.409C716.984 275.219 720.387 273.366 720.28 272.967C720.221 272.75 717.835 272.741 714.057 272.966C696.463 273.899 682.179 275.607 667.366 278.561L665.501 278.919L666.954 278.127C675.883 273.14 682.765 270.812 694.536 268.78C697.557 268.251 702.779 267.353 706.086 266.787C726.734 263.258 741.47 257.121 757.025 245.563C761.35 242.359 762.489 241.339 762.071 241.12C761.801 240.978 753.73 242.495 745.029 244.335C741.697 245.043 733.035 247.182 725.711 249.123C718.426 251.053 712.456 252.616 712.471 252.592C712.5 252.546 713.663 251.849 715.052 251.054C719.007 248.744 722.818 246.919 732.863 242.394C743.932 237.442 748.787 235.107 754.007 232.248C770.126 223.415 781.915 213.146 791.417 199.717C792.991 197.495 793.608 196.419 793.51 196.212C793.152 195.588 780.268 200.458 772.291 204.203C765.703 207.307 756.203 212.523 752.444 215.092C751.681 215.624 751.006 216.016 750.957 215.991C750.809 215.913 754.215 212.972 756.796 210.968C759.664 208.771 763.615 206.055 773.713 199.38C790.294 188.424 797.268 182.441 804.691 172.805C808.08 168.393 812.093 161.602 811.504 161.293C810.939 160.996 804.164 163.723 798.57 166.447C795.167 168.145 788.828 171.941 785.853 174.05C784.813 174.81 783.892 175.385 783.872 175.312C783.833 175.167 788.248 169.551 790.215 167.224C790.97 166.345 793.554 163.408 795.96 160.752C800.802 155.391 804.106 151.526 808.115 146.6C811.484 142.426 819.849 129.396 821.86 125.194C824.765 119.065 828.182 110.53 827.987 109.805C827.704 108.754 818.413 114.982 814.002 119.199C810.512 122.531 806.665 127.045 803.917 131.016L802.98 132.39L803.5 130.33C804.433 126.744 806.19 121.444 807.535 118.136C809.523 113.299 813.332 107.397 818.738 100.84C826.032 91.9758 829.453 85.963 831.624 78.2043C832.724 74.1462 833.541 69.5033 833.147 69.4522C832.503 69.3316 826.765 73.0072 823.921 75.372C818.501 79.837 814.107 85.2144 810.753 91.4808C809.716 93.4253 808.778 95.266 808.689 95.5614L808.515 96.0927L808.418 95.4195C808.215 94.0368 808.674 88.6149 809.175 86.3269C810.059 82.4039 812.047 77.5671 816.69 68.1824C820.83 59.7466 821.534 57.3469 823.403 45.5715C824.604 37.8948 824.634 37.6927 824.049 37.7897C823.384 37.9075 820.004 40.5504 818.17 42.3565C815.242 45.268 811.605 50.7942 810.092 54.5733C809.894 55.0917 809.682 55.478 809.608 55.4393C809.264 55.2586 809.904 41.0327 810.407 37.8123C812.098 26.9386 811.409 20.0735 807.767 11.2532C806.025 6.97765 802.952 1.28775 802.479 1.41294C801.219 1.7468 801.079 14.7726 802.219 25.1101C802.499 27.5598 802.755 29.8412 802.789 30.2012C802.822 30.5611 802.469 30.0334 802.053 29.037C799.013 21.9018 792.951 13.1792 789.512 10.9063C788.589 10.2967 788.278 10.476 788.301 11.5768Z" fill="url(#paint17_linear_84_2465)"/>
</g>
<defs>
<linearGradient id="paint0_linear_84_2465" x1="1000" y1="100" x2="0" y2="100" gradientUnits="userSpaceOnUse">
<stop stop-color="#EAFBF0"/>
<stop offset="0.619792" stop-color="#EAFBF0"/>
<stop offset="1" stop-color="#EAFBF0" stop-opacity="0"/>
</linearGradient>
<linearGradient id="paint1_linear_84_2465" x1="438" y1="-2" x2="438" y2="176" gradientUnits="userSpaceOnUse">
<stop stop-color="white"/>
<stop offset="1" stop-color="#BCDDC8"/>
</linearGradient>
<linearGradient id="paint2_linear_84_2465" x1="508" y1="-2" x2="508" y2="176" gradientUnits="userSpaceOnUse">
<stop stop-color="white"/>
<stop offset="1" stop-color="#BCDDC8"/>
</linearGradient>
<linearGradient id="paint3_linear_84_2465" x1="640" y1="-2" x2="640" y2="176" gradientUnits="userSpaceOnUse">
<stop stop-color="white"/>
<stop offset="1" stop-color="#BCDDC8"/>
</linearGradient>
<linearGradient id="paint4_linear_84_2465" x1="887" y1="-2" x2="887" y2="176" gradientUnits="userSpaceOnUse">
<stop stop-color="white"/>
<stop offset="1" stop-color="#BCDDC8"/>
</linearGradient>
<linearGradient id="paint5_linear_84_2465" x1="493" y1="-2" x2="493" y2="176" gradientUnits="userSpaceOnUse">
<stop stop-color="white"/>
<stop offset="1" stop-color="#1C9045"/>
</linearGradient>
<linearGradient id="paint6_linear_84_2465" x1="576" y1="-2" x2="576" y2="176" gradientUnits="userSpaceOnUse">
<stop stop-color="white"/>
<stop offset="1" stop-color="#1C9045"/>
</linearGradient>
<linearGradient id="paint7_linear_84_2465" x1="640" y1="-2" x2="640" y2="176" gradientUnits="userSpaceOnUse">
<stop stop-color="white"/>
<stop offset="1" stop-color="#1C9045"/>
</linearGradient>
<linearGradient id="paint8_linear_84_2465" x1="817" y1="0" x2="817" y2="178" gradientUnits="userSpaceOnUse">
<stop stop-color="white"/>
<stop offset="1" stop-color="#BCDDC8"/>
</linearGradient>
<linearGradient id="paint9_linear_84_2465" x1="975" y1="0" x2="975" y2="178" gradientUnits="userSpaceOnUse">
<stop stop-color="white"/>
<stop offset="1" stop-color="#BCDDC8"/>
</linearGradient>
<linearGradient id="paint10_linear_84_2465" x1="716" y1="-2" x2="716" y2="176" gradientUnits="userSpaceOnUse">
<stop stop-color="white"/>
<stop offset="1" stop-color="#1C9045"/>
</linearGradient>
<linearGradient id="paint11_linear_84_2465" x1="787" y1="-2" x2="787" y2="176" gradientUnits="userSpaceOnUse">
<stop stop-color="white"/>
<stop offset="1" stop-color="#1C9045"/>
</linearGradient>
<linearGradient id="paint12_linear_84_2465" x1="885" y1="-2" x2="885" y2="176" gradientUnits="userSpaceOnUse">
<stop stop-color="white"/>
<stop offset="1" stop-color="#1C9045"/>
</linearGradient>
<linearGradient id="paint13_linear_84_2465" x1="990" y1="-2" x2="990" y2="176" gradientUnits="userSpaceOnUse">
<stop stop-color="white"/>
<stop offset="1" stop-color="#1C9045"/>
</linearGradient>
<linearGradient id="paint14_linear_84_2465" x1="570.768" y1="81.6513" x2="366.001" y2="81.6513" gradientUnits="userSpaceOnUse">
<stop stop-color="#1C9045"/>
<stop offset="1" stop-color="#F8F4A5"/>
</linearGradient>
<linearGradient id="paint15_linear_84_2465" x1="688.37" y1="299.422" x2="525.111" y2="121.468" gradientUnits="userSpaceOnUse">
<stop stop-color="#1C9045"/>
<stop offset="1" stop-color="#F8F4A5"/>
</linearGradient>
<linearGradient id="paint16_linear_84_2465" x1="826.325" y1="93.1183" x2="881.488" y2="153.246" gradientUnits="userSpaceOnUse">
<stop stop-color="#1C9045"/>
<stop offset="1" stop-color="#F8F4A5"/>
</linearGradient>
<linearGradient id="paint17_linear_84_2465" x1="793.86" y1="196.01" x2="706.172" y2="140.379" gradientUnits="userSpaceOnUse">
<stop stop-color="#1C9045"/>
<stop offset="1" stop-color="#F8F4A5"/>
</linearGradient>
<clipPath id="clip0_84_2465">
<rect width="1000" height="100" fill="white"/>
</clipPath>
</defs>
</svg>
