<svg width="530" height="180" viewBox="0 0 530 180" fill="none" xmlns="http://www.w3.org/2000/svg">
<rect x="174" width="356" height="180" fill="white"/>
<path d="M120.896 28.9132L174 -1V180H0C10.8468 175.133 35.026 171.55 45.1948 171.381L46.3247 155.157L33.8961 156.678V153.129L15.8182 152.622L39 141H16.9481L52.5 116.469L94.9091 141H67.5L94.9091 151.608L74.5714 153.129V156.678L59.8831 155.157V171.381C69.826 167.731 123.532 163.438 149.143 161.748V96.3445H59.8831L149.143 60.8543H91.5195L149.143 28.9132H120.896Z" fill="white"/>
<path d="M435.097 142.141V184H443.903V142.141L460.538 154.586V142.141L485 145.535L460.538 120.646L474.237 124.04V113.859H485L460.538 93.4949L471.301 95.7576C465.43 87.8384 443.512 72 438.032 72C432.553 72 413.57 87.8384 407.699 95.7576L418.462 93.4949L394 113.859H404.763V124.04L418.462 120.646L394 145.535L418.462 142.141V154.586L435.097 142.141Z" fill="#09A33F" fill-opacity="0.5"/>
<path d="M117.548 120.414V169H129.452V120.414L151.935 134.859V120.414L185 124.354L151.935 95.4646L170.452 99.404V87.5859H185L151.935 63.9495L166.484 66.5758C158.548 57.3838 128.923 39 121.516 39C114.11 39 88.4516 57.3838 80.5161 66.5758L95.0645 63.9495L62 87.5859H76.5484V99.404L95.0645 95.4646L62 124.354L95.0645 120.414V134.859L117.548 120.414Z" fill="#EAFBF0"/>
<path opacity="0.5" d="M340.548 120.414V169H352.452V120.414L374.935 134.859V120.414L408 124.354L374.935 95.4646L393.452 99.404V87.5859H408L374.935 63.9495L389.484 66.5758C381.548 57.3838 351.923 39 344.516 39C337.11 39 311.452 57.3838 303.516 66.5758L318.065 63.9495L285 87.5859H299.548V99.404L318.065 95.4646L285 124.354L318.065 120.414V134.859L340.548 120.414Z" fill="#2AD566"/>
<path d="M257.548 88.4141V137H269.452V88.4141L291.935 102.859V88.4141L325 92.3535L291.935 63.4646L310.452 67.404V55.5859H325L291.935 31.9495L306.484 34.5758C298.548 25.3838 268.923 7 261.516 7C254.11 7 228.452 25.3838 220.516 34.5758L235.065 31.9495L202 55.5859H216.548V67.404L235.065 63.4646L202 92.3535L235.065 88.4141V102.859L257.548 88.4141Z" fill="#EAFBF0"/>
<path d="M243.097 148.121V184H251.903V148.121L268.538 158.788V148.121L293 151.03L268.538 129.697L282.237 132.606V123.879H293L268.538 106.424L279.301 108.364C273.43 101.576 251.512 88 246.032 88C240.553 88 221.57 101.576 215.699 108.364L226.462 106.424L202 123.879H212.763V132.606L226.462 129.697L202 151.03L226.462 148.121V158.788L243.097 148.121Z" fill="#09A33F" fill-opacity="0.5"/>
</svg>
