<svg width="530" height="181" viewBox="0 0 530 181" fill="none" xmlns="http://www.w3.org/2000/svg">
<rect x="173" width="357" height="181" fill="white"/>
<path d="M120.896 29.9132L174 0V181H0C10.8468 176.133 35.026 172.55 45.1948 172.381L46.3247 156.157L33.8961 157.678V154.129L15.8182 153.622L39 142H16.9481L52.5 117.469L94.9091 142H67.5L94.9091 152.608L74.5714 154.129V157.678L59.8831 156.157V172.381C69.826 168.731 123.532 164.438 149.143 162.748V97.3445H59.8831L149.143 61.8543H91.5195L149.143 29.9132H120.896Z" fill="white"/>
<path d="M435.097 139.141V181H443.903V143.141L460.538 155.586V143.141L485 146.535L460.538 121.646L474.237 125.04V114.859H485L460.538 94.495L471.301 96.7576C465.43 88.8384 443.512 73 438.032 73C432.553 73 413.57 88.8384 407.699 96.7576L418.462 94.495L394 114.859H404.763V125.04L418.462 121.646L394 146.535L418.462 143.141V155.586L435.097 139.141Z" fill="#09A33F" fill-opacity="0.5"/>
<path d="M117.548 121.414V170H129.452V121.414L151.935 135.859V121.414L185 125.354L151.935 96.4646L170.452 100.404V88.5859H185L151.935 64.9495L166.484 67.5758C158.548 58.3838 128.923 40 121.516 40C114.11 40 88.4516 58.3838 80.5161 67.5758L95.0645 64.9495L62 88.5859H76.5484V100.404L95.0645 96.4646L62 125.354L95.0645 121.414V135.859L117.548 121.414Z" fill="#EAFBF0"/>
<path opacity="0.5" d="M340.548 121.414V170H352.452V121.414L374.935 135.859V121.414L408 125.354L374.935 96.4646L393.452 100.404V88.5859H408L374.935 64.9495L389.484 67.5758C381.548 58.3838 351.923 40 344.516 40C337.11 40 311.452 58.3838 303.516 67.5758L318.065 64.9495L285 88.5859H299.548V100.404L318.065 96.4646L285 125.354L318.065 121.414V135.859L340.548 121.414Z" fill="#2AD566"/>
<path d="M257.548 89.4141V138H269.452V89.4141L291.935 103.859V89.4141L325 93.3535L291.935 64.4646L310.452 68.404V56.5859H325L291.935 32.9495L306.484 35.5758C298.548 26.3838 268.923 8 261.516 8C254.11 8 228.452 26.3838 220.516 35.5758L235.065 32.9495L202 56.5859H216.548V68.404L235.065 64.4646L202 93.3535L235.065 89.4141V103.859L257.548 89.4141Z" fill="#EAFBF0"/>
<path d="M243.097 149.121V181H251.903V149.121L268.538 159.788V149.121L293 152.03L268.538 130.697L282.237 133.606V124.879H293L268.538 107.424L279.301 109.364C273.43 102.576 251.512 89 246.032 89C240.553 89 221.57 102.576 215.699 109.364L226.462 107.424L202 124.879H212.763V133.606L226.462 130.697L202 152.03L226.462 149.121V159.788L243.097 149.121Z" fill="#09A33F" fill-opacity="0.5"/>
</svg>
