<svg width="383" height="243" viewBox="0 0 383 243" fill="none" xmlns="http://www.w3.org/2000/svg">
<path d="M178.235 23.1763V13.5439L169.887 9.69088V3.26925C174.382 1.55682 184.785 -0.840584 190.436 3.26925L191.72 9.69088L183.372 13.5439V18.6812C184.656 18.6812 187.354 19.3233 187.867 21.892L195.573 16.1125C196.707 16.3961 198.243 17.0052 199.426 17.951M199.426 17.951C200.923 19.147 201.858 20.8813 200.711 23.1763C198.656 27.2861 212.698 21.892 219.975 18.6812V13.5439C219.547 12.2595 217.664 10.0762 213.554 11.6174L199.426 17.951Z" stroke="#BDBDBD" stroke-width="2"/>
<path d="M367.032 42.1411V32.5087L358.684 28.6557V22.2341C363.179 20.5217 373.582 18.1243 379.233 22.2341L380.517 28.6557L372.169 32.5087V37.646C373.453 37.646 376.15 38.2882 376.664 40.8568L384.37 35.0774C385.504 35.3609 387.039 35.9701 388.223 36.9159M388.223 36.9159C389.72 38.1118 390.655 39.8461 389.507 42.1411C387.452 46.251 401.494 40.8568 408.772 37.646V32.5087C408.344 31.2244 406.46 29.0411 402.351 30.5822L388.223 36.9159Z" stroke="#BDBDBD" stroke-width="2"/>
<path d="M51.7334 56.5683L207.137 72.6223L226.402 62.3477C258.767 55.8794 294.471 65.5585 309.883 79.0439V84.1812L487.119 102.804V56.5683L47.2383 14.1855L51.7334 56.5683Z" fill="#EAFBF0"/>
<path d="M1 75.1919L51.7308 57.8535L203.281 74.2287M1 75.1919L181.448 96.3832M1 75.1919V89.9616L87.0497 113.997M181.448 96.3832V85.4665M181.448 96.3832C221.904 111.153 291.899 108.584 310.522 96.3832V80.9714M181.448 85.4665C209.703 93.1724 275.075 103.062 310.522 80.9714M181.448 85.4665L203.281 74.2287M310.522 80.9714C285.863 57.3398 243.309 59.1378 225.115 62.9908L203.281 74.2287M310.522 80.9714L486.475 102.805M486.475 102.805V119.501L460.788 144.545M486.475 102.805L460.788 129.776M460.788 144.545V129.776M460.788 144.545L334.924 150.325M460.788 129.776L327.861 113.997M275.203 115.006L282.267 108.584L327.861 113.997M275.203 115.006L324.008 119.501M275.203 115.006L219.977 109.54M87.0497 96.3832L95.3978 89.9616L193.649 101.521M87.0497 96.3832V113.997M87.0497 96.3832L149.339 102.548M327.861 113.997L334.924 119.501V150.325M327.861 113.997L324.008 119.501M334.924 150.325L324.008 154.178M324.008 154.178V119.501M324.008 154.178V240.87L87.0497 206.835V128.491M324.008 154.178L219.977 142.901M87.0497 113.997V128.491M87.0497 128.491L149.339 135.244M149.339 135.244V102.548M149.339 135.244L219.977 142.901M149.339 102.548L219.977 109.54M219.977 142.901V109.54M234.105 67.4859L210.987 80.9714L236.031 82.2557L260.434 69.4124L234.105 67.4859Z" stroke="#BDBDBD" stroke-width="2"/>
<mask id="path-5-inside-1_486_16048" fill="white">
<ellipse cx="180.806" cy="5.19602" rx="7.06378" ry="1.92649"/>
</mask>
<ellipse cx="180.806" cy="5.19602" rx="7.06378" ry="1.92649" fill="#EAFBF0"/>
<path d="M185.87 5.19602C185.87 4.40286 186.434 4.13401 186.231 4.26502C186.117 4.3383 185.82 4.47992 185.275 4.62872C184.212 4.91852 182.631 5.1225 180.806 5.1225V9.1225C182.882 9.1225 184.833 8.89523 186.327 8.48778C187.06 8.28796 187.797 8.01445 188.398 7.62676C188.91 7.29681 189.87 6.52116 189.87 5.19602H185.87ZM180.806 5.1225C178.981 5.1225 177.4 4.91852 176.337 4.62872C175.792 4.47992 175.495 4.3383 175.381 4.26502C175.178 4.13401 175.742 4.40286 175.742 5.19602H171.742C171.742 6.52116 172.702 7.29681 173.213 7.62676C173.815 8.01445 174.552 8.28796 175.285 8.48778C176.779 8.89523 178.73 9.1225 180.806 9.1225V5.1225ZM175.742 5.19602C175.742 5.98918 175.178 6.25802 175.381 6.12701C175.495 6.05373 175.792 5.91212 176.337 5.76331C177.4 5.47352 178.981 5.26953 180.806 5.26953V1.26953C178.73 1.26953 176.779 1.4968 175.285 1.90426C174.552 2.10408 173.815 2.37759 173.213 2.76527C172.702 3.09523 171.742 3.87087 171.742 5.19602H175.742ZM180.806 5.26953C182.631 5.26953 184.212 5.47352 185.275 5.76331C185.82 5.91212 186.117 6.05373 186.231 6.12701C186.434 6.25802 185.87 5.98918 185.87 5.19602H189.87C189.87 3.87087 188.91 3.09523 188.398 2.76527C187.797 2.37759 187.06 2.10408 186.327 1.90426C184.833 1.4968 182.882 1.26953 180.806 1.26953V5.26953Z" fill="#BDBDBD" mask="url(#path-5-inside-1_486_16048)"/>
<mask id="path-7-inside-2_486_16048" fill="white">
<ellipse cx="369.603" cy="24.1609" rx="7.06378" ry="1.92649"/>
</mask>
<ellipse cx="369.603" cy="24.1609" rx="7.06378" ry="1.92649" fill="#EAFBF0"/>
<path d="M374.667 24.1609C374.667 23.3677 375.231 23.0989 375.028 23.2299C374.914 23.3031 374.617 23.4448 374.071 23.5936C373.009 23.8834 371.428 24.0873 369.603 24.0873V28.0873C371.679 28.0873 373.63 27.8601 375.124 27.4526C375.857 27.2528 376.594 26.9793 377.195 26.5916C377.707 26.2617 378.667 25.486 378.667 24.1609H374.667ZM369.603 24.0873C367.777 24.0873 366.197 23.8834 365.134 23.5936C364.589 23.4448 364.292 23.3031 364.178 23.2299C363.975 23.0989 364.539 23.3677 364.539 24.1609H360.539C360.539 25.486 361.499 26.2617 362.01 26.5916C362.612 26.9793 363.349 27.2528 364.082 27.4526C365.576 27.8601 367.527 28.0873 369.603 28.0873V24.0873ZM364.539 24.1609C364.539 24.954 363.975 25.2229 364.178 25.0919C364.292 25.0186 364.589 24.877 365.134 24.7282C366.197 24.4384 367.777 24.2344 369.603 24.2344V20.2344C367.527 20.2344 365.576 20.4616 364.082 20.8691C363.349 21.0689 362.612 21.3424 362.01 21.7301C361.499 22.0601 360.539 22.8357 360.539 24.1609H364.539ZM369.603 24.2344C371.428 24.2344 373.009 24.4384 374.071 24.7282C374.617 24.877 374.914 25.0186 375.028 25.0919C375.231 25.2229 374.667 24.954 374.667 24.1609H378.667C378.667 22.8357 377.707 22.0601 377.195 21.7301C376.594 21.3424 375.857 21.0689 375.124 20.8691C373.63 20.4616 371.679 20.2344 369.603 20.2344V24.2344Z" fill="#BDBDBD" mask="url(#path-7-inside-2_486_16048)"/>
<circle cx="374.742" cy="132.344" r="2.21081" stroke="#BDBDBD" stroke-width="2"/>
<circle cx="35.6757" cy="89.9608" r="2.21081" stroke="#BDBDBD" stroke-width="2"/>
<circle cx="69.0741" cy="93.8143" r="2.21081" stroke="#BDBDBD" stroke-width="2"/>
<path d="M148.694 119.501H142.914V116.29C144.526 115.887 148.45 115.333 151.904 116.125M148.694 119.501C147.666 122.449 149.122 122.87 149.978 122.712M148.694 119.501L151.904 116.125M149.978 122.712V127.849H152.546L155.115 122.069V120.143M149.978 122.712L155.115 120.143M151.904 116.125C152.12 116.175 152.335 116.229 152.546 116.29L155.115 118.216V120.143" stroke="#BDBDBD" stroke-width="2"/>
<path d="M221.899 131.06L217.404 135.555C214.835 135.555 214.193 133.414 214.193 132.344L217.404 131.06M221.899 131.06L220.615 125.28M221.899 131.06H217.404M220.615 125.28L209.698 122.712M220.615 125.28L217.404 127.207M209.698 122.712L201.992 117.574V121.427L208.414 127.207M209.698 122.712L208.414 127.207M208.414 127.207H217.404M217.404 127.207V131.06" stroke="#BDBDBD" stroke-width="2"/>
<path d="M248.23 112.437L248.23 106.016" stroke="#BDBDBD" stroke-width="2"/>
<path d="M235.387 111.153L235.387 106.016" stroke="#BDBDBD" stroke-width="2"/>
</svg>
