<svg width="255" height="361" viewBox="0 0 255 361" fill="none" xmlns="http://www.w3.org/2000/svg">
<circle cx="136.165" cy="283.756" r="75.6965" fill="#EAFBF0"/>
<circle cx="137.436" cy="280.796" r="8.30348" stroke="#BDBDBD" stroke-width="2"/>
<rect x="126.598" y="185.378" width="21.6816" height="106.259" stroke="#BDBDBD" stroke-width="2"/>
<path d="M0 359.453H255" stroke="#BDBDBD" stroke-width="2"/>
<rect x="53.8594" y="185.378" width="94.4179" height="19.99" stroke="#BDBDBD" stroke-width="2"/>
<circle cx="66.3896" cy="195.373" r="9.99502" stroke="#BDBDBD" stroke-width="2"/>
<circle cx="66.3949" cy="195.372" r="4.07463" stroke="#BDBDBD" stroke-width="2"/>
<rect x="69.9297" y="133.786" width="24.2189" height="49.592" stroke="#BDBDBD" stroke-width="2"/>
<circle cx="84.5794" cy="142.512" r="2.80597" stroke="#BDBDBD" stroke-width="2"/>
<circle cx="84.5794" cy="172.96" r="2.80597" stroke="#BDBDBD" stroke-width="2"/>
<rect x="73.5791" y="133.209" width="0.845771" height="50.7463" stroke="#BDBDBD" stroke-width="0.845771"/>
<path d="M94.7235 356.493H84.5742L94.7235 346.343M94.7235 345.921H84.5742L94.7235 335.771M94.7235 335.348H84.5742L94.7235 325.199M94.7235 324.776H84.5742L94.7235 314.627M94.7235 314.204H84.5742L94.7235 304.055M94.7235 303.632H84.5742L94.7235 293.483M94.7235 293.06H84.5742L94.7235 282.911M94.7235 282.488H84.5742L94.7235 272.339M94.7235 271.916H84.5742L94.7235 261.766M94.7235 261.343H84.5742L94.7235 251.194M94.7235 250.771H84.5742L94.7235 240.622M94.7235 240.199H84.5742L94.7235 230.05M94.7235 229.627H84.5742L94.7235 219.478M94.7235 219.055H84.5742L94.7235 208.906M94.7235 208.483H84.5742L94.7235 198.334M94.7235 197.911H84.5742L94.7235 187.761M95.1464 187.761H84.9971L95.1464 176.766H84.9971L95.1464 165.771H84.9971L95.1464 154.776H84.9971L95.1464 143.781H84.9971L95.1464 132.786H84.9971L95.1464 121.791H84.9971L95.1464 110.796H84.9971L95.1464 99.8012H84.9971L95.1464 88.8062H84.9971L95.1464 77.8112H84.9971L95.1464 66.8161H84.9971L95.1464 55.8211H84.9971L95.1464 44.8261H84.9971L95.1464 33.8311" stroke="#BDBDBD" stroke-width="2"/>
<path d="M95.1523 0V184.378H110.376V0" stroke="#BDBDBD" stroke-width="2"/>
<path d="M108.68 0V184.378H141.665V0" stroke="#BDBDBD" stroke-width="2"/>
<path d="M80.7734 0V75.8109C80.7734 76.9155 81.6689 77.8109 82.7734 77.8109H129.52C130.624 77.8109 131.52 76.9155 131.52 75.8109V0" stroke="#BDBDBD" stroke-width="2"/>
<path d="M80.7734 0V38.9055H130.674V0" stroke="#BDBDBD" stroke-width="2"/>
<path d="M60.8944 271.07V305.324H53.2824V273.184L26.6406 246.965V150.547L71.8894 106.567L77.3869 113.756L35.5212 154.776V245.274L60.8944 271.07Z" stroke="#BDBDBD" stroke-width="2"/>
<rect x="50.8908" y="115.882" width="47.0547" height="22.6576" transform="rotate(-45 50.8908 115.882)" stroke="#BDBDBD" stroke-width="2"/>
</svg>
