<svg width="366" height="121" viewBox="0 0 366 121" fill="none" xmlns="http://www.w3.org/2000/svg">
<rect width="69.4214" height="6.20069" transform="matrix(-1 0 0 1 144.285 107.892)" fill="#BCDDC8"/>
<rect width="69.4214" height="6.20069" transform="matrix(-1 0 0 1 144.285 100.451)" fill="#BCDDC8"/>
<rect width="69.4214" height="6.20069" transform="matrix(-1 0 0 1 144.285 93.0101)" fill="#BCDDC8"/>
<rect width="69.4214" height="6.20069" transform="matrix(-1 0 0 1 144.285 83.0891)" fill="#BCDDC8"/>
<rect width="69.4214" height="6.20069" transform="matrix(-1 0 0 1 144.285 75.6483)" fill="#BCDDC8"/>
<rect width="69.4214" height="6.20069" transform="matrix(-1 0 0 1 144.285 68.2074)" fill="#BCDDC8"/>
<rect width="69.4214" height="6.20069" transform="matrix(-1 0 0 1 144.285 60.7666)" fill="#BCDDC8"/>
<rect width="69.4214" height="4.96055" transform="matrix(-1 0 0 1 144.285 115.333)" fill="#BCDDC8"/>
<rect width="8.16722" height="2.48027" transform="matrix(-1 0 0 1 138.84 116.573)" fill="#EAFBF0"/>
<rect width="8.16722" height="2.48027" transform="matrix(-1 0 0 1 89.8379 116.573)" fill="#EAFBF0"/>
<rect width="8.16722" height="2.48027" transform="matrix(-1 0 0 1 114.338 116.573)" fill="#EAFBF0"/>
<rect width="8.16722" height="2.48027" transform="matrix(-1 0 0 1 126.588 116.573)" fill="#EAFBF0"/>
<rect width="8.16722" height="2.48027" transform="matrix(-1 0 0 1 102.088 116.573)" fill="#EAFBF0"/>
<rect width="8.16722" height="4.96055" transform="matrix(-1 0 0 1 136.117 88.0496)" fill="#BCDDC8"/>
<rect width="8.16722" height="4.96055" transform="matrix(-1 0 0 1 89.8379 88.0496)" fill="#BCDDC8"/>
<rect width="69.4214" height="6.20069" transform="matrix(-1 0 0 1 144.285 47.1251)" fill="#BCDDC8"/>
<rect width="69.4214" height="6.20069" transform="matrix(-1 0 0 1 144.285 39.6843)" fill="#BCDDC8"/>
<rect width="69.4214" height="6.20069" transform="matrix(-1 0 0 1 144.285 32.2435)" fill="#BCDDC8"/>
<rect width="69.4214" height="6.20069" transform="matrix(-1 0 0 1 144.285 22.3225)" fill="#BCDDC8"/>
<rect width="69.4214" height="6.20069" transform="matrix(-1 0 0 1 144.285 14.8817)" fill="#BCDDC8"/>
<rect width="69.4214" height="6.20069" transform="matrix(-1 0 0 1 144.285 7.4408)" fill="#BCDDC8"/>
<rect width="69.4214" height="6.20069" transform="matrix(-1 0 0 1 144.285 0)" fill="#BCDDC8"/>
<rect width="69.4214" height="4.96055" transform="matrix(-1 0 0 1 144.285 54.566)" fill="#BCDDC8"/>
<rect width="8.16722" height="2.48027" transform="matrix(-1 0 0 1 138.84 55.8062)" fill="#EAFBF0"/>
<rect width="8.16722" height="2.48027" transform="matrix(-1 0 0 1 89.8379 55.8062)" fill="#EAFBF0"/>
<rect width="8.16722" height="2.48027" transform="matrix(-1 0 0 1 114.338 55.8062)" fill="#EAFBF0"/>
<rect width="8.16722" height="2.48027" transform="matrix(-1 0 0 1 126.588 55.8062)" fill="#EAFBF0"/>
<rect width="8.16722" height="2.48027" transform="matrix(-1 0 0 1 102.088 55.8062)" fill="#EAFBF0"/>
<rect width="8.16722" height="4.96055" transform="matrix(-1 0 0 1 136.117 27.283)" fill="#BCDDC8"/>
<rect width="8.16722" height="4.96055" transform="matrix(-1 0 0 1 89.8379 27.283)" fill="#BCDDC8"/>
<rect width="69.4214" height="6.20069" transform="matrix(-1 0 0 1 69.4219 107.892)" fill="#BCDDC8"/>
<rect width="69.4214" height="6.20069" transform="matrix(-1 0 0 1 69.4219 100.451)" fill="#BCDDC8"/>
<rect width="69.4214" height="6.20069" transform="matrix(-1 0 0 1 69.4219 93.0101)" fill="#BCDDC8"/>
<rect width="69.4214" height="6.20069" transform="matrix(-1 0 0 1 69.4219 83.0891)" fill="#BCDDC8"/>
<rect width="69.4214" height="6.20069" transform="matrix(-1 0 0 1 69.4219 75.6483)" fill="#BCDDC8"/>
<rect width="69.4214" height="6.20069" transform="matrix(-1 0 0 1 69.4219 68.2074)" fill="#BCDDC8"/>
<rect width="69.4214" height="6.20069" transform="matrix(-1 0 0 1 69.4219 60.7666)" fill="#BCDDC8"/>
<rect width="69.4214" height="4.96055" transform="matrix(-1 0 0 1 69.4219 115.333)" fill="#BCDDC8"/>
<rect width="8.16722" height="2.48027" transform="matrix(-1 0 0 1 63.9766 116.573)" fill="#EAFBF0"/>
<rect width="8.16722" height="2.48027" transform="matrix(-1 0 0 1 14.9746 116.573)" fill="#EAFBF0"/>
<rect width="8.16722" height="2.48027" transform="matrix(-1 0 0 1 39.4746 116.573)" fill="#EAFBF0"/>
<rect width="8.16722" height="2.48027" transform="matrix(-1 0 0 1 51.7246 116.573)" fill="#EAFBF0"/>
<rect width="8.16722" height="2.48027" transform="matrix(-1 0 0 1 27.2246 116.573)" fill="#EAFBF0"/>
<rect width="8.16722" height="4.96055" transform="matrix(-1 0 0 1 61.2539 88.0496)" fill="#BCDDC8"/>
<rect width="8.16722" height="4.96055" transform="matrix(-1 0 0 1 14.9746 88.0496)" fill="#BCDDC8"/>
<rect x="-0.5" y="0.5" width="118.786" height="15.1218" transform="matrix(-1 0 0 1 278.045 14.8815)" stroke="#BCDDC8"/>
<rect x="-0.5" y="0.5" width="118.786" height="15.1218" transform="matrix(-1 0 0 1 278.045 31.0033)" stroke="#BCDDC8"/>
<rect x="-0.5" y="0.5" width="118.786" height="15.1218" transform="matrix(-1 0 0 1 278.045 47.1251)" stroke="#BCDDC8"/>
<rect width="29.6225" height="48.3653" transform="matrix(-1 0 0 1 158.805 14.8815)" fill="#EAFBF0"/>
<rect width="6.80602" height="14.8816" transform="matrix(-1 0 0 1 183.762 14.8815)" fill="#BCDDC8"/>
<rect width="6.80602" height="14.8816" transform="matrix(-1 0 0 1 254.543 14.8815)" fill="#BCDDC8"/>
<rect width="6.80602" height="14.8816" transform="matrix(-1 0 0 1 183.762 32.2435)" fill="#BCDDC8"/>
<rect width="6.80602" height="14.8816" transform="matrix(-1 0 0 1 254.543 32.2435)" fill="#BCDDC8"/>
<rect width="6.80602" height="14.8816" transform="matrix(-1 0 0 1 183.762 48.3654)" fill="#BCDDC8"/>
<rect width="6.80602" height="14.8816" transform="matrix(-1 0 0 1 254.543 48.3654)" fill="#BCDDC8"/>
<rect width="9.98216" height="16.1218" rx="1" transform="matrix(-1 0 0 1 159.26 47.125)" fill="#BCDDC8"/>
<rect width="9.98216" height="16.1218" rx="1" transform="matrix(-1 0 0 1 149.277 47.125)" fill="#BCDDC8"/>
<rect width="9.98216" height="16.1218" rx="1" transform="matrix(-1 0 0 1 139.295 47.125)" fill="#BCDDC8"/>
<rect width="9.98216" height="16.1218" rx="1" transform="matrix(-1 0 0 1 139.295 31.0033)" fill="#BCDDC8"/>
<rect width="9.98216" height="16.1218" rx="1" transform="matrix(-1 0 0 1 139.295 14.8815)" fill="#BCDDC8"/>
<rect width="9.98216" height="16.1218" rx="1" transform="matrix(-1 0 0 1 149.277 31.0033)" fill="#BCDDC8"/>
<rect width="9.98216" height="16.1218" rx="1" transform="matrix(-1 0 0 1 149.277 14.8815)" fill="#BCDDC8"/>
<rect width="9.98216" height="16.1218" rx="1" transform="matrix(-1 0 0 1 159.26 31.0033)" fill="#BCDDC8"/>
<rect width="9.98216" height="16.1218" rx="1" transform="matrix(-1 0 0 1 159.26 14.8815)" fill="#BCDDC8"/>
<path d="M149.571 22.9425C149.571 24.7863 150.041 26.4438 150.788 27.6324C151.538 28.8243 152.541 29.5132 153.609 29.5132C154.676 29.5132 155.68 28.8243 156.429 27.6324C157.176 26.4438 157.646 24.7863 157.646 22.9425C157.646 21.0986 157.176 19.4411 156.429 18.2525C155.68 17.0606 154.676 16.3717 153.609 16.3717C152.541 16.3717 151.538 17.0606 150.788 18.2525C150.041 19.4411 149.571 21.0986 149.571 22.9425Z" fill="#EAFBF0" stroke="#BCDDC8" stroke-width="0.5"/>
<path d="M149.571 39.0643C149.571 40.9082 150.041 42.5656 150.788 43.7542C151.538 44.9462 152.541 45.635 153.609 45.635C154.676 45.635 155.68 44.9462 156.429 43.7542C157.176 42.5656 157.646 40.9082 157.646 39.0643C157.646 37.2204 157.176 35.5629 156.429 34.3743C155.68 33.1824 154.676 32.4935 153.609 32.4935C152.541 32.4935 151.538 33.1824 150.788 34.3743C150.041 35.5629 149.571 37.2204 149.571 39.0643Z" fill="#EAFBF0" stroke="#BCDDC8" stroke-width="0.5"/>
<path d="M149.571 55.1859C149.571 57.0297 150.041 58.6872 150.788 59.8758C151.538 61.0677 152.541 61.7566 153.609 61.7566C154.676 61.7566 155.68 61.0677 156.429 59.8758C157.176 58.6872 157.646 57.0297 157.646 55.1859C157.646 53.342 157.176 51.6845 156.429 50.4959C155.68 49.304 154.676 48.6151 153.609 48.6151C152.541 48.6151 151.538 49.304 150.788 50.4959C150.041 51.6845 149.571 53.342 149.571 55.1859Z" fill="#EAFBF0" stroke="#BCDDC8" stroke-width="0.5"/>
<path d="M139.563 22.9425C139.563 24.7863 140.033 26.4438 140.781 27.6324C141.53 28.8243 142.533 29.5132 143.601 29.5132C144.668 29.5132 145.672 28.8243 146.421 27.6324C147.168 26.4438 147.639 24.7863 147.639 22.9425C147.639 21.0986 147.168 19.4411 146.421 18.2525C145.672 17.0606 144.668 16.3717 143.601 16.3717C142.533 16.3717 141.53 17.0606 140.781 18.2525C140.033 19.4411 139.563 21.0986 139.563 22.9425Z" fill="#EAFBF0" stroke="#BCDDC8" stroke-width="0.5"/>
<path d="M139.563 39.0643C139.563 40.9082 140.033 42.5656 140.781 43.7542C141.53 44.9462 142.533 45.635 143.601 45.635C144.668 45.635 145.672 44.9462 146.421 43.7542C147.168 42.5656 147.639 40.9082 147.639 39.0643C147.639 37.2204 147.168 35.5629 146.421 34.3743C145.672 33.1824 144.668 32.4935 143.601 32.4935C142.533 32.4935 141.53 33.1824 140.781 34.3743C140.033 35.5629 139.563 37.2204 139.563 39.0643Z" fill="#EAFBF0" stroke="#BCDDC8" stroke-width="0.5"/>
<path d="M139.563 55.1859C139.563 57.0297 140.033 58.6872 140.781 59.8758C141.53 61.0677 142.533 61.7566 143.601 61.7566C144.668 61.7566 145.672 61.0677 146.421 59.8758C147.168 58.6872 147.639 57.0297 147.639 55.1859C147.639 53.342 147.168 51.6845 146.421 50.4959C145.672 49.304 144.668 48.6151 143.601 48.6151C142.533 48.6151 141.53 49.304 140.781 50.4959C140.033 51.6845 139.563 53.342 139.563 55.1859Z" fill="#EAFBF0" stroke="#BCDDC8" stroke-width="0.5"/>
<path d="M129.561 22.9425C129.561 24.7863 130.031 26.4438 130.779 27.6324C131.528 28.8243 132.531 29.5132 133.599 29.5132C134.666 29.5132 135.67 28.8243 136.419 27.6324C137.166 26.4438 137.637 24.7863 137.637 22.9425C137.637 21.0986 137.166 19.4411 136.419 18.2525C135.67 17.0606 134.666 16.3717 133.599 16.3717C132.531 16.3717 131.528 17.0606 130.779 18.2525C130.031 19.4411 129.561 21.0986 129.561 22.9425Z" fill="#EAFBF0" stroke="#BCDDC8" stroke-width="0.5"/>
<path d="M129.561 39.0643C129.561 40.9082 130.031 42.5656 130.779 43.7542C131.528 44.9462 132.531 45.635 133.599 45.635C134.666 45.635 135.67 44.9462 136.419 43.7542C137.166 42.5656 137.637 40.9082 137.637 39.0643C137.637 37.2204 137.166 35.5629 136.419 34.3743C135.67 33.1824 134.666 32.4935 133.599 32.4935C132.531 32.4935 131.528 33.1824 130.779 34.3743C130.031 35.5629 129.561 37.2204 129.561 39.0643Z" fill="#EAFBF0" stroke="#BCDDC8" stroke-width="0.5"/>
<path d="M129.561 55.1859C129.561 57.0297 130.031 58.6872 130.779 59.8758C131.528 61.0677 132.531 61.7566 133.599 61.7566C134.666 61.7566 135.67 61.0677 136.419 59.8758C137.166 58.6872 137.637 57.0297 137.637 55.1859C137.637 53.342 137.166 51.6845 136.419 50.4959C135.67 49.304 134.666 48.6151 133.599 48.6151C132.531 48.6151 131.528 49.304 130.779 50.4959C130.031 51.6845 129.561 53.342 129.561 55.1859Z" fill="#EAFBF0" stroke="#BCDDC8" stroke-width="0.5"/>
<line y1="-0.5" x2="63.9766" y2="-0.5" transform="matrix(-1 0 0 1 277.686 18.6021)" stroke="#BCDDC8"/>
<line y1="-0.5" x2="34.0301" y2="-0.5" transform="matrix(-1 0 0 1 277.686 35.9639)" stroke="#BCDDC8"/>
<line y1="-0.5" x2="17.6957" y2="-0.5" transform="matrix(-1 0 0 1 277.686 52.0857)" stroke="#BCDDC8"/>
<line y1="-0.5" x2="49.0033" y2="-0.5" transform="matrix(-1 0 0 1 277.686 22.3223)" stroke="#BCDDC8"/>
<line y1="-0.5" x2="25.8629" y2="-0.5" transform="matrix(-1 0 0 1 277.686 39.6843)" stroke="#BCDDC8"/>
<line y1="-0.5" x2="13.612" y2="-0.5" transform="matrix(-1 0 0 1 277.686 55.806)" stroke="#BCDDC8"/>
<line y1="-0.5" x2="39.4749" y2="-0.5" transform="matrix(-1 0 0 1 277.686 26.0428)" stroke="#BCDDC8"/>
<line y1="-0.5" x2="20.4181" y2="-0.5" transform="matrix(-1 0 0 1 277.686 43.4047)" stroke="#BCDDC8"/>
<line y1="-0.5" x2="9.52843" y2="-0.5" transform="matrix(-1 0 0 1 277.686 59.5265)" stroke="#BCDDC8"/>
<rect x="-0.5" y="0.5" width="118.786" height="15.1218" transform="matrix(-1 0 0 1 278.045 64.4873)" stroke="#BCDDC8"/>
<rect x="-0.5" y="0.5" width="118.786" height="15.1218" transform="matrix(-1 0 0 1 278.045 80.6091)" stroke="#BCDDC8"/>
<rect x="-0.5" y="0.5" width="118.786" height="15.1218" transform="matrix(-1 0 0 1 278.045 96.7308)" stroke="#BCDDC8"/>
<rect width="29.6225" height="48.3653" transform="matrix(-1 0 0 1 158.805 64.4873)" fill="#EAFBF0"/>
<rect width="6.80602" height="14.8816" transform="matrix(-1 0 0 1 183.762 64.4873)" fill="#BCDDC8"/>
<rect width="6.80602" height="14.8816" transform="matrix(-1 0 0 1 254.543 64.4873)" fill="#BCDDC8"/>
<rect width="6.80602" height="14.8816" transform="matrix(-1 0 0 1 183.762 81.8491)" fill="#BCDDC8"/>
<rect width="6.80602" height="14.8816" transform="matrix(-1 0 0 1 254.543 81.8491)" fill="#BCDDC8"/>
<rect width="6.80602" height="14.8816" transform="matrix(-1 0 0 1 183.762 97.9709)" fill="#BCDDC8"/>
<rect width="6.80602" height="14.8816" transform="matrix(-1 0 0 1 254.543 97.9709)" fill="#BCDDC8"/>
<rect width="9.98216" height="16.1218" rx="1" transform="matrix(-1 0 0 1 159.26 96.7308)" fill="#BCDDC8"/>
<rect width="9.98216" height="16.1218" rx="1" transform="matrix(-1 0 0 1 149.277 96.7308)" fill="#BCDDC8"/>
<rect width="9.98216" height="16.1218" rx="1" transform="matrix(-1 0 0 1 139.295 96.7308)" fill="#BCDDC8"/>
<rect width="9.98216" height="16.1218" rx="1" transform="matrix(-1 0 0 1 139.295 80.6091)" fill="#BCDDC8"/>
<rect width="9.98216" height="16.1218" rx="1" transform="matrix(-1 0 0 1 139.295 64.4873)" fill="#BCDDC8"/>
<rect width="9.98216" height="16.1218" rx="1" transform="matrix(-1 0 0 1 149.277 80.6091)" fill="#BCDDC8"/>
<rect width="9.98216" height="16.1218" rx="1" transform="matrix(-1 0 0 1 149.277 64.4873)" fill="#BCDDC8"/>
<rect width="9.98216" height="16.1218" rx="1" transform="matrix(-1 0 0 1 159.26 80.6091)" fill="#BCDDC8"/>
<rect width="9.98216" height="16.1218" rx="1" transform="matrix(-1 0 0 1 159.26 64.4873)" fill="#BCDDC8"/>
<path d="M149.571 72.5483C149.571 74.3922 150.041 76.0497 150.788 77.2382C151.538 78.4302 152.541 79.119 153.609 79.119C154.676 79.119 155.68 78.4302 156.429 77.2382C157.176 76.0497 157.646 74.3922 157.646 72.5483C157.646 70.7044 157.176 69.0469 156.429 67.8583C155.68 66.6664 154.676 65.9775 153.609 65.9775C152.541 65.9775 151.538 66.6664 150.788 67.8583C150.041 69.0469 149.571 70.7044 149.571 72.5483Z" fill="#EAFBF0" stroke="#BCDDC8" stroke-width="0.5"/>
<path d="M149.571 88.6701C149.571 90.514 150.041 92.1715 150.788 93.3601C151.538 94.552 152.541 95.2409 153.609 95.2409C154.676 95.2409 155.68 94.552 156.429 93.3601C157.176 92.1715 157.646 90.514 157.646 88.6701C157.646 86.8262 157.176 85.1688 156.429 83.9802C155.68 82.7882 154.676 82.0994 153.609 82.0994C152.541 82.0994 151.538 82.7882 150.788 83.9802C150.041 85.1688 149.571 86.8262 149.571 88.6701Z" fill="#EAFBF0" stroke="#BCDDC8" stroke-width="0.5"/>
<path d="M149.571 104.792C149.571 106.636 150.041 108.293 150.788 109.482C151.538 110.674 152.541 111.363 153.609 111.363C154.676 111.363 155.68 110.674 156.429 109.482C157.176 108.293 157.646 106.636 157.646 104.792C157.646 102.948 157.176 101.29 156.429 100.102C155.68 98.9099 154.676 98.2211 153.609 98.2211C152.541 98.2211 151.538 98.9099 150.788 100.102C150.041 101.29 149.571 102.948 149.571 104.792Z" fill="#EAFBF0" stroke="#BCDDC8" stroke-width="0.5"/>
<path d="M139.563 72.5483C139.563 74.3922 140.033 76.0497 140.781 77.2382C141.53 78.4302 142.533 79.119 143.601 79.119C144.668 79.119 145.672 78.4302 146.421 77.2382C147.168 76.0497 147.639 74.3922 147.639 72.5483C147.639 70.7044 147.168 69.0469 146.421 67.8583C145.672 66.6664 144.668 65.9775 143.601 65.9775C142.533 65.9775 141.53 66.6664 140.781 67.8583C140.033 69.0469 139.563 70.7044 139.563 72.5483Z" fill="#EAFBF0" stroke="#BCDDC8" stroke-width="0.5"/>
<path d="M139.563 88.6701C139.563 90.514 140.033 92.1715 140.781 93.3601C141.53 94.552 142.533 95.2409 143.601 95.2409C144.668 95.2409 145.672 94.552 146.421 93.3601C147.168 92.1715 147.639 90.514 147.639 88.6701C147.639 86.8262 147.168 85.1688 146.421 83.9802C145.672 82.7882 144.668 82.0994 143.601 82.0994C142.533 82.0994 141.53 82.7882 140.781 83.9802C140.033 85.1688 139.563 86.8262 139.563 88.6701Z" fill="#EAFBF0" stroke="#BCDDC8" stroke-width="0.5"/>
<path d="M139.563 104.792C139.563 106.636 140.033 108.293 140.781 109.482C141.53 110.674 142.533 111.363 143.601 111.363C144.668 111.363 145.672 110.674 146.421 109.482C147.168 108.293 147.639 106.636 147.639 104.792C147.639 102.948 147.168 101.29 146.421 100.102C145.672 98.9099 144.668 98.2211 143.601 98.2211C142.533 98.2211 141.53 98.9099 140.781 100.102C140.033 101.29 139.563 102.948 139.563 104.792Z" fill="#EAFBF0" stroke="#BCDDC8" stroke-width="0.5"/>
<path d="M129.561 72.5483C129.561 74.3922 130.031 76.0497 130.779 77.2382C131.528 78.4302 132.531 79.119 133.599 79.119C134.666 79.119 135.67 78.4302 136.419 77.2382C137.166 76.0497 137.637 74.3922 137.637 72.5483C137.637 70.7044 137.166 69.0469 136.419 67.8583C135.67 66.6664 134.666 65.9775 133.599 65.9775C132.531 65.9775 131.528 66.6664 130.779 67.8583C130.031 69.0469 129.561 70.7044 129.561 72.5483Z" fill="#EAFBF0" stroke="#BCDDC8" stroke-width="0.5"/>
<path d="M129.561 88.6701C129.561 90.514 130.031 92.1715 130.779 93.3601C131.528 94.552 132.531 95.2409 133.599 95.2409C134.666 95.2409 135.67 94.552 136.419 93.3601C137.166 92.1715 137.637 90.514 137.637 88.6701C137.637 86.8262 137.166 85.1688 136.419 83.9802C135.67 82.7882 134.666 82.0994 133.599 82.0994C132.531 82.0994 131.528 82.7882 130.779 83.9802C130.031 85.1688 129.561 86.8262 129.561 88.6701Z" fill="#EAFBF0" stroke="#BCDDC8" stroke-width="0.5"/>
<path d="M129.561 104.792C129.561 106.636 130.031 108.293 130.779 109.482C131.528 110.674 132.531 111.363 133.599 111.363C134.666 111.363 135.67 110.674 136.419 109.482C137.166 108.293 137.637 106.636 137.637 104.792C137.637 102.948 137.166 101.29 136.419 100.102C135.67 98.9099 134.666 98.2211 133.599 98.2211C132.531 98.2211 131.528 98.9099 130.779 100.102C130.031 101.29 129.561 102.948 129.561 104.792Z" fill="#EAFBF0" stroke="#BCDDC8" stroke-width="0.5"/>
<line y1="-0.5" x2="63.9766" y2="-0.5" transform="matrix(-1 0 0 1 277.686 68.2076)" stroke="#BCDDC8"/>
<line y1="-0.5" x2="34.0301" y2="-0.5" transform="matrix(-1 0 0 1 277.686 85.5697)" stroke="#BCDDC8"/>
<line y1="-0.5" x2="17.6957" y2="-0.5" transform="matrix(-1 0 0 1 277.686 101.692)" stroke="#BCDDC8"/>
<line y1="-0.5" x2="49.0033" y2="-0.5" transform="matrix(-1 0 0 1 277.686 71.9281)" stroke="#BCDDC8"/>
<line y1="-0.5" x2="25.8629" y2="-0.5" transform="matrix(-1 0 0 1 277.686 89.2899)" stroke="#BCDDC8"/>
<line y1="-0.5" x2="13.612" y2="-0.5" transform="matrix(-1 0 0 1 277.686 105.412)" stroke="#BCDDC8"/>
<line y1="-0.5" x2="39.4749" y2="-0.5" transform="matrix(-1 0 0 1 277.686 75.6484)" stroke="#BCDDC8"/>
<line y1="-0.5" x2="20.4181" y2="-0.5" transform="matrix(-1 0 0 1 277.686 93.0105)" stroke="#BCDDC8"/>
<line y1="-0.5" x2="9.52843" y2="-0.5" transform="matrix(-1 0 0 1 277.686 109.132)" stroke="#BCDDC8"/>
<rect width="107.535" height="32.2436" transform="matrix(-1 0 0 1 366.164 88.0497)" fill="#BCDDC8"/>
<rect width="99.3679" height="32.2436" transform="matrix(-1 0 0 1 366.164 60.7667)" fill="#BCDDC8"/>
<rect width="68.0602" height="17.3619" transform="matrix(-1 0 0 1 366.164 43.4049)" fill="#BCDDC8"/>
<rect width="62.6154" height="17.3619" transform="matrix(-1 0 0 1 366.164 28.5232)" fill="#BCDDC8"/>
<rect width="55.8094" height="17.3619" transform="matrix(-1 0 0 1 366.164 14.8817)" fill="#BCDDC8"/>
<rect width="49.0033" height="17.3619" transform="matrix(-1 0 0 1 366.164 0)" fill="#BCDDC8"/>
<ellipse cx="7.25975" cy="16.1218" rx="7.25975" ry="16.1218" transform="matrix(-1 0 0 1 295.385 88.0497)" fill="#BCDDC8"/>
<ellipse cx="5.58443" cy="12.4014" rx="5.58443" ry="12.4014" transform="matrix(-1 0 0 1 293.707 91.7703)" fill="#EAFBF0"/>
<ellipse cx="7.25975" cy="16.1218" rx="7.25975" ry="16.1218" transform="matrix(-1 0 0 1 280.867 88.0497)" fill="#BCDDC8"/>
<ellipse cx="5.58443" cy="12.4014" rx="5.58443" ry="12.4014" transform="matrix(-1 0 0 1 279.189 91.7703)" fill="#EAFBF0"/>
<ellipse cx="7.25975" cy="16.1218" rx="7.25975" ry="16.1218" transform="matrix(-1 0 0 1 266.344 88.0497)" fill="#BCDDC8"/>
<ellipse cx="5.58443" cy="12.4014" rx="5.58443" ry="12.4014" transform="matrix(-1 0 0 1 264.67 91.7703)" fill="#EAFBF0"/>
<ellipse cx="7.25975" cy="16.1218" rx="7.25975" ry="16.1218" transform="matrix(-1 0 0 1 288.127 60.7667)" fill="#BCDDC8"/>
<ellipse cx="5.58443" cy="12.4014" rx="5.58443" ry="12.4014" transform="matrix(-1 0 0 1 286.449 64.4871)" fill="#EAFBF0"/>
<ellipse cx="7.25975" cy="16.1218" rx="7.25975" ry="16.1218" transform="matrix(-1 0 0 1 273.605 60.7667)" fill="#BCDDC8"/>
<ellipse cx="5.58443" cy="12.4014" rx="5.58443" ry="12.4014" transform="matrix(-1 0 0 1 271.932 64.4871)" fill="#EAFBF0"/>
<path d="M276.897 76.8885C276.897 79.5741 277.388 81.9814 278.161 83.6985C278.956 85.4624 279.95 86.3096 280.864 86.3096C281.779 86.3096 282.773 85.4624 283.568 83.6985C284.341 81.9814 284.832 79.5741 284.832 76.8885C284.832 74.2029 284.341 71.7956 283.568 70.0785C282.773 68.3146 281.779 67.4674 280.864 67.4674C279.95 67.4674 278.956 68.3146 278.161 70.0785C277.388 71.7956 276.897 74.2029 276.897 76.8885Z" stroke="#BCDDC8"/>
<path d="M262.377 76.8885C262.377 79.5741 262.869 81.9814 263.642 83.6985C264.436 85.4624 265.43 86.3096 266.345 86.3096C267.26 86.3096 268.254 85.4624 269.048 83.6985C269.821 81.9814 270.312 79.5741 270.312 76.8885C270.312 74.2029 269.821 71.7956 269.048 70.0785C268.254 68.3146 267.26 67.4674 266.345 67.4674C265.43 67.4674 264.436 68.3146 263.642 70.0785C262.869 71.7956 262.377 74.2029 262.377 76.8885Z" stroke="#BCDDC8"/>
<path d="M255.12 104.171C255.12 106.857 255.611 109.264 256.384 110.981C257.178 112.745 258.173 113.593 259.087 113.593C260.002 113.593 260.996 112.745 261.79 110.981C262.563 109.264 263.055 106.857 263.055 104.171C263.055 101.486 262.563 99.0786 261.79 97.3615C260.996 95.5976 260.002 94.7504 259.087 94.7504C258.173 94.7504 257.178 95.5976 256.384 97.3615C255.611 99.0786 255.12 101.486 255.12 104.171Z" stroke="#BCDDC8"/>
<path d="M269.639 104.171C269.639 106.857 270.13 109.264 270.904 110.981C271.698 112.745 272.692 113.593 273.607 113.593C274.521 113.593 275.515 112.745 276.31 110.981C277.083 109.264 277.574 106.857 277.574 104.171C277.574 101.486 277.083 99.0786 276.31 97.3615C275.515 95.5976 274.521 94.7504 273.607 94.7504C272.692 94.7504 271.698 95.5976 270.904 97.3615C270.13 99.0786 269.639 101.486 269.639 104.171Z" stroke="#BCDDC8"/>
<path d="M284.157 104.171C284.157 106.857 284.648 109.264 285.421 110.981C286.215 112.745 287.21 113.593 288.124 113.593C289.039 113.593 290.033 112.745 290.827 110.981C291.601 109.264 292.092 106.857 292.092 104.171C292.092 101.486 291.601 99.0786 290.827 97.3615C290.033 95.5976 289.039 94.7504 288.124 94.7504C287.21 94.7504 286.215 95.5976 285.421 97.3615C284.648 99.0786 284.157 101.486 284.157 104.171Z" stroke="#BCDDC8"/>
<path d="M278.574 76.8886C278.574 78.5468 278.877 80.024 279.348 81.0678C279.839 82.1584 280.414 82.5892 280.866 82.5892C281.318 82.5892 281.893 82.1584 282.384 81.0678C282.855 80.024 283.158 78.5468 283.158 76.8886C283.158 75.2303 282.855 73.7531 282.384 72.7093C281.893 71.6187 281.318 71.1879 280.866 71.1879C280.414 71.1879 279.839 71.6187 279.348 72.7093C278.877 73.7531 278.574 75.2303 278.574 76.8886Z" stroke="#BCDDC8"/>
<path d="M264.054 76.8886C264.054 78.5468 264.358 80.024 264.828 81.0678C265.319 82.1584 265.895 82.5892 266.346 82.5892C266.798 82.5892 267.374 82.1584 267.865 81.0678C268.335 80.024 268.639 78.5468 268.639 76.8886C268.639 75.2303 268.335 73.7531 267.865 72.7093C267.374 71.6187 266.798 71.1879 266.346 71.1879C265.895 71.1879 265.319 71.6187 264.828 72.7093C264.358 73.7531 264.054 75.2303 264.054 76.8886Z" stroke="#BCDDC8"/>
<path d="M256.794 104.172C256.794 105.83 257.098 107.307 257.568 108.351C258.059 109.442 258.635 109.872 259.087 109.872C259.539 109.872 260.114 109.442 260.605 108.351C261.075 107.307 261.379 105.83 261.379 104.172C261.379 102.513 261.075 101.036 260.605 99.9924C260.114 98.9017 259.539 98.4709 259.087 98.4709C258.635 98.4709 258.059 98.9017 257.568 99.9924C257.098 101.036 256.794 102.513 256.794 104.172Z" stroke="#BCDDC8"/>
<path d="M271.312 104.172C271.312 105.83 271.616 107.307 272.086 108.351C272.577 109.442 273.152 109.872 273.604 109.872C274.056 109.872 274.632 109.442 275.123 108.351C275.593 107.307 275.896 105.83 275.896 104.172C275.896 102.513 275.593 101.036 275.123 99.9924C274.632 98.9017 274.056 98.4709 273.604 98.4709C273.152 98.4709 272.577 98.9017 272.086 99.9924C271.616 101.036 271.312 102.513 271.312 104.172Z" stroke="#BCDDC8"/>
<path d="M285.832 104.172C285.832 105.83 286.135 107.307 286.605 108.351C287.096 109.442 287.672 109.872 288.124 109.872C288.576 109.872 289.151 109.442 289.642 108.351C290.112 107.307 290.416 105.83 290.416 104.172C290.416 102.513 290.112 101.036 289.642 99.9924C289.151 98.9017 288.576 98.4709 288.124 98.4709C287.672 98.4709 287.096 98.9017 286.605 99.9924C286.135 101.036 285.832 102.513 285.832 104.172Z" stroke="#BCDDC8"/>
<ellipse cx="5.50487" cy="8.91682" rx="5.50487" ry="8.91682" transform="matrix(-1 0 0 1 325.691 43.6129)" fill="#BCDDC8"/>
<ellipse cx="4.23451" cy="6.85909" rx="4.23451" ry="6.85909" transform="matrix(-1 0 0 1 324.422 45.6708)" fill="#EAFBF0"/>
<ellipse cx="5.50487" cy="8.91682" rx="5.50487" ry="8.91682" transform="matrix(-1 0 0 1 314.684 43.6129)" fill="#BCDDC8"/>
<ellipse cx="4.23451" cy="6.85909" rx="4.23451" ry="6.85909" transform="matrix(-1 0 0 1 313.41 45.6708)" fill="#EAFBF0"/>
<ellipse cx="5.50487" cy="8.91682" rx="5.50487" ry="8.91682" transform="matrix(-1 0 0 1 303.672 43.6129)" fill="#BCDDC8"/>
<ellipse cx="4.23451" cy="6.85909" rx="4.23451" ry="6.85909" transform="matrix(-1 0 0 1 302.402 45.6708)" fill="#EAFBF0"/>
<ellipse cx="5.50487" cy="8.91682" rx="5.50487" ry="8.91682" transform="matrix(-1 0 0 1 320.188 28.5231)" fill="#BCDDC8"/>
<ellipse cx="4.23451" cy="6.85909" rx="4.23451" ry="6.85909" transform="matrix(-1 0 0 1 318.918 30.5807)" fill="#EAFBF0"/>
<ellipse cx="5.50487" cy="8.91682" rx="5.50487" ry="8.91682" transform="matrix(-1 0 0 1 309.176 28.5231)" fill="#BCDDC8"/>
<ellipse cx="4.23451" cy="6.85909" rx="4.23451" ry="6.85909" transform="matrix(-1 0 0 1 307.906 30.5807)" fill="#EAFBF0"/>
<path d="M311.795 37.4398C311.795 38.8775 312.156 40.1552 312.713 41.0572C313.275 41.9672 313.985 42.4271 314.683 42.4271C315.381 42.4271 316.091 41.9672 316.653 41.0572C317.21 40.1552 317.57 38.8775 317.57 37.4398C317.57 36.0021 317.21 34.7244 316.653 33.8224C316.091 32.9124 315.381 32.4525 314.683 32.4525C313.985 32.4525 313.275 32.9124 312.713 33.8224C312.156 34.7244 311.795 36.0021 311.795 37.4398Z" stroke="#BCDDC8"/>
<path d="M300.783 37.4398C300.783 38.8775 301.144 40.1552 301.701 41.0572C302.263 41.9672 302.973 42.4271 303.671 42.4271C304.369 42.4271 305.079 41.9672 305.641 41.0572C306.198 40.1552 306.559 38.8775 306.559 37.4398C306.559 36.0021 306.198 34.7244 305.641 33.8224C305.079 32.9124 304.369 32.4525 303.671 32.4525C302.973 32.4525 302.263 32.9124 301.701 33.8224C301.144 34.7244 300.783 36.0021 300.783 37.4398Z" stroke="#BCDDC8"/>
<path d="M295.279 52.5299C295.279 53.9676 295.64 55.2452 296.197 56.1473C296.759 57.0572 297.469 57.5171 298.167 57.5171C298.865 57.5171 299.575 57.0572 300.137 56.1473C300.694 55.2452 301.055 53.9676 301.055 52.5299C301.055 51.0922 300.694 49.8145 300.137 48.9124C299.575 48.0025 298.865 47.5426 298.167 47.5426C297.469 47.5426 296.759 48.0025 296.197 48.9124C295.64 49.8145 295.279 51.0922 295.279 52.5299Z" stroke="#BCDDC8"/>
<path d="M306.287 52.5299C306.287 53.9676 306.648 55.2452 307.205 56.1473C307.767 57.0572 308.477 57.5171 309.175 57.5171C309.873 57.5171 310.583 57.0572 311.145 56.1473C311.702 55.2452 312.062 53.9676 312.062 52.5299C312.062 51.0922 311.702 49.8145 311.145 48.9124C310.583 48.0025 309.873 47.5426 309.175 47.5426C308.477 47.5426 307.767 48.0025 307.205 48.9124C306.648 49.8145 306.287 51.0922 306.287 52.5299Z" stroke="#BCDDC8"/>
<path d="M317.299 52.5299C317.299 53.9676 317.66 55.2452 318.217 56.1473C318.778 57.0572 319.489 57.5171 320.187 57.5171C320.884 57.5171 321.595 57.0572 322.157 56.1473C322.713 55.2452 323.074 53.9676 323.074 52.5299C323.074 51.0922 322.713 49.8145 322.157 48.9124C321.595 48.0025 320.884 47.5426 320.187 47.5426C319.489 47.5426 318.778 48.0025 318.217 48.9124C317.66 49.8145 317.299 51.0922 317.299 52.5299Z" stroke="#BCDDC8"/>
<path d="M313.066 37.4398C313.066 38.3093 313.285 39.0725 313.612 39.6022C313.944 40.1398 314.336 40.3693 314.684 40.3693C315.031 40.3693 315.423 40.1398 315.755 39.6022C316.082 39.0725 316.301 38.3093 316.301 37.4398C316.301 36.5703 316.082 35.8071 315.755 35.2774C315.423 34.7398 315.031 34.5103 314.684 34.5103C314.336 34.5103 313.944 34.7398 313.612 35.2774C313.285 35.8071 313.066 36.5703 313.066 37.4398Z" stroke="#BCDDC8"/>
<path d="M302.055 37.4398C302.055 38.3093 302.273 39.0725 302.6 39.6022C302.932 40.1398 303.325 40.3693 303.672 40.3693C304.019 40.3693 304.412 40.1398 304.743 39.6022C305.07 39.0725 305.289 38.3093 305.289 37.4398C305.289 36.5703 305.07 35.8071 304.743 35.2774C304.412 34.7398 304.019 34.5103 303.672 34.5103C303.325 34.5103 302.932 34.7398 302.6 35.2774C302.273 35.8071 302.055 36.5703 302.055 37.4398Z" stroke="#BCDDC8"/>
<path d="M296.547 52.5299C296.547 53.3993 296.765 54.1626 297.092 54.6923C297.424 55.2298 297.817 55.4594 298.164 55.4594C298.511 55.4594 298.904 55.2298 299.236 54.6923C299.563 54.1626 299.781 53.3993 299.781 52.5299C299.781 51.6604 299.563 50.8972 299.236 50.3675C298.904 49.8299 298.511 49.6003 298.164 49.6003C297.817 49.6003 297.424 49.8299 297.092 50.3675C296.765 50.8972 296.547 51.6604 296.547 52.5299Z" stroke="#BCDDC8"/>
<path d="M307.558 52.5299C307.558 53.3993 307.777 54.1626 308.104 54.6923C308.436 55.2298 308.829 55.4594 309.176 55.4594C309.523 55.4594 309.916 55.2298 310.247 54.6923C310.574 54.1626 310.793 53.3993 310.793 52.5299C310.793 51.6604 310.574 50.8972 310.247 50.3675C309.916 49.8299 309.523 49.6003 309.176 49.6003C308.829 49.6003 308.436 49.8299 308.104 50.3675C307.777 50.8972 307.558 51.6604 307.558 52.5299Z" stroke="#BCDDC8"/>
<path d="M318.566 52.5299C318.566 53.3993 318.785 54.1626 319.112 54.6923C319.444 55.2298 319.836 55.4594 320.184 55.4594C320.531 55.4594 320.923 55.2298 321.255 54.6923C321.582 54.1626 321.801 53.3993 321.801 52.5299C321.801 51.6604 321.582 50.8972 321.255 50.3675C320.923 49.8299 320.531 49.6003 320.184 49.6003C319.836 49.6003 319.444 49.8299 319.112 50.3675C318.785 50.8972 318.566 51.6604 318.566 52.5299Z" stroke="#BCDDC8"/>
<ellipse cx="5.50487" cy="8.7577" rx="5.50487" ry="8.7577" transform="matrix(-1 0 0 1 326.688 14.8207)" fill="#BCDDC8"/>
<ellipse cx="4.23451" cy="6.73669" rx="4.23451" ry="6.73669" transform="matrix(-1 0 0 1 325.418 16.8417)" fill="#EAFBF0"/>
<ellipse cx="5.50487" cy="8.7577" rx="5.50487" ry="8.7577" transform="matrix(-1 0 0 1 315.68 14.8207)" fill="#BCDDC8"/>
<ellipse cx="4.23451" cy="6.73669" rx="4.23451" ry="6.73669" transform="matrix(-1 0 0 1 314.406 16.8417)" fill="#EAFBF0"/>
<ellipse cx="5.50487" cy="8.7577" rx="5.50487" ry="8.7577" transform="matrix(-1 0 0 1 321.184 0)" fill="#BCDDC8"/>
<ellipse cx="4.23451" cy="6.73669" rx="4.23451" ry="6.73669" transform="matrix(-1 0 0 1 319.914 2.02087)" fill="#EAFBF0"/>
<path d="M312.791 8.75764C312.791 10.1666 313.151 11.4186 313.707 12.3024C314.266 13.1929 314.977 13.647 315.679 13.647C316.381 13.647 317.091 13.1929 317.651 12.3024C318.206 11.4186 318.566 10.1666 318.566 8.75764C318.566 7.34866 318.206 6.09671 317.651 5.21288C317.091 4.32236 316.381 3.86829 315.679 3.86829C314.977 3.86829 314.266 4.32236 313.707 5.21288C313.151 6.09671 312.791 7.34866 312.791 8.75764Z" stroke="#BCDDC8"/>
<path d="M307.283 23.5786C307.283 24.9875 307.643 26.2395 308.199 27.1233C308.759 28.0138 309.469 28.4679 310.171 28.4679C310.873 28.4679 311.583 28.0138 312.143 27.1233C312.699 26.2395 313.059 24.9875 313.059 23.5786C313.059 22.1696 312.699 20.9176 312.143 20.0338C311.583 19.1433 310.873 18.6892 310.171 18.6892C309.469 18.6892 308.759 19.1433 308.199 20.0338C307.643 20.9176 307.283 22.1696 307.283 23.5786Z" stroke="#BCDDC8"/>
<path d="M318.295 23.5786C318.295 24.9875 318.655 26.2395 319.211 27.1233C319.77 28.0138 320.48 28.4679 321.183 28.4679C321.885 28.4679 322.595 28.0138 323.155 27.1233C323.71 26.2395 324.07 24.9875 324.07 23.5786C324.07 22.1696 323.71 20.9176 323.155 20.0338C322.595 19.1433 321.885 18.6892 321.183 18.6892C320.48 18.6892 319.77 19.1433 319.211 20.0338C318.655 20.9176 318.295 22.1696 318.295 23.5786Z" stroke="#BCDDC8"/>
<path d="M314.062 8.75763C314.062 9.60852 314.28 10.3552 314.606 10.8733C314.936 11.3981 315.328 11.626 315.68 11.626C316.031 11.626 316.424 11.3981 316.753 10.8733C317.079 10.3552 317.297 9.60852 317.297 8.75763C317.297 7.90673 317.079 7.16004 316.753 6.64193C316.424 6.11715 316.031 5.88928 315.68 5.88928C315.328 5.88928 314.936 6.11715 314.606 6.64193C314.28 7.16004 314.062 7.90673 314.062 8.75763Z" stroke="#BCDDC8"/>
<path d="M308.555 23.5783C308.555 24.4292 308.772 25.1759 309.098 25.694C309.428 26.2188 309.82 26.4467 310.172 26.4467C310.523 26.4467 310.916 26.2188 311.246 25.694C311.571 25.1759 311.789 24.4292 311.789 23.5783C311.789 22.7274 311.571 21.9807 311.246 21.4626C310.916 20.9378 310.523 20.71 310.172 20.71C309.82 20.71 309.428 20.9378 309.098 21.4626C308.772 21.9807 308.555 22.7274 308.555 23.5783Z" stroke="#BCDDC8"/>
<path d="M319.566 23.5783C319.566 24.4292 319.784 25.1759 320.11 25.694C320.44 26.2188 320.832 26.4467 321.184 26.4467C321.535 26.4467 321.927 26.2188 322.257 25.694C322.583 25.1759 322.801 24.4292 322.801 23.5783C322.801 22.7274 322.583 21.9807 322.257 21.4626C321.927 20.9378 321.535 20.71 321.184 20.71C320.832 20.71 320.44 20.9378 320.11 21.4626C319.784 21.9807 319.566 22.7274 319.566 23.5783Z" stroke="#BCDDC8"/>
<rect width="8.16722" height="7.44082" transform="matrix(-1 0 0 1 183.764 112.853)" fill="#BCDDC8"/>
<rect width="8.16722" height="7.44082" transform="matrix(-1 0 0 1 156.539 112.853)" fill="#BCDDC8"/>
<rect width="8.16722" height="7.44082" transform="matrix(-1 0 0 1 240.934 112.853)" fill="#BCDDC8"/>
<rect width="8.16722" height="7.44082" transform="matrix(-1 0 0 1 213.711 112.853)" fill="#BCDDC8"/>
</svg>
