<svg width="146" height="40" viewBox="0 0 146 40" fill="none" xmlns="http://www.w3.org/2000/svg">
<mask id="path-1-inside-1_379_13999" fill="white">
<path fill-rule="evenodd" clip-rule="evenodd" d="M108 30L93 0L78 30L88 30V40H98V30L108 30Z"/>
</mask>
<path d="M93 0L93.8944 -0.447214L93 -2.23607L92.1056 -0.447214L93 0ZM108 30L108 31L109.618 31L108.894 29.5528L108 30ZM78 30L77.1056 29.5528L76.382 31L78 31L78 30ZM88 30H89V29L88 29L88 30ZM88 40H87V41H88V40ZM98 40V41H99V40H98ZM98 30L98 29L97 29V30H98ZM92.1056 0.447214L107.106 30.4472L108.894 29.5528L93.8944 -0.447214L92.1056 0.447214ZM78.8944 30.4472L93.8944 0.447214L92.1056 -0.447214L77.1056 29.5528L78.8944 30.4472ZM88 29L78 29L78 31L88 31L88 29ZM89 40V30H87V40H89ZM98 39H88V41H98V39ZM97 30V40H99V30H97ZM108 29L98 29L98 31L108 31L108 29Z" fill="#F8EFEA" mask="url(#path-1-inside-1_379_13999)"/>
<mask id="path-3-inside-2_379_13999" fill="white">
<path fill-rule="evenodd" clip-rule="evenodd" d="M146 30L131 0L116 30L126 30V40H136V30L146 30Z"/>
</mask>
<path fill-rule="evenodd" clip-rule="evenodd" d="M146 30L131 0L116 30L126 30V40H136V30L146 30Z" fill="#F8EFEA"/>
<path d="M131 0L131.894 -0.447214L131 -2.23607L130.106 -0.447214L131 0ZM146 30L146 31L147.618 31L146.894 29.5528L146 30ZM116 30L115.106 29.5528L114.382 31L116 31L116 30ZM126 30H127V29L126 29L126 30ZM126 40H125V41H126V40ZM136 40V41H137V40H136ZM136 30L136 29L135 29V30H136ZM130.106 0.447214L145.106 30.4472L146.894 29.5528L131.894 -0.447214L130.106 0.447214ZM116.894 30.4472L131.894 0.447214L130.106 -0.447214L115.106 29.5528L116.894 30.4472ZM126 29L116 29L116 31L126 31L126 29ZM127 40V30H125V40H127ZM136 39H126V41H136V39ZM135 30V40H137V30H135ZM146 29L136 29L136 31L146 31L146 29Z" fill="#F8EFEA" mask="url(#path-3-inside-2_379_13999)"/>
<mask id="path-5-inside-3_379_13999" fill="white">
<path fill-rule="evenodd" clip-rule="evenodd" d="M69 30L54 0L39 30L49 30V40H59V30L69 30Z"/>
</mask>
<path fill-rule="evenodd" clip-rule="evenodd" d="M69 30L54 0L39 30L49 30V40H59V30L69 30Z" fill="#F8EFEA"/>
<path d="M54 0L54.8944 -0.447214L54 -2.23607L53.1056 -0.447214L54 0ZM69 30L69 31L70.618 31L69.8944 29.5528L69 30ZM39 30L38.1056 29.5528L37.382 31L39 31L39 30ZM49 30H50V29L49 29L49 30ZM49 40H48V41H49V40ZM59 40V41H60V40H59ZM59 30L59 29L58 29V30H59ZM53.1056 0.447214L68.1056 30.4472L69.8944 29.5528L54.8944 -0.447214L53.1056 0.447214ZM39.8944 30.4472L54.8944 0.447214L53.1056 -0.447214L38.1056 29.5528L39.8944 30.4472ZM49 29L39 29L39 31L49 31L49 29ZM50 40V30H48V40H50ZM59 39H49V41H59V39ZM58 30V40H60V30H58ZM69 29L59 29L59 31L69 31L69 29Z" fill="#F8EFEA" mask="url(#path-5-inside-3_379_13999)"/>
<mask id="path-7-inside-4_379_13999" fill="white">
<path fill-rule="evenodd" clip-rule="evenodd" d="M30 30L15 0L0 30L10 30V40H20V30L30 30Z"/>
</mask>
<path d="M15 0L15.8944 -0.447214L15 -2.23607L14.1056 -0.447214L15 0ZM30 30L30 31L31.618 31L30.8944 29.5528L30 30ZM0 30L-0.894427 29.5528L-1.61803 31L1.90735e-07 31L0 30ZM10 30H11V29L10 29L10 30ZM10 40H9V41H10V40ZM20 40V41H21V40H20ZM20 30L20 29L19 29V30H20ZM14.1056 0.447214L29.1056 30.4472L30.8944 29.5528L15.8944 -0.447214L14.1056 0.447214ZM0.894427 30.4472L15.8944 0.447214L14.1056 -0.447214L-0.894427 29.5528L0.894427 30.4472ZM10 29L-1.90735e-07 29L1.90735e-07 31L10 31L10 29ZM11 40V30H9V40H11ZM20 39H10V41H20V39ZM19 30V40H21V30H19ZM30 29L20 29L20 31L30 31L30 29Z" fill="#F8EFEA" mask="url(#path-7-inside-4_379_13999)"/>
</svg>
