<svg width="117" height="27" viewBox="0 0 117 27" fill="none" xmlns="http://www.w3.org/2000/svg">
<path d="M7.5 8L13.9952 22.25H1.00481L7.5 8Z" fill="#1C9045"/>
<path d="M69.5 2L78.5933 22.25H60.4067L69.5 2Z" fill="#1C9045"/>
<path d="M27.5 0L37.4593 22.5H17.5407L27.5 0Z" fill="#1C9045"/>
<path d="M89.5 6L96.8612 22.5H82.1388L89.5 6Z" fill="#1C9045"/>
<path d="M48.5 8L54.9952 22.25H42.0048L48.5 8Z" fill="#1C9045"/>
<path d="M110.5 11L116.129 23H104.871L110.5 11Z" fill="#1C9045"/>
<rect x="6" y="22" width="4" height="5" fill="#1C9045"/>
<rect x="68" y="22" width="4" height="5" fill="#1C9045"/>
<rect x="25" y="22" width="4" height="5" fill="#1C9045"/>
<rect x="87" y="22" width="4" height="5" fill="#1C9045"/>
<rect x="46" y="22" width="4" height="5" fill="#1C9045"/>
<rect x="108" y="22" width="4" height="5" fill="#1C9045"/>
</svg>
