<svg width="21" height="21" viewBox="0 0 21 21" fill="none" xmlns="http://www.w3.org/2000/svg">
<path fill-rule="evenodd" clip-rule="evenodd" d="M19.1387 11.75C19.1387 12.0026 19.1279 12.2528 19.1068 12.5C19.0877 12.7247 19.06 12.9471 19.0241 13.1667C18.3451 17.3203 14.7315 20.5 10.3887 20.5C6.04589 20.5 2.4322 17.3203 1.75326 13.1667C1.71737 12.9471 1.68968 12.7247 1.67051 12.5C1.64943 12.2528 1.63867 12.0026 1.63867 11.75V11.1667H2.88867V11.75C2.88867 12.0031 2.90127 12.2533 2.92588 12.5C3.30337 16.2851 6.5067 19.25 10.3887 19.25C14.2713 19.25 17.474 16.2851 17.8515 12.5C17.8761 12.2533 17.8887 12.0031 17.8887 11.75V11.1667H19.1387V11.75ZM20.3887 10.5L19.034 9.14533C19.0001 8.92745 18.9582 8.71224 18.9086 8.5C18.8297 8.1629 18.7314 7.83332 18.6148 7.51251C18.0925 6.07518 17.2041 4.81381 16.0622 3.84077C15.2056 3.11072 14.2063 2.54298 13.1119 2.18499C13.0793 2.1743 13.0465 2.16381 13.0137 2.15349C13.0075 2.15156 13.0013 2.14963 12.9952 2.1477C12.9738 2.14106 12.9525 2.1345 12.9311 2.12801C12.6064 2.02959 12.2738 1.94952 11.9343 1.889C11.9111 1.68217 11.848 1.48733 11.7528 1.31267C11.4892 0.828926 10.9796 0.5 10.3893 0.5C9.799 0.5 9.28913 0.828871 9.02559 1.31267C8.93051 1.48722 8.8675 1.68195 8.84434 1.88867C8.50444 1.94924 8.17132 2.02941 7.84621 2.12799C7.82479 2.13448 7.80341 2.14106 7.78206 2.14771C7.77593 2.14962 7.7698 2.15154 7.76367 2.15346C7.73074 2.16381 7.69789 2.17434 7.66512 2.18506C6.57126 2.543 5.57231 3.11053 4.71586 3.84022C3.57414 4.81296 2.68566 6.07388 2.16315 7.51065C2.04627 7.83206 1.9477 8.16226 1.8687 8.5C1.81909 8.71213 1.7772 8.92723 1.74334 9.145L0.388672 10.5H20.3887ZM16.1353 6.625C15.799 5.94398 15.3784 5.32029 14.8887 4.77095C14.3426 4.15839 13.7105 3.63828 13.0137 3.23421C12.9866 3.21852 12.9595 3.20301 12.9322 3.18767C12.8152 3.12183 12.6965 3.05923 12.576 3C12.6658 3.05904 12.7543 3.12164 12.8415 3.18767C12.8573 3.1996 12.873 3.21164 12.8887 3.22379C12.9261 3.25278 12.9632 3.28241 13.0001 3.31267C13.0046 3.31639 13.0091 3.32013 13.0137 3.32388C13.5885 3.79872 14.1006 4.42559 14.5261 5.16859C14.5297 5.17494 14.5334 5.1813 14.537 5.18767C14.662 5.40719 14.7794 5.63677 14.8887 5.87549C15.2488 6.66207 15.5205 7.54786 15.6821 8.5C15.6892 8.54154 15.696 8.58321 15.7027 8.625H16.8347C16.8255 8.58321 16.8161 8.54154 16.8063 8.5C16.8026 8.48388 16.7987 8.46778 16.7949 8.4517C16.7693 8.34536 16.7419 8.23985 16.7126 8.13521C16.5651 7.60756 16.3709 7.1022 16.1353 6.625ZM12.8887 5.18767H11.0137V3.31267H9.76367V5.18767H7.88867V6.43767H9.76367V8.31267H11.0137V6.43767H12.8887V5.18767ZM13.0137 8.43767V8.5H13.6476C13.6433 8.47915 13.6389 8.45837 13.6345 8.43767H13.0137ZM7.76367 8.5V8.43767H7.14285C7.13844 8.45837 7.13408 8.47915 7.12979 8.5H7.76367ZM3.94267 8.625H5.07467C5.0813 8.58321 5.08815 8.54154 5.0952 8.5C5.2568 7.54811 5.52859 6.66254 5.88867 5.87612C5.99808 5.63717 6.11563 5.40738 6.24073 5.18767C6.24442 5.18118 6.24813 5.17469 6.25184 5.16822C6.67736 4.42549 7.18928 3.79882 7.76367 3.32407C7.76828 3.32026 7.7729 3.31646 7.77752 3.31267C7.81432 3.28246 7.85137 3.25288 7.88867 3.22393C7.90439 3.21173 7.92015 3.19964 7.93596 3.18767C8.02312 3.12164 8.1116 3.05904 8.20134 3C8.08093 3.05923 7.9622 3.12183 7.84525 3.18767C7.81796 3.20303 7.79077 3.21857 7.76367 3.23429C7.06687 3.63844 6.43482 4.15867 5.88867 4.77138C5.39911 5.32062 4.97858 5.94416 4.64233 6.625C4.40686 7.1018 4.21271 7.60671 4.06514 8.13388C4.03573 8.23895 4.00817 8.34491 3.9825 8.4517C3.97864 8.46778 3.97481 8.48388 3.97103 8.5C3.96129 8.54154 3.95184 8.58321 3.94267 8.625Z" fill="#1C9045"/>
</svg>
