<svg width="29" height="22" viewBox="0 0 29 22" fill="none" xmlns="http://www.w3.org/2000/svg">
<path d="M17.1364 8.08723V5.75701C17.8614 5.43718 18.6031 5.1973 19.3615 5.03738C20.1198 4.87747 20.916 4.79751 21.75 4.79751C22.3212 4.79751 22.8814 4.8432 23.4307 4.93458C23.9799 5.02596 24.5182 5.14019 25.0455 5.27726V7.47041C24.5182 7.2648 23.9852 7.11036 23.4465 7.0071C22.9078 6.90384 22.3423 6.85267 21.75 6.85358C20.9152 6.85358 20.1133 6.96233 19.3443 7.17981C18.5754 7.3973 17.8394 7.69977 17.1364 8.08723ZM17.1364 15.6262V13.296C17.8614 12.9761 18.6031 12.7362 19.3615 12.5763C20.1198 12.4164 20.916 12.3364 21.75 12.3364C22.3212 12.3364 22.8814 12.3821 23.4307 12.4735C23.9799 12.5649 24.5182 12.6791 25.0455 12.8162V15.0093C24.5182 14.8037 23.9852 14.6493 23.4465 14.546C22.9078 14.4428 22.3423 14.3916 21.75 14.3925C20.9152 14.3925 20.1133 14.4953 19.3443 14.7009C18.5754 14.9065 17.8394 15.215 17.1364 15.6262ZM17.1364 11.8567V9.52648C17.8614 9.20665 18.6031 8.96677 19.3615 8.80685C20.1198 8.64694 20.916 8.56698 21.75 8.56698C22.3212 8.56698 22.8814 8.61267 23.4307 8.70405C23.9799 8.79543 24.5182 8.90966 25.0455 9.04673V11.2399C24.5182 11.0343 23.9852 10.8798 23.4465 10.7766C22.9078 10.6733 22.3423 10.6221 21.75 10.6231C20.9152 10.6231 20.1133 10.7318 19.3443 10.9493C18.5754 11.1668 17.8394 11.4692 17.1364 11.8567ZM15.8182 17.8878C16.7848 17.4081 17.7568 17.0481 18.734 16.8077C19.7112 16.5674 20.7165 16.4477 21.75 16.4486C22.5409 16.4486 23.3156 16.5171 24.074 16.6542C24.8323 16.7913 25.5956 16.9969 26.3636 17.271V3.70093C25.6386 3.3811 24.886 3.14123 24.1056 2.98131C23.3252 2.82139 22.54 2.74143 21.75 2.74143C20.7174 2.74143 19.6958 2.8785 18.6852 3.15265C17.6746 3.42679 16.7189 3.83801 15.8182 4.38629V17.8878ZM14.5 21.9315C13.4455 21.0633 12.303 20.3894 11.0727 19.9097C9.84242 19.4299 8.56818 19.19 7.25 19.19C6.08561 19.19 4.86629 19.4185 3.59205 19.8754C2.3178 20.3323 1.12045 21.0405 0 22V2.12461C0.966667 1.43925 2.10382 0.913811 3.41145 0.548287C4.71909 0.182762 5.99861 0 7.25 0C8.52424 0 9.77124 0.17134 10.991 0.514019C12.2108 0.856698 13.3804 1.37072 14.5 2.05607C15.6205 1.37072 16.7906 0.856698 18.0103 0.514019C19.2301 0.17134 20.4766 0 21.75 0C23.0023 0 24.2822 0.182762 25.5899 0.548287C26.8975 0.913811 28.0342 1.43925 29 2.12461V22C27.9015 21.0405 26.7094 20.3323 25.4238 19.8754C24.1381 19.4185 22.9135 19.19 21.75 19.19C20.4318 19.19 19.1576 19.4299 17.9273 19.9097C16.697 20.3894 15.5545 21.0633 14.5 21.9315Z" fill="#1C9045"/>
</svg>
