<svg width="16" height="16" viewBox="0 0 16 16" fill="none" xmlns="http://www.w3.org/2000/svg">
<path fill-rule="evenodd" clip-rule="evenodd" d="M1.88547 0.51017C2.06045 0.335459 2.27055 0.199929 2.50187 0.11256C2.73318 0.025192 2.98043 -0.012019 3.22721 0.00339321C3.47399 0.0188054 3.71469 0.0864889 3.93333 0.201958C4.15198 0.317428 4.34359 0.478046 4.49547 0.67317L6.29047 2.97917C6.61947 3.40217 6.73547 3.95317 6.60547 4.47317L6.05847 6.66317C6.03019 6.7766 6.03172 6.89541 6.06291 7.00808C6.0941 7.12075 6.15388 7.22343 6.23647 7.30617L8.69347 9.76317C8.77631 9.84592 8.87916 9.90581 8.99202 9.93701C9.10488 9.9682 9.22389 9.96964 9.33747 9.94117L11.5265 9.39417C11.7831 9.33001 12.0509 9.32503 12.3098 9.3796C12.5686 9.43417 12.8116 9.54687 13.0205 9.70917L15.3265 11.5032C16.1555 12.1482 16.2315 13.3732 15.4895 14.1142L14.4555 15.1482C13.7155 15.8882 12.6095 16.2132 11.5785 15.8502C8.93965 14.9217 6.54374 13.411 4.56847 11.4302C2.58776 9.45519 1.07708 7.05963 0.148471 4.42117C-0.213529 3.39117 0.111471 2.28417 0.851471 1.54417L1.88547 0.51017Z" fill="white"/>
</svg>
