<svg width="35" height="39" viewBox="0 0 35 39" fill="none" xmlns="http://www.w3.org/2000/svg">
<path d="M34.4257 30.0016C34.3164 30.2171 34.1465 30.3987 33.9353 30.5257C33.724 30.6527 33.48 30.7201 33.231 30.72H18.6089V37.12C18.6089 37.4595 18.4689 37.7851 18.2196 38.0251C17.9703 38.2651 17.6322 38.4 17.2796 38.4C16.9271 38.4 16.589 38.2651 16.3397 38.0251C16.0904 37.7851 15.9504 37.4595 15.9504 37.12V30.72H1.32828C1.07955 30.7199 0.835861 30.6525 0.624918 30.5256C0.413975 30.3987 0.244244 30.2173 0.13502 30.0021C0.0257955 29.7869 -0.0185385 29.5466 0.00705794 29.3083C0.0326544 29.0701 0.127154 28.8435 0.279814 28.6544L7.92317 19.2001H3.98684C3.73855 19.2001 3.49521 19.1332 3.2844 19.0068C3.07359 18.8805 2.90374 18.6999 2.79409 18.4854C2.68443 18.2709 2.63936 18.0311 2.66398 17.7932C2.6886 17.5553 2.78193 17.3287 2.93339 17.1393L16.2262 0.499362C16.3503 0.344006 16.5099 0.218186 16.6925 0.131606C16.8752 0.0450262 17.0761 0 17.2796 0C17.4832 0 17.6841 0.0450262 17.8667 0.131606C18.0494 0.218186 18.2089 0.344006 18.3331 0.499362L31.6259 17.1393C31.7773 17.3287 31.8707 17.5553 31.8953 17.7932C31.9199 18.0311 31.8748 18.2709 31.7652 18.4854C31.6555 18.6999 31.4857 18.8805 31.2749 19.0068C31.0641 19.1332 30.8207 19.2001 30.5724 19.2001H26.6444L34.2795 28.6544C34.4323 28.8434 34.527 29.0697 34.5528 29.3079C34.5786 29.546 34.5346 29.7864 34.4257 30.0016Z" fill="#1C9045"/>
</svg>
