<svg width="24" height="24" viewBox="0 0 24 24" fill="none" xmlns="http://www.w3.org/2000/svg">
<path fill-rule="evenodd" clip-rule="evenodd" d="M22.3092 10C21.9471 8.12282 21.0849 6.42419 19.8668 5.04777C19.2528 4.3541 18.5485 3.74226 17.7723 3.23065C17.0023 2.72318 16.1615 2.3143 15.2679 2.02199C15.2213 2.00676 15.1746 1.99184 15.1278 1.97724C15.1103 1.9718 15.0928 1.96641 15.0753 1.96105C14.9676 1.92811 14.8592 1.89685 14.75 1.86731C14.4565 1.78788 14.1579 1.72084 13.8548 1.6668C13.8436 1.56706 13.8247 1.46965 13.7986 1.3752C13.5802 0.583616 12.862 0 12.0008 0C11.1394 0 10.4208 0.583488 10.2028 1.3752C10.1768 1.46952 10.158 1.5668 10.1468 1.6664C9.84315 1.72051 9.54402 1.78766 9.25 1.86725C9.14081 1.89681 9.03232 1.92808 8.92457 1.96104C8.90705 1.9664 8.88955 1.9718 8.87206 1.97725C8.82514 1.99187 8.77837 2.00681 8.73174 2.02207C7.83868 2.31431 6.99833 2.72296 6.2287 3.23011C5.45269 3.74145 4.74856 4.35293 4.13475 5.04618C2.91574 6.42293 2.05293 8.12217 1.69072 10C1.66682 10.1239 1.6451 10.2486 1.6256 10.374L0 12H24L22.3744 10.3744C22.3549 10.2488 22.3331 10.124 22.3092 10ZM19.6874 9.54204C19.704 9.61107 19.7199 9.68039 19.7352 9.75H18.3768C18.1338 8.21867 17.6543 6.82562 17 5.66406C16.9927 5.65108 16.9854 5.63812 16.978 5.6252C16.7974 5.30787 16.6036 5.00805 16.398 4.72768C16.0964 4.31631 15.7693 3.94679 15.4207 3.6252C15.2051 3.42621 14.9812 3.24556 14.75 3.08471C14.7085 3.05583 14.6668 3.02759 14.6248 3C14.6667 3.02061 14.7084 3.04155 14.75 3.06284C15.0766 3.23008 15.3926 3.41806 15.6965 3.6252C16.1607 3.94157 16.5969 4.30266 17 4.70296C17.4764 5.17598 17.9067 5.70375 18.2827 6.27714C18.5862 6.73996 18.8544 7.23251 19.0829 7.75C19.3343 8.3193 19.5377 8.91877 19.6874 9.54204ZM12.75 3.3752H11.25V5.6252H9V7.1252H11.25V9.3752H12.75V7.1252H15V5.6252H12.75V3.3752ZM16.214 9.1252H14.75V10H16.3913C16.3418 9.69823 16.2823 9.40648 16.214 9.1252ZM9.25 10V9.1252H7.78603C7.71769 9.40649 7.65822 9.69824 7.60872 10H9.25ZM9.3752 3C9.33324 3.02761 9.2915 3.05587 9.25 3.08477C9.019 3.2456 8.79523 3.42623 8.57964 3.6252C8.23131 3.94668 7.90435 4.31605 7.60281 4.72724C7.3971 5.00775 7.20323 5.30771 7.02247 5.6252C7.01496 5.63839 7.00747 5.65162 7 5.66487C6.34576 6.82626 5.86612 8.21903 5.6232 9.75H4.2648C4.28007 9.6804 4.296 9.61107 4.31259 9.54204C4.46241 8.91877 4.66592 8.3193 4.91739 7.75C5.14618 7.23205 5.41468 6.73908 5.71856 6.27589C6.09432 5.70316 6.52418 5.17597 7 4.7034C7.40323 4.30293 7.83947 3.94169 8.30375 3.6252C8.60762 3.41806 8.9235 3.2301 9.25 3.06286C9.29156 3.04157 9.3333 3.02061 9.3752 3ZM21 12.8V13.5C21 13.6678 20.9954 13.8345 20.9863 14C20.726 18.7315 16.795 22.5 12 22.5C7.20572 22.5 3.27404 18.7315 3.01372 14C3.00461 13.8345 3 13.6678 3 13.5V12.8H1.5V13.5C1.5 13.6676 1.50395 13.8343 1.51175 14C1.52444 14.2694 1.54733 14.5362 1.58004 14.8C2.22227 19.9788 6.6501 24 12 24C17.3499 24 21.7777 19.9788 22.42 14.8C22.4527 14.5362 22.4756 14.2694 22.4882 14C22.4961 13.8343 22.5 13.6676 22.5 13.5V12.8H21Z" fill="#1C9045"/>
</svg>
