<svg width="18" height="21" viewBox="0 0 18 21" fill="none" xmlns="http://www.w3.org/2000/svg">
<mask id="path-1-inside-1_420_15332" fill="white">
<path fill-rule="evenodd" clip-rule="evenodd" d="M17.7991 15.5L9.13887 0.5L0.478614 15.5H7.15662L4.55854 20H13.2188L10.6207 15.5H17.7991Z"/>
</mask>
<path fill-rule="evenodd" clip-rule="evenodd" d="M17.7991 15.5L9.13887 0.5L0.478614 15.5H7.15662L4.55854 20H13.2188L10.6207 15.5H17.7991Z" fill="#1C9045"/>
<path d="M9.13877 0.5L10.0048 -6.03743e-08L9.13877 -1.5L8.27274 -1.9079e-08L9.13877 0.5ZM17.799 15.5V16.5H19.5311L18.6651 15L17.799 15.5ZM0.478516 15.5L-0.38751 15L-1.25354 16.5H0.478516V15.5ZM7.15652 15.5L8.02255 16L8.88857 14.5H7.15652V15.5ZM4.55845 20L3.69242 19.5L2.8264 21H4.55845V20ZM13.2187 20V21H14.9508L14.0847 19.5L13.2187 20ZM10.6206 15.5V14.5H8.88857L9.7546 16L10.6206 15.5ZM8.27274 1L16.933 16L18.6651 15L10.0048 -6.03743e-08L8.27274 1ZM1.34454 16L10.0048 1L8.27274 -1.9079e-08L-0.38751 15L1.34454 16ZM7.15652 14.5H0.478516V16.5H7.15652V14.5ZM5.42447 20.5L8.02255 16L6.2905 15L3.69242 19.5L5.42447 20.5ZM13.2187 19H4.55845V21H13.2187V19ZM9.7546 16L12.3527 20.5L14.0847 19.5L11.4866 15L9.7546 16ZM17.799 14.5H10.6206V16.5H17.799V14.5Z" fill="#1C9045" mask="url(#path-1-inside-1_420_15332)"/>
<line x1="9.88867" y1="12" x2="14.8887" y2="12" stroke="white"/>
<line x1="12.3887" y1="9.5" x2="12.3887" y2="14.5" stroke="white"/>
</svg>
