<svg width="18" height="18" viewBox="0 0 18 18" fill="none" xmlns="http://www.w3.org/2000/svg">
<circle cx="9" cy="9" r="9" fill="#F8F4A5"/>
<path fill-rule="evenodd" clip-rule="evenodd" d="M5.17838 5.28698C5.28774 5.1887 5.41905 5.11246 5.56362 5.06332C5.70819 5.01417 5.86271 4.99324 6.01694 5.00191C6.17118 5.01058 6.32161 5.04865 6.45826 5.11361C6.59491 5.17856 6.71466 5.26891 6.80958 5.37868L7.93142 6.67586C8.13704 6.91381 8.20954 7.22376 8.12829 7.51627L7.78643 8.74821C7.76875 8.81201 7.76971 8.87885 7.7892 8.94223C7.80869 9.0056 7.84606 9.06337 7.89767 9.10991L9.43325 10.492C9.48502 10.5386 9.5493 10.5723 9.61984 10.5898C9.69037 10.6074 9.76475 10.6082 9.83574 10.5922L11.2038 10.2845C11.3642 10.2484 11.5316 10.2456 11.6934 10.2763C11.8551 10.307 12.007 10.3704 12.1375 10.4617L13.5787 11.4708C14.0969 11.8337 14.1444 12.5228 13.6806 12.9396L13.0344 13.5212C12.5719 13.9375 11.8807 14.1203 11.2363 13.9161C9.58711 13.3938 8.08971 12.544 6.8552 11.4298C5.6173 10.3188 4.67315 8.97122 4.09279 7.48702C3.86655 6.90762 4.06967 6.2849 4.53215 5.86864L5.17838 5.28698Z" fill="#1C9045"/>
</svg>
