<svg width="931" height="99" viewBox="0 0 931 99" fill="none" xmlns="http://www.w3.org/2000/svg">
<path d="M0.5 92.5H930.5V98.5H0.5V92.5Z" fill="#1C9045" stroke="#1C9045"/>
<path d="M829.463 55.3164C827.298 73.1139 828.862 88.9873 825.555 94.6993H842.39C839.985 89.8892 839.183 65.9388 838.181 55.3164V44.4936L834.574 3.9082H830.665L829.463 44.4936V55.3164Z" fill="#1C9045" stroke="#1C9045"/>
<path d="M882.298 65.5282C880.675 78.8468 881.847 90.7256 879.367 95.0002H891.994C890.19 91.4005 889.589 73.4774 888.837 65.5282V57.429L886.131 27.0571H883.2L882.298 57.429V65.5282Z" fill="#1C9045" stroke="#1C9045"/>
<path d="M800 51.4082C807.215 50.6867 813.829 44.4936 816.234 41.4873C822.285 44.3737 826.219 45.1533 833.972 45.0949C842.765 45.0179 846.887 44.3175 852.009 41.4873C854.415 44.4936 861.028 50.6867 868.244 51.4082C864.235 52.3101 855.016 52.8512 850.206 47.8006L855.918 56.519C852.806 56.1733 846.967 54.4114 845.265 50.0764L846.598 56.519C844.193 55.7173 838.842 52.8512 836.677 47.8006L833.972 56.519L831.566 47.8006C829.402 52.8512 824.051 55.7173 821.646 56.519L822.979 50.0764C821.276 54.4114 815.437 56.1733 812.326 56.519L818.038 47.8006C813.228 52.8512 804.008 52.3101 800 51.4082Z" fill="#1C9045"/>
<path d="M860.125 62.2552C865.528 61.7069 870.482 57.0001 872.283 54.7153C876.814 56.909 879.761 57.5015 885.566 57.4571C892.152 57.3986 895.238 56.8663 899.075 54.7153C900.876 57.0001 905.829 61.7069 911.233 62.2552C908.231 62.9406 901.326 63.3519 897.724 59.5134L902.002 66.1394C899.672 65.8767 895.299 64.5376 894.024 61.243L895.022 66.1394C893.221 65.5301 889.214 63.3519 887.593 59.5134L885.566 66.1394L883.765 59.5134C882.144 63.3519 878.136 65.5301 876.335 66.1394L877.334 61.243C876.059 64.5376 871.686 65.8767 869.356 66.1394L873.634 59.5134C870.031 63.3519 863.127 62.9406 860.125 62.2552Z" fill="#1C9045"/>
<path d="M807.215 33.9717C812.809 33.2501 817.937 27.0571 819.802 24.0508C824.493 26.9372 827.544 27.7168 833.554 27.6584C840.372 27.5814 843.567 26.881 847.539 24.0508C849.404 27.0571 854.532 33.2501 860.126 33.9717C857.018 34.8736 849.87 35.4147 846.141 30.3641L850.57 39.0824C848.6 38.8002 843.89 38.4618 841.509 35.9883L843.344 39.0824C841.479 38.2807 838.449 39.0824 835.652 35.7755L833.554 44.4938L831.689 35.7755C829.125 38.4812 825.862 38.2807 823.997 39.0824L825.771 35.5469C823.646 38.4232 818.852 38.7842 816.772 39.0824L821.2 30.3641C817.471 35.4147 810.323 34.8736 807.215 33.9717Z" fill="#1C9045"/>
<path d="M865.539 49.3831C869.735 48.8526 873.581 44.2989 874.979 42.0884C878.498 44.2107 880.786 44.784 885.293 44.741C890.407 44.6844 892.804 44.1694 895.782 42.0884C897.181 44.2989 901.027 48.8526 905.223 49.3831C902.892 50.0463 897.531 50.4442 894.734 46.7305L898.055 53.1411C896.578 52.9335 893.046 52.6847 891.26 50.866L892.636 53.1411C891.237 52.5516 888.965 53.1411 886.867 50.7095L885.293 57.12L883.895 50.7095C881.972 52.699 879.524 52.5516 878.126 53.1411L879.456 50.5414C877.863 52.6564 874.267 52.9218 872.707 53.1411L876.028 46.7305C873.231 50.4442 867.87 50.0463 865.539 49.3831Z" fill="#1C9045"/>
<path d="M824.351 6.61392C826.035 3.00633 832.168 0.501055 833.671 0C835.174 0.501055 841.307 3.00633 842.99 6.61392C844.674 10.2215 849.504 15.3323 851.709 17.4367C849.504 18.2384 844.433 18.3987 841.788 12.6266C842.489 15.6329 844.494 21.6456 846.899 21.6456C845.496 23.8502 841.668 25.2532 837.579 13.2278C837.679 15.8333 835.354 22.307 833.671 23.75C831.987 22.307 829.662 15.8333 829.763 13.2278C825.674 25.2532 821.846 23.8502 820.443 21.6456C822.848 21.6456 824.852 15.6329 825.554 12.6266C822.908 18.3987 817.837 18.2384 815.633 17.4367C817.837 15.3323 822.668 10.2215 824.351 6.61392Z" fill="#1C9045"/>
<path d="M878.691 28.9066C879.954 26.258 884.553 24.4186 885.681 24.0508C886.808 24.4186 891.408 26.258 892.671 28.9066C893.933 31.5552 897.556 35.3074 899.209 36.8524C897.556 37.441 893.753 37.5587 891.769 33.3209C892.295 35.5281 893.798 39.9425 895.602 39.9425C894.549 41.5611 891.678 42.5911 888.612 33.7624C888.687 35.6753 886.943 40.428 885.681 41.4875C884.418 40.428 882.674 35.6753 882.75 33.7624C879.683 42.5911 876.812 41.5611 875.76 39.9425C877.564 39.9425 879.067 35.5281 879.593 33.3209C877.609 37.5587 873.806 37.441 872.152 36.8524C873.806 35.3074 877.428 31.5552 878.691 28.9066Z" fill="#1C9045"/>
</svg>
