<svg width="931" height="65" viewBox="0 0 931 65" fill="none" xmlns="http://www.w3.org/2000/svg">
<path d="M847.713 37.0107C846.264 48.9186 847.31 59.5391 845.098 63.3609H856.362C854.753 60.1425 854.216 44.1179 853.546 37.0107V29.7695L851.132 2.61475H848.517L847.713 29.7695V37.0107Z" fill="#1C9045" stroke="#1C9045"/>
<path d="M883.063 43.8431C881.977 52.7542 882.761 60.702 881.102 63.562H889.55C888.343 61.1536 887.941 49.1617 887.438 43.8431V38.4241L885.627 18.103H883.666L883.063 38.4241V43.8431Z" fill="#1C9045" stroke="#1C9045"/>
<path d="M828 34.3961C832.828 33.9134 837.253 29.7698 838.862 27.7583C842.911 29.6895 845.543 30.2112 850.73 30.1721C856.613 30.1205 859.371 29.6519 862.798 27.7583C864.407 29.7698 868.833 33.9134 873.66 34.3961C870.978 34.9996 864.81 35.3616 861.591 31.9824L865.413 37.8156C863.331 37.5843 859.425 36.4055 858.286 33.505L859.178 37.8156C857.568 37.2792 853.988 35.3616 852.54 31.9824L850.73 37.8156L849.12 31.9824C847.672 35.3616 844.092 37.2792 842.483 37.8156L843.374 33.505C842.236 36.4055 838.329 37.5843 836.247 37.8156L840.069 31.9824C836.85 35.3616 830.682 34.9996 828 34.3961Z" fill="#1C9045"/>
<path d="M868.23 41.6531C871.846 41.2863 875.16 38.1371 876.365 36.6084C879.397 38.0761 881.368 38.4726 885.253 38.4429C889.659 38.4037 891.724 38.0476 894.291 36.6084C895.496 38.1371 898.81 41.2863 902.425 41.6531C900.417 42.1118 895.797 42.3869 893.387 39.8187L896.249 44.2519C894.69 44.0762 891.764 43.1803 890.911 40.9759L891.579 44.2519C890.374 43.8443 887.693 42.3869 886.608 39.8187L885.253 44.2519L884.047 39.8187C882.963 42.3869 880.282 43.8443 879.076 44.2519L879.744 40.9759C878.891 43.1803 875.966 44.0762 874.407 44.2519L877.269 39.8187C874.859 42.3869 870.239 42.1118 868.23 41.6531Z" fill="#1C9045"/>
<path d="M832.828 22.7296C836.571 22.2469 840.002 18.1033 841.25 16.0918C844.389 18.023 846.43 18.5447 850.451 18.5055C855.013 18.454 857.151 17.9854 859.808 16.0918C861.056 18.1033 864.487 22.2469 868.23 22.7296C866.15 23.3331 861.368 23.6951 858.873 20.3159L861.836 26.1491C860.518 25.9603 857.367 25.7338 855.774 24.0789L857.001 26.1491C855.753 25.6127 853.726 26.1491 851.855 23.9365L850.451 29.7697L849.203 23.9365C847.488 25.7468 845.304 25.6127 844.057 26.1491L845.244 23.7836C843.822 25.7081 840.615 25.9496 839.222 26.1491L842.185 20.3159C839.69 23.6951 834.908 23.3331 832.828 22.7296Z" fill="#1C9045"/>
<path d="M871.848 33.0414C874.655 32.6864 877.228 29.6397 878.164 28.1606C880.518 29.5806 882.049 29.9642 885.065 29.9355C888.486 29.8976 890.09 29.553 892.083 28.1606C893.019 29.6397 895.592 32.6864 898.399 33.0414C896.839 33.4851 893.252 33.7513 891.381 31.2666L893.603 35.5557C892.615 35.4169 890.252 35.2504 889.057 34.0335L889.977 35.5557C889.042 35.1613 887.521 35.5557 886.118 33.9288L885.065 38.2179L884.129 33.9288C882.842 35.2599 881.205 35.1613 880.269 35.5557L881.159 33.8164C880.093 35.2314 877.687 35.409 876.643 35.5557L878.866 31.2666C876.994 33.7513 873.407 33.4851 871.848 33.0414Z" fill="#1C9045"/>
<path d="M844.294 4.42521C845.421 2.01146 849.524 0.335243 850.53 0C851.535 0.335243 855.639 2.01146 856.765 4.42521C857.892 6.83897 861.123 10.2585 862.598 11.6665C861.123 12.2029 857.731 12.3101 855.961 8.44814C856.43 10.4596 857.771 14.4825 859.38 14.4825C858.441 15.9576 855.88 16.8963 853.145 8.85043C853.212 10.5937 851.656 14.925 850.53 15.8905C849.403 14.925 847.848 10.5937 847.915 8.85043C845.179 16.8963 842.618 15.9576 841.679 14.4825C843.288 14.4825 844.629 10.4596 845.099 8.44814C843.329 12.3101 839.936 12.2029 838.461 11.6665C839.936 10.2585 843.168 6.83897 844.294 4.42521Z" fill="#1C9045"/>
<path d="M880.648 19.3407C881.493 17.5686 884.571 16.3379 885.325 16.0918C886.079 16.3379 889.157 17.5686 890.002 19.3407C890.846 21.1128 893.27 23.6233 894.377 24.6571C893.27 25.0509 890.726 25.1296 889.398 22.2942C889.75 23.771 890.756 26.7245 891.963 26.7245C891.259 27.8075 889.338 28.4967 887.286 22.5896C887.336 23.8694 886.17 27.0494 885.325 27.7583C884.48 27.0494 883.314 23.8694 883.364 22.5896C881.312 28.4967 879.391 27.8075 878.687 26.7245C879.894 26.7245 880.9 23.771 881.252 22.2942C879.924 25.1296 877.38 25.0509 876.273 24.6571C877.38 23.6233 879.804 21.1128 880.648 19.3407Z" fill="#1C9045"/>
<path d="M0.5 63.5H930.5V64.5H0.5V63.5Z" fill="#1C9045" stroke="#1C9045"/>
</svg>
