<svg width="753" height="75" viewBox="0 0 753 75" fill="none" xmlns="http://www.w3.org/2000/svg">
<path d="M75.5 27C93.1 33 107.167 44.8334 112 50C140.4 40.8001 164.167 44.1667 172.5 47C184.5 32.2 183.833 20.1667 182 16C182 22.8 173 26.1667 168.5 27C174.5 19.0001 166 9.00002 161 5C165.4 9 156.167 19.3333 151 24C147.8 6.8 133.333 0.833333 126.5 0C133.7 3.6 132.833 19.5 131.5 27C116.3 11.0001 103.5 7.33335 99 7.49998C108.2 9.49998 111.5 24 112 31C96.8 22.6 81.3333 24.8334 75.5 27Z" fill="#EAFBF0"/>
<path d="M404 27C421.6 33 435.667 44.8334 440.5 50C468.9 40.8001 492.667 44.1667 501 47C513 32.2 512.333 20.1667 510.5 16C510.5 22.8 501.5 26.1667 497 27C503 19.0001 494.5 9.00002 489.5 5C493.9 9 484.667 19.3333 479.5 24C476.3 6.8 461.833 0.833333 455 0C462.2 3.6 461.333 19.5 460 27C444.8 11.0001 432 7.33335 427.5 7.49998C436.7 9.49998 440 24 440.5 31C425.3 22.6 409.833 24.8334 404 27Z" fill="#EAFBF0"/>
<path d="M238 27C255.6 33 269.667 44.8334 274.5 50C302.9 40.8001 326.667 44.1667 335 47C347 32.2 346.333 20.1667 344.5 16C344.5 22.8 335.5 26.1667 331 27C337 19.0001 328.5 9.00002 323.5 5C327.9 9 318.667 19.3333 313.5 24C310.3 6.8 295.833 0.833333 289 0C296.2 3.6 295.333 19.5 294 27C278.8 11.0001 266 7.33335 261.5 7.49998C270.7 9.49998 274 24 274.5 31C259.3 22.6 243.833 24.8334 238 27Z" fill="#EAFBF0"/>
<path d="M566.5 27C584.1 33 598.167 44.8334 603 50C631.4 40.8001 655.167 44.1667 663.5 47C675.5 32.2 674.833 20.1667 673 16C673 22.8 664 26.1667 659.5 27C665.5 19.0001 657 9.00002 652 5C656.4 9 647.167 19.3333 642 24C638.8 6.8 624.333 0.833333 617.5 0C624.7 3.6 623.833 19.5 622.5 27C607.3 11.0001 594.5 7.33335 590 7.49998C599.2 9.49998 602.5 24 603 31C587.8 22.6 572.333 24.8334 566.5 27Z" fill="#EAFBF0"/>
<path d="M0 51.5C17.6 57.5 31.6667 69.3334 36.5 74.5C64.9 65.3001 88.6667 68.6667 97 71.5C109 56.7 108.333 44.6667 106.5 40.5C106.5 47.3 97.5 50.6667 93 51.5C99 43.5001 90.5 33.5 85.5 29.5C89.9 33.5 80.6667 43.8333 75.5 48.5C72.3 31.3 57.8333 25.3333 51 24.5C58.2 28.1 57.3333 44 56 51.5C40.8 35.5001 28 31.8333 23.5 32C32.7 34 36 48.5 36.5 55.5C21.3 47.1 5.83333 49.3334 0 51.5Z" fill="#BCDDC8"/>
<path d="M153.5 43C171.1 49 185.167 60.8334 190 66C218.4 56.8001 242.167 60.1667 250.5 63C262.5 48.2 261.833 36.1667 260 32C260 38.8 251 42.1667 246.5 43C252.5 35.0001 244 25 239 21C243.4 25 234.167 35.3333 229 40C225.8 22.8 211.333 16.8333 204.5 16C211.7 19.6 210.833 35.5 209.5 43C194.3 27.0001 181.5 23.3333 177 23.5C186.2 25.5 189.5 40 190 47C174.8 38.6 159.333 40.8334 153.5 43Z" fill="#BCDDC8"/>
<path d="M482 43C499.6 49 513.667 60.8334 518.5 66C546.9 56.8001 570.667 60.1667 579 63C591 48.2 590.333 36.1667 588.5 32C588.5 38.8 579.5 42.1667 575 43C581 35.0001 572.5 25 567.5 21C571.9 25 562.667 35.3333 557.5 40C554.3 22.8 539.833 16.8333 533 16C540.2 19.6 539.333 35.5 538 43C522.8 27.0001 510 23.3333 505.5 23.5C514.7 25.5 518 40 518.5 47C503.3 38.6 487.833 40.8334 482 43Z" fill="#BCDDC8"/>
<path d="M316 43C333.6 49 347.667 60.8334 352.5 66C380.9 56.8001 404.667 60.1667 413 63C425 48.2 424.333 36.1667 422.5 32C422.5 38.8 413.5 42.1667 409 43C415 35.0001 406.5 25 401.5 21C405.9 25 396.667 35.3333 391.5 40C388.3 22.8 373.833 16.8333 367 16C374.2 19.6 373.333 35.5 372 43C356.8 27.0001 344 23.3333 339.5 23.5C348.7 25.5 352 40 352.5 47C337.3 38.6 321.833 40.8334 316 43Z" fill="#BCDDC8"/>
<path d="M644.5 43C662.1 49 676.167 60.8334 681 66C709.4 56.8001 733.167 60.1667 741.5 63C753.5 48.2 752.833 36.1667 751 32C751 38.8 742 42.1667 737.5 43C743.5 35.0001 735 25 730 21C734.4 25 725.167 35.3333 720 40C716.8 22.8 702.333 16.8333 695.5 16C702.7 19.6 701.833 35.5 700.5 43C685.3 27.0001 672.5 23.3333 668 23.5C677.2 25.5 680.5 40 681 47C665.8 38.6 650.333 40.8334 644.5 43Z" fill="#BCDDC8"/>
</svg>
