<svg width="74" height="73" viewBox="0 0 74 73" fill="none" xmlns="http://www.w3.org/2000/svg">
<mask id="mask0_423_16843" style="mask-type:luminance" maskUnits="userSpaceOnUse" x="0" y="0" width="74" height="73">
<path d="M0.5 0H73.5V73H0.5V0Z" fill="white"/>
</mask>
<g mask="url(#mask0_423_16843)">
<path d="M37.4037 70.673C19.5415 70.673 5.01562 56.2441 5.01562 38.5074C5.01562 20.7707 19.5472 6.3418 37.4037 6.3418C55.2602 6.3418 69.7917 20.7707 69.7917 38.5074C69.7917 56.2441 55.2659 70.673 37.4037 70.673ZM37.4037 9.61539C21.1954 9.61539 8.00406 22.5786 8.00406 38.5131C8.00406 54.4477 21.1897 67.4052 37.4037 67.4052C53.612 67.4052 66.8033 54.442 66.8033 38.5131C66.8033 22.5786 53.6177 9.61539 37.4037 9.61539Z" fill="black"/>
<path d="M31.3145 64.0469H42.9032V69.7671H31.3145V64.0469Z" fill="black"/>
<path d="M72.0226 34.2591C72.0055 34.0481 70.728 34.3846 70.0778 32.052C67.808 23.9365 61.1924 4.29492 37.0054 4.29492L36.9997 4.83672L36.994 4.29492C12.7386 4.29492 6.78456 23.1951 4.52042 31.4646C3.81894 34.0139 1.99964 34.0367 1.97683 34.2648C1.78292 36.375 3.9387 39.352 8.71222 42.2891C15.7841 46.6349 27.9032 48.9732 36.994 48.9789H37.0054C46.0962 48.9789 58.2153 46.6349 65.2872 42.2891C70.0607 39.352 72.2165 36.375 72.0226 34.2591Z" fill="#FDF9A0"/>
<path d="M30.8561 4.16402L31.4777 3.98152C35.0707 2.93214 38.8975 2.99488 42.4562 4.16402L49.9616 36.2669L49.7905 36.3011C41.3596 38.0282 32.6664 38.0301 24.2348 36.3068L24.0352 36.2669L30.8561 4.16402Z" fill="#F8F4A5"/>
<path d="M35.0898 18.7422H38.9052V32.732H35.0898V18.7422Z" fill="#1C9045"/>
<path d="M29.3691 23.834H44.6307V28.2881H29.3691V23.834Z" fill="#1C9045"/>
<path d="M4.85664 30.2563C4.85664 30.2563 2.24461 31.819 1.97656 34.2599L4.18367 35.1667L4.85664 30.2563ZM69.1537 29.8457C69.1537 29.8457 71.5775 31.2259 72.0338 34.2827L69.8266 35.1895L69.1537 29.8457Z" fill="#FDF9A0"/>
<path d="M72.0334 34.4477L67.7618 35.7423C46.991 41.8219 25.6499 41.7021 4.91336 35.3887L1.96484 34.499L2.0675 33.866C2.11688 33.5684 2.22985 33.2849 2.39871 33.0349C2.56757 32.7848 2.78834 32.5742 3.04599 32.4172C3.30364 32.2602 3.5921 32.1607 3.89172 32.1253C4.19133 32.0899 4.49505 32.1195 4.78219 32.2121L4.91336 32.252C25.6499 38.5654 46.9967 38.6851 67.7618 32.6056L69.2959 32.1379C70.4822 31.7787 71.7141 32.5429 71.9194 33.7633L72.0334 34.4477Z" fill="#F8F4A5"/>
</g>
</svg>
