<svg width="116" height="188" viewBox="0 0 116 188" fill="none" xmlns="http://www.w3.org/2000/svg">
<g filter="url(#filter0_d_453_15779)">
<rect x="50.1367" y="104.238" width="29.4545" height="6.26692" fill="#BCDDC8"/>
<rect x="28.333" y="89.7207" width="4.72218" height="22.0368" fill="#D9D9D9"/>
<rect x="28.6191" y="110.508" width="79.381" height="2.71567" fill="#4F4F4F"/>
<rect x="16.085" y="113.221" width="84.6034" height="56.8201" fill="#BCDDC8"/>
<rect x="32.1699" y="84.1875" width="47.4197" height="20.0541" fill="#BDBDBD"/>
<rect x="80.4248" y="84.1875" width="27.5745" height="20.0541" fill="#BDBDBD"/>
<rect x="80.4248" y="104.238" width="27.5745" height="6.26692" fill="#BCDDC8"/>
<rect x="36.1387" y="90.2441" width="6.26692" height="6.68472" fill="#F2994A"/>
<rect x="36.1387" y="84.6035" width="6.26692" height="5.64023" fill="#4F4F4F"/>
<path fill-rule="evenodd" clip-rule="evenodd" d="M43.4517 91.916H42.4072V96.9296H43.4517V91.916ZM43.4501 96.9303H36.1387V104.242H43.4501V96.9303Z" fill="#F2C94C"/>
<rect x="37.1846" y="97.9727" width="5.43133" height="6.26692" fill="#E0E0E0"/>
<rect x="42.4043" y="82.9336" width="1.04449" height="8.98259" fill="#828282"/>
<rect x="86.0664" y="35.7246" width="2.29787" height="47.0019" fill="#4F4F4F"/>
<rect x="77.083" y="54.5195" width="6.26692" height="30.7079" fill="#F2994A"/>
<circle cx="9.71373" cy="112.282" r="9.71373" fill="#BCDDC8"/>
<circle cx="9.50384" cy="112.281" r="6.70696" stroke="#4F4F4F"/>
<circle cx="9.50462" cy="112.284" r="4.82688" stroke="#4F4F4F"/>
<circle cx="9.61083" cy="112.389" r="3.05126" stroke="#4F4F4F"/>
<rect x="8.14746" y="104.033" width="3.13346" height="7.31141" fill="#BCDDC8"/>
<rect x="8.21191" y="111.34" width="3.13346" height="7.31141" transform="rotate(60 8.21191 111.34)" fill="#BCDDC8"/>
<rect width="3.13346" height="7.31141" transform="matrix(-0.5 0.866025 0.866025 0.5 11.3838 111.34)" fill="#BCDDC8"/>
<rect x="16.085" y="69.9805" width="12.5338" height="54.1044" fill="#4F4F4F"/>
<rect x="16.085" y="51.8086" width="12.5338" height="18.1741" fill="#828282"/>
<path d="M16.085 10C16.085 4.47715 20.5621 0 26.085 0H88.1816C93.7045 0 98.1816 4.47715 98.1816 10V54.5222H16.085V10Z" fill="#BCDDC8"/>
<rect x="97.9727" y="45.1211" width="3.34236" height="7.7292" fill="#4F4F4F"/>
<rect x="101.314" y="46.582" width="4.17795" height="2.50677" fill="#4F4F4F"/>
<rect x="105.493" y="41.5703" width="2.50677" height="12.7427" fill="#4F4F4F"/>
<rect x="51.599" y="32.7963" width="2.92456" height="2.92456" rx="1.46228" fill="#828282" stroke="#4F4F4F" stroke-width="2.92456"/>
<rect x="83.3516" y="78.1289" width="5.43133" height="3.34236" fill="#4F4F4F"/>
<rect x="16.085" y="158.971" width="12.5338" height="11.0716" fill="#BCDDC8"/>
<rect x="16.085" y="170.041" width="13.5783" height="9.40038" fill="#BCDDC8"/>
<rect x="87.3174" y="170.041" width="13.5783" height="9.40038" fill="#BCDDC8"/>
<circle cx="19.6381" cy="60.1635" r="1.46228" fill="#D9D9D9"/>
<circle cx="19.6381" cy="63.9232" r="1.46228" fill="#D9D9D9"/>
<circle cx="23.8129" cy="60.1635" r="1.46228" fill="#D9D9D9"/>
<circle cx="23.8129" cy="63.9232" r="1.46228" fill="#D9D9D9"/>
<rect x="79.3828" y="85.2305" width="1.04449" height="10.8627" fill="#4F4F4F"/>
<rect x="32.252" y="104.738" width="17.383" height="10.9072" fill="#BCDDC8" stroke="#828282"/>
<circle cx="40.8381" cy="112.49" r="6.08027" stroke="#828282"/>
<circle cx="34.1548" cy="106.85" r="0.648936" fill="#828282" stroke="#828282"/>
<circle cx="47.313" cy="106.85" r="0.648936" fill="#828282" stroke="#828282"/>
<circle cx="40.841" cy="112.701" r="1.98453" fill="#828282"/>
<rect x="39.8984" y="106.328" width="2.08897" height="6.26692" fill="#828282"/>
<rect x="46.7881" y="114.686" width="2.08897" height="6.26692" transform="rotate(120 46.7881 114.686)" fill="#828282"/>
<rect width="2.08897" height="6.26692" transform="matrix(0.5 0.866025 0.866025 -0.5 35.0938 114.686)" fill="#828282"/>
<rect x="97.9727" y="25.4863" width="2.71567" height="6.89361" fill="#828282"/>
</g>
<defs>
<filter id="filter0_d_453_15779" x="0" y="0" width="116" height="187.441" filterUnits="userSpaceOnUse" color-interpolation-filters="sRGB">
<feFlood flood-opacity="0" result="BackgroundImageFix"/>
<feColorMatrix in="SourceAlpha" type="matrix" values="0 0 0 0 0 0 0 0 0 0 0 0 0 0 0 0 0 0 127 0" result="hardAlpha"/>
<feOffset dx="4" dy="4"/>
<feGaussianBlur stdDeviation="2"/>
<feComposite in2="hardAlpha" operator="out"/>
<feColorMatrix type="matrix" values="0 0 0 0 0.97125 0 0 0 0 0.958217 0 0 0 0 0.645417 0 0 0 1 0"/>
<feBlend mode="normal" in2="BackgroundImageFix" result="effect1_dropShadow_453_15779"/>
<feBlend mode="normal" in="SourceGraphic" in2="effect1_dropShadow_453_15779" result="shape"/>
</filter>
</defs>
</svg>
