<svg width="101" height="174" viewBox="0 0 101 174" fill="none" xmlns="http://www.w3.org/2000/svg">
<g filter="url(#filter0_d_453_16369)">
<path d="M83.5362 135.708C77.1689 130.717 70.4144 130.76 67.833 131.405C51.6567 131.405 43.7404 142.018 41.8043 147.324C53.8506 140.096 74.6449 142.448 83.5362 144.527C87.4943 142.806 85.1854 137.93 83.5362 135.708Z" fill="#EB5757"/>
<path d="M83.9951 136.05C81.7385 133.184 79.9938 131.547 71.7337 128.306C69.3675 127.479 71.0884 127.479 60.9781 128.306C48.3824 129.336 40.901 141.356 38.1762 146.16L41.618 147.451L63.5595 133.502L71.7337 133.038L83.9951 136.05Z" fill="#F2994A"/>
<path d="M70.0139 144.686C73.1115 147.095 74.3161 145.69 74.5312 144.686L31.0786 30.246C27.981 26.2879 26.5612 28.5968 25.7008 30.246L70.0139 144.686Z" fill="#E0E0E0"/>
<path fill-rule="evenodd" clip-rule="evenodd" d="M75.0155 146.797C74.7531 146.518 74.3104 146.518 74.048 146.797C73.8082 147.052 73.4119 147.077 73.1418 146.854L73.0116 146.747C72.7427 146.525 72.3419 146.581 72.1431 146.867C71.9587 147.132 71.5965 147.202 71.3264 147.025L71.0162 146.821C70.752 146.647 70.3953 146.749 70.2619 147.035C70.1367 147.305 69.8114 147.414 69.5492 147.274L69.063 147.016C68.8084 146.881 68.4947 147.022 68.4257 147.301C68.3602 147.567 68.0721 147.71 67.821 147.602L67.1823 147.327C66.9378 147.222 66.6641 147.396 66.6552 147.662C66.6466 147.916 66.3941 148.09 66.1536 148.006L65.4003 147.745C65.1637 147.663 64.9263 147.866 64.9704 148.112C65.0128 148.35 64.7934 148.55 64.561 148.486L63.7384 148.26C63.5068 148.197 63.3021 148.425 63.3903 148.649C63.4756 148.864 63.2866 149.089 63.0594 149.041L62.2137 148.863C61.9844 148.815 61.8092 149.065 61.9327 149.264C62.0525 149.457 61.8912 149.701 61.6667 149.667L60.8401 149.542C60.6113 149.508 60.4628 149.776 60.6138 149.952C60.7605 150.122 60.6246 150.384 60.4009 150.362L59.6296 150.288C59.3998 150.266 59.2757 150.55 59.4481 150.704C59.6158 150.853 59.5034 151.13 59.2791 151.12L58.5923 151.09C58.3606 151.08 58.2589 151.379 58.4485 151.512C58.633 151.642 58.5424 151.932 58.3167 151.934L57.7372 151.939C57.5026 151.941 57.4219 152.252 57.6259 152.368C57.8245 152.481 57.7544 152.783 57.5265 152.796L57.0715 152.824C56.8332 152.838 56.7725 153.162 56.9894 153.261C57.2004 153.358 57.1502 153.672 56.9194 153.698L56.6007 153.734C56.3577 153.762 56.3168 154.097 56.546 154.183C56.7687 154.265 56.7382 154.59 56.5039 154.629L56.3282 154.659C56.0798 154.701 56.0589 155.05 56.3004 155.122C56.5348 155.191 56.5244 155.527 56.2861 155.582L56.2554 155.589C56.0008 155.647 56.0008 156.01 56.2554 156.068L56.2861 156.075C56.5244 156.13 56.5348 156.466 56.3004 156.535C56.0589 156.607 56.0798 156.955 56.3282 156.998L56.5039 157.027C56.7382 157.067 56.7687 157.391 56.546 157.474C56.3168 157.559 56.3577 157.895 56.6007 157.923L56.9194 157.959C57.1502 157.985 57.2004 158.298 56.9894 158.396C56.7725 158.495 56.8332 158.819 57.0715 158.833L57.5265 158.86C57.7544 158.874 57.8245 159.176 57.6259 159.289C57.4219 159.405 57.5026 159.716 57.7372 159.718L58.3167 159.723C58.5424 159.724 58.633 160.015 58.4485 160.145C58.2589 160.278 58.3606 160.577 58.5923 160.566L59.2791 160.536C59.5034 160.527 59.6158 160.804 59.4481 160.953C59.2757 161.106 59.3998 161.391 59.6296 161.369L60.4009 161.294C60.6246 161.273 60.7605 161.535 60.6138 161.705C60.4628 161.881 60.6113 162.149 60.8401 162.115L61.6667 161.989C61.8912 161.955 62.0525 162.2 61.9327 162.393C61.8092 162.592 61.9844 162.842 62.2137 162.794L63.0594 162.616C63.2866 162.568 63.4756 162.792 63.3903 163.008C63.3021 163.232 63.5068 163.46 63.7384 163.396L64.561 163.171C64.7934 163.107 65.0128 163.307 64.9704 163.544C64.9263 163.791 65.1637 163.994 65.4003 163.912L66.1536 163.651C66.3941 163.567 66.6466 163.741 66.6552 163.995C66.6641 164.261 66.9378 164.435 67.1823 164.33L67.821 164.055C68.0721 163.947 68.3602 164.09 68.4257 164.355C68.4947 164.635 68.8084 164.775 69.063 164.64L69.5492 164.382C69.8114 164.243 70.1367 164.352 70.2619 164.621C70.3953 164.908 70.752 165.009 71.0162 164.836L71.3264 164.632C71.5965 164.455 71.9587 164.525 72.1431 164.79C72.3419 165.076 72.7427 165.132 73.0116 164.91L73.1418 164.803C73.4119 164.58 73.8082 164.605 74.048 164.86C74.3104 165.139 74.7531 165.139 75.0155 164.86C75.2553 164.605 75.6516 164.58 75.9217 164.803L76.0519 164.91C76.3208 165.132 76.7216 165.076 76.9204 164.79C77.1048 164.525 77.467 164.455 77.7371 164.632L78.0473 164.836C78.3115 165.009 78.6682 164.908 78.8016 164.621C78.9268 164.352 79.2521 164.243 79.5143 164.382L80.0005 164.64C80.2551 164.775 80.5688 164.635 80.6378 164.355C80.7033 164.09 80.9914 163.947 81.2425 164.055L81.8812 164.33C82.1257 164.435 82.3994 164.261 82.4083 163.995C82.4169 163.741 82.6694 163.567 82.9099 163.651L83.6632 163.912C83.8998 163.994 84.1372 163.791 84.0931 163.544C84.0507 163.307 84.2701 163.107 84.5025 163.171L85.3251 163.396C85.5567 163.46 85.7614 163.232 85.6732 163.008C85.5879 162.792 85.7769 162.568 86.0041 162.616L86.8498 162.794C87.0791 162.842 87.2543 162.592 87.1308 162.393C87.011 162.2 87.1723 161.955 87.3968 161.989L88.2234 162.115C88.4522 162.149 88.6007 161.881 88.4497 161.705C88.303 161.535 88.4389 161.273 88.6626 161.294L89.4339 161.369C89.6637 161.391 89.7878 161.106 89.6154 160.953C89.4477 160.804 89.5601 160.527 89.7844 160.536L90.4712 160.566C90.7029 160.577 90.8046 160.278 90.615 160.145C90.4305 160.015 90.5211 159.724 90.7468 159.723L91.3263 159.718C91.5609 159.716 91.6416 159.405 91.4376 159.289C91.239 159.176 91.3091 158.874 91.537 158.86L91.992 158.833C92.2303 158.819 92.291 158.495 92.0741 158.396C91.8631 158.298 91.9133 157.985 92.1441 157.959L92.4628 157.923C92.7058 157.895 92.7467 157.559 92.5176 157.474C92.2948 157.391 92.3253 157.067 92.5596 157.027L92.7353 156.998C92.9837 156.955 93.0046 156.607 92.7631 156.535C92.5287 156.466 92.5391 156.13 92.7774 156.075L92.8081 156.068C93.0627 156.01 93.0627 155.647 92.8081 155.589L92.7774 155.582C92.5391 155.527 92.5287 155.191 92.7631 155.122C93.0046 155.05 92.9837 154.701 92.7353 154.659L92.5596 154.629C92.3253 154.59 92.2948 154.265 92.5176 154.183C92.7467 154.097 92.7058 153.762 92.4628 153.734L92.1441 153.698C91.9133 153.672 91.8631 153.358 92.0741 153.261C92.291 153.162 92.2303 152.838 91.992 152.824L91.537 152.796C91.3091 152.783 91.239 152.481 91.4376 152.368C91.6416 152.252 91.5609 151.941 91.3263 151.939L90.7468 151.934C90.5211 151.932 90.4305 151.642 90.615 151.512C90.8046 151.379 90.7029 151.08 90.4712 151.09L89.7844 151.12C89.5601 151.13 89.4477 150.853 89.6154 150.704C89.7878 150.55 89.6637 150.266 89.4339 150.288L88.6626 150.362C88.4389 150.384 88.303 150.122 88.4497 149.952C88.6007 149.776 88.4522 149.508 88.2234 149.542L87.3968 149.667C87.1723 149.701 87.011 149.457 87.1308 149.264C87.2543 149.065 87.0791 148.815 86.8498 148.863L86.0041 149.041C85.7769 149.089 85.5879 148.864 85.6732 148.649C85.7614 148.425 85.5567 148.197 85.3251 148.26L84.5025 148.486C84.2701 148.55 84.0507 148.35 84.0931 148.112C84.1372 147.866 83.8998 147.663 83.6632 147.745L82.9099 148.006C82.6694 148.09 82.4169 147.916 82.4083 147.662C82.3994 147.396 82.1257 147.222 81.8812 147.327L81.2425 147.602C80.9914 147.71 80.7033 147.567 80.6378 147.301C80.5688 147.022 80.2551 146.881 80.0005 147.016L79.5143 147.274C79.2521 147.414 78.9268 147.305 78.8016 147.035C78.6682 146.749 78.3115 146.647 78.0473 146.821L77.7371 147.025C77.467 147.202 77.1048 147.132 76.9204 146.867C76.7216 146.581 76.3208 146.525 76.0519 146.747L75.9217 146.854C75.6516 147.077 75.2553 147.052 75.0155 146.797ZM72.8521 150.111C72.8521 150.547 73.6042 150.9 74.5321 150.9C75.4599 150.9 76.212 150.547 76.212 150.111C76.212 149.675 75.4599 149.322 74.5321 149.322C73.6042 149.322 72.8521 149.675 72.8521 150.111ZM74.5321 160.367C73.6042 160.367 72.8521 160.014 72.8521 159.578C72.8521 159.142 73.6042 158.789 74.5321 158.789C75.4599 158.789 76.212 159.142 76.212 159.578C76.212 160.014 75.4599 160.367 74.5321 160.367ZM61.937 154.844C61.937 155.279 62.6892 155.633 63.617 155.633C64.5448 155.633 65.2969 155.279 65.2969 154.844C65.2969 154.408 64.5448 154.055 63.617 154.055C62.6892 154.055 61.937 154.408 61.937 154.844ZM66.9773 159.577C66.0495 159.577 65.2974 159.224 65.2974 158.788C65.2974 158.352 66.0495 157.999 66.9773 157.999C67.9051 157.999 68.6573 158.352 68.6573 158.788C68.6573 159.224 67.9051 159.577 66.9773 159.577ZM65.2974 151.689C65.2974 152.125 66.0495 152.478 66.9773 152.478C67.9051 152.478 68.6573 152.125 68.6573 151.689C68.6573 151.254 67.9051 150.9 66.9773 150.9C66.0495 150.9 65.2974 151.254 65.2974 151.689ZM82.106 159.577C81.1782 159.577 80.426 159.224 80.426 158.788C80.426 158.352 81.1782 157.999 82.106 157.999C83.0338 157.999 83.7859 158.352 83.7859 158.788C83.7859 159.224 83.0338 159.577 82.106 159.577ZM80.426 151.689C80.426 152.125 81.1782 152.478 82.106 152.478C83.0338 152.478 83.7859 152.125 83.7859 151.689C83.7859 151.254 83.0338 150.9 82.106 150.9C81.1782 150.9 80.426 151.254 80.426 151.689ZM85.4563 155.633C84.5285 155.633 83.7764 155.279 83.7764 154.844C83.7764 154.408 84.5285 154.055 85.4563 154.055C86.3841 154.055 87.1363 154.408 87.1363 154.844C87.1363 155.279 86.3841 155.633 85.4563 155.633Z" fill="#E0E0E0"/>
<path fill-rule="evenodd" clip-rule="evenodd" d="M58.2405 155.121C58.2405 159.476 65.5339 163.006 74.5309 163.006C83.5278 163.006 90.8213 159.476 90.8213 155.121C90.8213 150.767 83.5278 147.236 74.5309 147.236C65.5339 147.236 58.2405 150.767 58.2405 155.121ZM72.9104 149.967C72.9104 150.389 73.6264 150.731 74.5097 150.731C75.393 150.731 76.109 150.389 76.109 149.967C76.109 149.545 75.393 149.204 74.5097 149.204C73.6264 149.204 72.9104 149.545 72.9104 149.967ZM74.5097 159.895C73.6264 159.895 72.9104 159.553 72.9104 159.131C72.9104 158.709 73.6264 158.367 74.5097 158.367C75.393 158.367 76.109 158.709 76.109 159.131C76.109 159.553 75.393 159.895 74.5097 159.895ZM62.5219 154.55C62.5219 154.972 63.2379 155.314 64.1212 155.314C65.0045 155.314 65.7205 154.972 65.7205 154.55C65.7205 154.128 65.0045 153.786 64.1212 153.786C63.2379 153.786 62.5219 154.128 62.5219 154.55ZM67.3157 159.131C66.4324 159.131 65.7164 158.789 65.7164 158.368C65.7164 157.946 66.4324 157.604 67.3157 157.604C68.199 157.604 68.915 157.946 68.915 158.368C68.915 158.789 68.199 159.131 67.3157 159.131ZM65.7164 151.494C65.7164 151.915 66.4324 152.257 67.3157 152.257C68.199 152.257 68.915 151.915 68.915 151.494C68.915 151.072 68.199 150.73 67.3157 150.73C66.4324 150.73 65.7164 151.072 65.7164 151.494ZM81.7136 159.131C80.8304 159.131 80.1143 158.789 80.1143 158.368C80.1143 157.946 80.8304 157.604 81.7136 157.604C82.5969 157.604 83.313 157.946 83.313 158.368C83.313 158.789 82.5969 159.131 81.7136 159.131ZM80.1143 151.494C80.1143 151.915 80.8304 152.257 81.7136 152.257C82.5969 152.257 83.313 151.915 83.313 151.494C83.313 151.072 82.5969 150.73 81.7136 150.73C80.8304 150.73 80.1143 151.072 80.1143 151.494ZM84.9123 155.314C84.0291 155.314 83.313 154.972 83.313 154.55C83.313 154.128 84.0291 153.786 84.9123 153.786C85.7956 153.786 86.5117 154.128 86.5117 154.55C86.5117 154.972 85.7956 155.314 84.9123 155.314Z" fill="#BDBDBD"/>
<path d="M80.5557 155.013L78.8348 152.002V147.699C78.3929 147.307 77.4265 146.806 76.2534 146.972L74.5325 144.473C72.8116 146.194 70.6605 145.19 69.8 144.473L74.5325 152.002L73.457 155.013C76.5546 156.39 79.4801 155.587 80.5557 155.013Z" fill="#828282"/>
<path d="M5.97014 23.1259C9.2675 29.0305 16.9251 31.0336 23.074 27.5999C29.2228 24.1662 31.5344 16.596 28.237 10.6913C24.9396 4.78666 17.282 2.78358 11.1332 6.21729C4.98435 9.65101 2.67278 17.2212 5.97014 23.1259Z" fill="#EB5757"/>
<path d="M5.97014 23.1259C9.2675 29.0305 16.9251 31.0336 23.074 27.5999C29.2228 24.1662 31.5344 16.596 28.237 10.6913C24.9396 4.78666 17.282 2.78358 11.1332 6.21729C4.98435 9.65101 2.67278 17.2212 5.97014 23.1259Z" stroke="#1C9045"/>
<path d="M33.4447 25.0849V36.0556L37.1016 45.0903L31.2935 46.8112L26.7762 36.916L18.817 37.7765C19.8209 37.2028 14.5148 31.8826 14.5148 28.957C18.1717 28.0967 20.176 27.8814 21.8286 25.0848C24.6251 20.3525 30.6482 23.1488 33.4447 25.0849Z" fill="#828282"/>
<path d="M37.1031 8.08928C40.717 11.7032 36.888 20.9243 34.5218 25.0832C30.736 23.0181 21.6867 26.1587 19.894 27.0192C27.2078 18.1996 19.7506 6.87031 16.6673 5.72305L19.894 2.28125H29.7892L31.7252 5.72305L37.1031 8.08928Z" fill="#EB5757"/>
<path d="M21.744 26.1497C21.744 26.1497 23.1257 22.9327 24.2013 20.6977C25.2768 18.4628 24.0084 10.4961 18.9706 5.92741C12.8003 1.8517 7.8309 6.90862 11.5088 13.898L7.42164 14.5433C6.96405 15.147 6.13097 17.77 7.85273 17.9851L12.155 19.4909C12.155 19.4909 13.8759 27.6652 21.744 26.1497Z" fill="#333333"/>
<path d="M21.744 26.1497C21.744 26.1497 23.1257 22.9327 24.2013 20.6977C25.2768 18.4628 24.0084 10.4961 18.9706 5.92741C12.8003 1.8517 7.8309 6.90862 11.5088 13.898L7.42164 14.5433C6.96405 15.147 6.13097 17.77 7.85272 17.9851L12.155 19.4909C12.155 19.4909 13.8759 27.6652 21.744 26.1497ZM21.744 26.1497C21.8469 30.8136 23.6015 40.873 29.7967 43.7985" stroke="#4F4F4F"/>
<path d="M53.0236 67.4602L59.0471 59.9312C59.5633 59.2811 57.8995 57.8677 57.1107 57.1348L50.8725 64.4486C50.5283 65.4811 49.4384 65.8827 48.9365 65.9544H30.2217C29.1892 65.6102 28.3574 64.8071 28.0706 64.4486L22.9079 57.1348L19.6812 60.1463C21.4738 62.0106 25.3602 66.0834 26.5648 67.4602C27.7694 68.8369 29.5047 69.3245 30.2217 69.3962C35.5278 69.2528 46.6993 69.052 48.9365 69.3962C51.1736 69.7403 52.5934 68.2489 53.0236 67.4602Z" fill="#D9D9D9"/>
<path d="M47.2131 69.1818C48.4177 67.805 46.998 66.457 46.1375 65.9551H39.6841C41.7492 67.5039 41.2616 68.8949 40.7597 69.3969L41.6201 71.1178C43.5131 71.8061 45.8507 71.4046 46.7828 71.1178L46.3526 69.8271L47.2131 69.1818Z" fill="#BDBDBD"/>
<path d="M69.5846 56.0596C74.4032 56.0596 75.1803 53.6934 74.9651 52.6178L70.2301 44.2284C67.6487 43.54 64.8523 46.5229 63.7767 48.1004L57.7536 55.8445H56.0327C56.7211 58.4258 59.1877 60.075 60.3349 60.5769V58.2107L66.5732 51.5422L69.5846 56.0596Z" fill="#4F4F4F"/>
<path d="M24.6289 56.9193L22.908 55.6287L17.3151 47.6695C13.1849 45.9486 11.8656 49.247 11.7222 51.1113L18.8209 59.9309L19.4662 61.6518C22.7359 60.9635 24.2704 58.21 24.6289 56.9193Z" fill="#4F4F4F"/>
<path d="M64.1205 58.4267C67.1534 55.5872 69.0989 55.4151 69.585 56.0605L68.495 54.5547C66.6285 54.5547 64.0232 56.0605 62.9539 56.8134C62.7206 57.8459 63.6344 58.3192 64.1205 58.4267Z" fill="#828282"/>
<path d="M68.0786 127.692C67.3615 127.19 65.4112 126.531 63.3461 127.907L63.7763 128.983L61.6252 129.413C60.9799 130.345 60.3345 132.21 62.9159 132.21L64.8519 131.995L69.7995 144.686C70.875 145.188 73.3704 145.891 74.7471 144.686L69.5844 131.779H71.0902C71.5204 131.206 71.9076 129.843 70.0146 128.983H68.5088L68.0786 127.692Z" fill="#828282"/>
</g>
<defs>
<filter id="filter0_d_453_16369" x="4.46777" y="2.28125" width="96.5312" height="170.787" filterUnits="userSpaceOnUse" color-interpolation-filters="sRGB">
<feFlood flood-opacity="0" result="BackgroundImageFix"/>
<feColorMatrix in="SourceAlpha" type="matrix" values="0 0 0 0 0 0 0 0 0 0 0 0 0 0 0 0 0 0 127 0" result="hardAlpha"/>
<feOffset dx="4" dy="4"/>
<feGaussianBlur stdDeviation="2"/>
<feComposite in2="hardAlpha" operator="out"/>
<feColorMatrix type="matrix" values="0 0 0 0 0.97125 0 0 0 0 0.958217 0 0 0 0 0.645417 0 0 0 1 0"/>
<feBlend mode="normal" in2="BackgroundImageFix" result="effect1_dropShadow_453_16369"/>
<feBlend mode="normal" in="SourceGraphic" in2="effect1_dropShadow_453_16369" result="shape"/>
</filter>
</defs>
</svg>
