<svg width="162" height="239" viewBox="0 0 162 239" fill="none" xmlns="http://www.w3.org/2000/svg">
<path d="M90.4438 84.1864L87.2009 51.7578H139.591L136.888 84.1864H90.4438Z" fill="#EAFBF0" stroke="white"/>
<path d="M82.7484 106.414L103.363 116.999C108.711 116.999 108.563 113.656 107.82 111.985L96.6772 99.7279C95.3401 99.2822 93.8915 96.9422 93.3343 95.8279L92.7772 74.6565C92.2201 69.085 83.8629 65.7422 81.6343 65.7422C79.8515 65.7422 79.0343 67.9708 78.8486 69.085C79.4057 77.9993 80.4084 96.7193 79.9627 100.285C79.517 103.851 81.6341 105.856 82.7484 106.414Z" fill="white" stroke="#EAFBF0"/>
<path d="M144.411 106.414L123.796 116.999C118.448 116.999 118.596 113.656 119.339 111.985L130.482 99.7279C131.819 99.2822 133.268 96.9422 133.825 95.8279L134.382 74.6565C134.939 69.085 143.296 65.7422 145.525 65.7422C147.308 65.7422 148.125 67.9708 148.311 69.085C147.753 77.9993 146.751 96.7193 147.196 100.285C147.642 103.851 145.525 105.856 144.411 106.414Z" fill="white" stroke="#EAFBF0"/>
<circle cx="85.5343" cy="75.7716" r="3.95714" stroke="#EAFBF0"/>
<circle cx="4.45714" cy="4.45714" r="3.95714" transform="matrix(-1 0 0 1 145.706 71.3145)" stroke="#EAFBF0"/>
<circle cx="86.6486" cy="96.9435" r="3.95714" stroke="#EAFBF0"/>
<circle cx="4.45714" cy="4.45714" r="3.95714" transform="matrix(-1 0 0 1 144.592 92.4863)" stroke="#EAFBF0"/>
<path d="M100.582 50.7572L102.138 37.2715H126.3L127.338 50.7572H100.582Z" fill="#EAFBF0" stroke="white"/>
<path d="M91.2005 0.5H136.679C136.995 0.5 137.232 0.790655 137.168 1.10083L129.78 36.9865C129.732 37.2189 129.528 37.3857 129.29 37.3857H98.061C97.8211 37.3857 97.615 37.2153 97.5699 36.9796L90.7094 1.09389C90.6505 0.785679 90.8867 0.5 91.2005 0.5Z" fill="#EAFBF0" stroke="white"/>
<circle cx="96.6768" cy="6.68661" r="2.84286" stroke="white"/>
<circle cx="131.22" cy="6.68661" r="2.84286" stroke="white"/>
<path fill-rule="evenodd" clip-rule="evenodd" d="M146.579 187.65C146.57 187.526 146.415 187.479 146.164 187.402C145.354 187.153 143.549 186.598 142.51 182.19C137.761 162.114 123.919 113.525 73.3138 113.525L73.3019 114.866L73.29 113.525C22.5415 113.525 10.0841 160.28 5.34692 180.737C4.22714 185.548 1.74598 186.722 0.61141 187.258C0.258904 187.425 0.036385 187.53 0.0250709 187.664C-0.38063 192.884 4.12981 200.248 14.1172 207.514C28.9134 218.264 54.2697 224.049 73.29 224.063H73.3138C92.3341 224.063 117.69 218.264 132.487 207.514C142.474 200.248 146.984 192.884 146.579 187.65ZM74.292 200.368C53.2012 200.368 31.4112 197.571 14.5028 191.965L14.8175 191.016C31.5963 196.579 53.2738 199.368 74.292 199.368C95.3154 199.368 115.62 196.578 129.665 191.025L130.033 191.955C115.824 197.573 95.3777 200.368 74.292 200.368ZM68.5283 159.408H76.519V170.025H88.5098V179.315H76.519V188.585H68.5283V179.315H56.5469V170.025H68.5283V159.408Z" fill="#EAFBF0"/>
</svg>
