<svg width="122" height="122" viewBox="0 0 122 122" fill="none" xmlns="http://www.w3.org/2000/svg">
<circle cx="61" cy="61" r="61" fill="#EAFBF0"/>
<path d="M40.6904 90.8645C44.2668 88.0613 48.0607 88.0855 49.5106 88.448C58.5965 88.448 63.0429 94.4086 64.1304 97.389C57.3642 93.3293 45.6845 94.6503 40.6904 95.8182C38.4672 94.8516 39.7641 92.113 40.6904 90.8645Z" fill="#EB5757"/>
<path d="M40.4336 91.0574C41.7011 89.4477 42.681 88.5285 47.3206 86.7078C48.6496 86.2433 47.683 86.2432 53.3618 86.7078C60.4365 87.2865 64.6387 94.0378 66.1692 96.7362L64.236 97.4611L51.9119 89.6263L47.3206 89.3659L40.4336 91.0574Z" fill="#F2994A"/>
<path d="M48.2873 95.9084C46.5474 97.2616 45.8708 96.4722 45.75 95.9084L70.1565 31.6299C71.8964 29.4067 72.6938 30.7035 73.1771 31.6299L48.2873 95.9084Z" fill="#E0E0E0"/>
<path fill-rule="evenodd" clip-rule="evenodd" d="M45.476 97.0939C45.6233 96.9374 45.872 96.9374 46.0194 97.0939C46.1541 97.237 46.3767 97.251 46.5284 97.1261L46.6015 97.0658C46.7526 96.9414 46.9777 96.9725 47.0894 97.1331C47.1929 97.2822 47.3964 97.3215 47.5481 97.2219L47.7223 97.1075C47.8707 97.01 48.071 97.067 48.146 97.2279C48.2163 97.3791 48.399 97.4403 48.5463 97.3622L48.8194 97.2173C48.9624 97.1414 49.1386 97.2202 49.1774 97.3773C49.2141 97.5264 49.376 97.6068 49.517 97.5461L49.8757 97.3918C50.013 97.3327 50.1668 97.4303 50.1718 97.5797C50.1766 97.7226 50.3184 97.82 50.4535 97.7732L50.8766 97.6265C51.0095 97.5805 51.1429 97.6944 51.1181 97.8329C51.0943 97.9661 51.2176 98.0786 51.3481 98.0428L51.8101 97.916C51.9402 97.8803 52.0552 98.0085 52.0056 98.134C51.9577 98.2552 52.0639 98.3811 52.1915 98.3543L52.6665 98.2544C52.7953 98.2274 52.8937 98.3678 52.8243 98.4796C52.7571 98.588 52.8476 98.7254 52.9738 98.7063L53.438 98.636C53.5665 98.6165 53.65 98.7674 53.5651 98.8658C53.4828 98.9615 53.559 99.1088 53.6847 99.0967L54.118 99.0549C54.247 99.0424 54.3167 99.2022 54.2199 99.2884C54.1257 99.3722 54.1888 99.5278 54.3148 99.5223L54.7006 99.5055C54.8307 99.4998 54.8879 99.6674 54.7814 99.7424C54.6777 99.8154 54.7286 99.9785 54.8554 99.9795L55.1809 99.9822C55.3126 99.9832 55.358 100.158 55.2434 100.223C55.1318 100.286 55.1712 100.456 55.2992 100.464L55.5548 100.479C55.6886 100.487 55.7227 100.669 55.6009 100.725C55.4823 100.779 55.5106 100.955 55.6402 100.97L55.8192 100.99C55.9557 101.006 55.9787 101.195 55.85 101.242C55.7248 101.289 55.742 101.471 55.8736 101.493L55.9723 101.51C56.1118 101.534 56.1236 101.73 55.9879 101.77C55.8562 101.809 55.8621 101.997 55.9959 102.028L56.0131 102.032C56.1561 102.065 56.1561 102.269 56.0131 102.301L55.9959 102.305C55.8621 102.336 55.8562 102.525 55.9879 102.564C56.1236 102.604 56.1118 102.8 55.9723 102.823L55.8736 102.84C55.742 102.863 55.7248 103.045 55.85 103.091C55.9787 103.139 55.9557 103.328 55.8192 103.343L55.6402 103.363C55.5106 103.378 55.4823 103.554 55.6009 103.609C55.7227 103.665 55.6886 103.846 55.5548 103.854L55.2992 103.87C55.1712 103.878 55.1318 104.047 55.2434 104.11C55.358 104.176 55.3126 104.35 55.1809 104.351L54.8554 104.354C54.7286 104.355 54.6777 104.518 54.7814 104.591C54.8879 104.666 54.8307 104.834 54.7006 104.828L54.3148 104.811C54.1888 104.806 54.1257 104.961 54.2199 105.045C54.3167 105.131 54.247 105.291 54.118 105.279L53.6847 105.237C53.559 105.225 53.4827 105.372 53.5651 105.468C53.65 105.566 53.5665 105.717 53.438 105.698L52.9738 105.627C52.8476 105.608 52.7571 105.746 52.8243 105.854C52.8937 105.966 52.7953 106.106 52.6665 106.079L52.1915 105.979C52.0639 105.952 51.9577 106.078 52.0056 106.2C52.0552 106.325 51.9402 106.453 51.8101 106.418L51.3481 106.291C51.2176 106.255 51.0943 106.367 51.1181 106.501C51.1429 106.639 51.0095 106.753 50.8766 106.707L50.4535 106.56C50.3184 106.514 50.1766 106.611 50.1718 106.754C50.1668 106.903 50.013 107.001 49.8757 106.942L49.517 106.787C49.376 106.727 49.2141 106.807 49.1774 106.956C49.1386 107.113 48.9624 107.192 48.8194 107.116L48.5463 106.971C48.399 106.893 48.2163 106.954 48.146 107.106C48.071 107.267 47.8707 107.324 47.7223 107.226L47.5481 107.112C47.3964 107.012 47.1929 107.051 47.0894 107.2C46.9777 107.361 46.7526 107.392 46.6015 107.268L46.5284 107.207C46.3767 107.082 46.1541 107.097 46.0194 107.24C45.872 107.396 45.6233 107.396 45.476 107.24C45.3413 107.097 45.1187 107.082 44.967 107.207L44.8939 107.268C44.7428 107.392 44.5177 107.361 44.406 107.2C44.3025 107.051 44.099 107.012 43.9473 107.112L43.7731 107.226C43.6247 107.324 43.4243 107.267 43.3494 107.106C43.2791 106.954 43.0964 106.893 42.9491 106.971L42.676 107.116C42.533 107.192 42.3568 107.113 42.318 106.956C42.2812 106.807 42.1194 106.727 41.9784 106.787L41.6197 106.942C41.4823 107.001 41.3286 106.903 41.3236 106.754C41.3188 106.611 41.177 106.514 41.0419 106.56L40.6188 106.707C40.4859 106.753 40.3525 106.639 40.3773 106.501C40.4011 106.367 40.2778 106.255 40.1473 106.291L39.6853 106.418C39.5552 106.453 39.4402 106.325 39.4898 106.2C39.5377 106.078 39.4315 105.952 39.3039 105.979L38.8289 106.079C38.7001 106.106 38.6017 105.966 38.6711 105.854C38.7383 105.746 38.6478 105.608 38.5216 105.627L38.0574 105.698C37.9289 105.717 37.8454 105.566 37.9303 105.468C38.0126 105.372 37.9363 105.225 37.8107 105.237L37.3774 105.279C37.2484 105.291 37.1787 105.131 37.2755 105.045C37.3697 104.961 37.3066 104.806 37.1806 104.811L36.7948 104.828C36.6647 104.834 36.6075 104.666 36.714 104.591C36.8177 104.518 36.7668 104.355 36.64 104.354L36.3145 104.351C36.1828 104.35 36.1374 104.176 36.252 104.11C36.3636 104.047 36.3242 103.878 36.1962 103.87L35.9406 103.854C35.8068 103.846 35.7727 103.665 35.8945 103.609C36.0131 103.554 35.9848 103.378 35.8552 103.363L35.6762 103.343C35.5397 103.328 35.5167 103.139 35.6454 103.091C35.7706 103.045 35.7534 102.863 35.6218 102.84L35.5231 102.823C35.3836 102.8 35.3718 102.604 35.5075 102.564C35.6392 102.525 35.6333 102.336 35.4995 102.305L35.4823 102.301C35.3392 102.269 35.3392 102.065 35.4823 102.032L35.4995 102.028C35.6333 101.997 35.6392 101.809 35.5075 101.77C35.3718 101.73 35.3836 101.534 35.5231 101.51L35.6218 101.493C35.7534 101.471 35.7706 101.289 35.6454 101.242C35.5167 101.195 35.5397 101.006 35.6762 100.99L35.8552 100.97C35.9848 100.955 36.0131 100.779 35.8945 100.725C35.7727 100.669 35.8068 100.487 35.9406 100.479L36.1962 100.464C36.3242 100.456 36.3636 100.286 36.252 100.223C36.1374 100.158 36.1828 99.9832 36.3145 99.9822L36.64 99.9795C36.7668 99.9785 36.8177 99.8154 36.714 99.7424C36.6075 99.6674 36.6647 99.4998 36.7948 99.5055L37.1806 99.5223C37.3066 99.5278 37.3697 99.3722 37.2755 99.2884C37.1787 99.2022 37.2484 99.0424 37.3774 99.0549L37.8107 99.0967C37.9363 99.1088 38.0126 98.9615 37.9303 98.8658C37.8454 98.7674 37.9289 98.6165 38.0574 98.636L38.5216 98.7063C38.6478 98.7254 38.7383 98.588 38.6711 98.4796C38.6017 98.3678 38.7001 98.2274 38.8289 98.2544L39.3039 98.3543C39.4315 98.3811 39.5377 98.2552 39.4898 98.134C39.4402 98.0085 39.5552 97.8803 39.6853 97.916L40.1473 98.0428C40.2778 98.0786 40.4011 97.9661 40.3773 97.8329C40.3525 97.6944 40.4859 97.5805 40.6188 97.6265L41.0419 97.7732C41.177 97.82 41.3188 97.7226 41.3236 97.5797C41.3286 97.4303 41.4823 97.3327 41.6197 97.3918L41.9784 97.5461C42.1194 97.6068 42.2812 97.5264 42.318 97.3773C42.3568 97.2202 42.533 97.1414 42.676 97.2173L42.9491 97.3622C43.0964 97.4403 43.2791 97.3791 43.3494 97.2279C43.4243 97.067 43.6247 97.01 43.7731 97.1075L43.9473 97.2219C44.099 97.3215 44.3025 97.2822 44.406 97.1331C44.5177 96.9725 44.7428 96.9414 44.8939 97.0658L44.967 97.1261C45.1187 97.251 45.3413 97.237 45.476 97.0939ZM46.6917 98.9575C46.6917 99.2022 46.2692 99.4006 45.7481 99.4006C45.2269 99.4006 44.8045 99.2022 44.8045 98.9575C44.8045 98.7128 45.2269 98.5144 45.7481 98.5144C46.2692 98.5144 46.6917 98.7128 46.6917 98.9575ZM45.7481 104.717C46.2692 104.717 46.6917 104.519 46.6917 104.274C46.6917 104.029 46.2692 103.831 45.7481 103.831C45.2269 103.831 44.8045 104.029 44.8045 104.274C44.8045 104.519 45.2269 104.717 45.7481 104.717ZM52.8206 101.616C52.8206 101.86 52.3981 102.059 51.877 102.059C51.3558 102.059 50.9334 101.86 50.9334 101.616C50.9334 101.371 51.3558 101.173 51.877 101.173C52.3981 101.173 52.8206 101.371 52.8206 101.616ZM49.9903 104.274C50.5114 104.274 50.9339 104.075 50.9339 103.831C50.9339 103.586 50.5114 103.387 49.9903 103.387C49.4691 103.387 49.0467 103.586 49.0467 103.831C49.0467 104.075 49.4691 104.274 49.9903 104.274ZM50.934 99.8441C50.934 100.089 50.5116 100.287 49.9904 100.287C49.4693 100.287 49.0468 100.089 49.0468 99.8441C49.0468 99.5994 49.4693 99.401 49.9904 99.401C50.5116 99.401 50.934 99.5994 50.934 99.8441ZM41.4942 104.274C42.0153 104.274 42.4378 104.075 42.4378 103.831C42.4378 103.586 42.0153 103.387 41.4942 103.387C40.973 103.387 40.5506 103.586 40.5506 103.831C40.5506 104.075 40.973 104.274 41.4942 104.274ZM42.4377 99.8441C42.4377 100.089 42.0152 100.287 41.4941 100.287C40.9729 100.287 40.5505 100.089 40.5505 99.8441C40.5505 99.5994 40.9729 99.401 41.4941 99.401C42.0152 99.401 42.4377 99.5994 42.4377 99.8441ZM39.6114 102.059C40.1325 102.059 40.555 101.86 40.555 101.616C40.555 101.371 40.1325 101.173 39.6114 101.173C39.0902 101.173 38.6678 101.371 38.6678 101.616C38.6678 101.86 39.0902 102.059 39.6114 102.059Z" fill="#E0E0E0"/>
<path fill-rule="evenodd" clip-rule="evenodd" d="M54.8996 101.771C54.8996 104.217 50.803 106.199 45.7496 106.199C40.6962 106.199 36.5996 104.217 36.5996 101.771C36.5996 99.3246 40.6962 97.3418 45.7496 97.3418C50.803 97.3418 54.8996 99.3246 54.8996 101.771ZM46.6579 98.8742C46.6579 99.1111 46.2558 99.3031 45.7596 99.3031C45.2635 99.3031 44.8613 99.1111 44.8613 98.8742C44.8613 98.6373 45.2635 98.4453 45.7596 98.4453C46.2558 98.4453 46.6579 98.6373 46.6579 98.8742ZM45.7596 104.45C46.2558 104.45 46.6579 104.258 46.6579 104.021C46.6579 103.784 46.2558 103.592 45.7596 103.592C45.2635 103.592 44.8613 103.784 44.8613 104.021C44.8613 104.258 45.2635 104.45 45.7596 104.45ZM52.4939 101.448C52.4939 101.685 52.0917 101.877 51.5956 101.877C51.0995 101.877 50.6973 101.685 50.6973 101.448C50.6973 101.212 51.0995 101.02 51.5956 101.02C52.0917 101.02 52.4939 101.212 52.4939 101.448ZM49.8026 104.022C50.2987 104.022 50.7009 103.83 50.7009 103.593C50.7009 103.356 50.2987 103.164 49.8026 103.164C49.3065 103.164 48.9043 103.356 48.9043 103.593C48.9043 103.83 49.3065 104.022 49.8026 104.022ZM50.7009 99.7316C50.7009 99.9685 50.2987 100.161 49.8026 100.161C49.3065 100.161 48.9043 99.9685 48.9043 99.7316C48.9043 99.4948 49.3065 99.3027 49.8026 99.3027C50.2987 99.3027 50.7009 99.4948 50.7009 99.7316ZM41.7146 104.022C42.2108 104.022 42.613 103.83 42.613 103.593C42.613 103.356 42.2108 103.164 41.7146 103.164C41.2185 103.164 40.8163 103.356 40.8163 103.593C40.8163 103.83 41.2185 104.022 41.7146 104.022ZM42.613 99.7318C42.613 99.9686 42.2108 100.161 41.7146 100.161C41.2185 100.161 40.8163 99.9686 40.8163 99.7318C40.8163 99.4949 41.2185 99.3028 41.7146 99.3028C42.2108 99.3028 42.613 99.4949 42.613 99.7318ZM39.9178 101.877C40.414 101.877 40.8161 101.685 40.8161 101.448C40.8161 101.211 40.414 101.019 39.9178 101.019C39.4217 101.019 39.0195 101.211 39.0195 101.448C39.0195 101.685 39.4217 101.877 39.9178 101.877Z" fill="#BDBDBD"/>
<path d="M42.3652 101.708L43.3318 100.016V97.5995C43.58 97.3789 44.1228 97.0978 44.7817 97.1908L45.7483 95.7871C46.7149 96.7537 47.9232 96.1899 48.4064 95.7871L45.7483 100.016L46.3524 101.708C44.6126 102.481 42.9694 102.03 42.3652 101.708Z" fill="#828282"/>
<path d="M84.2589 27.63C82.4068 30.9465 78.1057 32.0716 74.652 30.1429C71.1983 28.2143 69.9 23.9622 71.752 20.6457C73.6041 17.3292 77.9052 16.2041 81.3589 18.1328C84.8126 20.0614 86.1109 24.3135 84.2589 27.63Z" fill="#EB5757"/>
<path d="M84.2589 27.63C82.4068 30.9465 78.1057 32.0716 74.652 30.1429C71.1983 28.2143 69.9 23.9622 71.752 20.6457C73.6041 17.3292 77.9052 16.2041 81.3589 18.1328C84.8126 20.0614 86.1109 24.3135 84.2589 27.63Z" stroke="#1C9045"/>
<path d="M68.8274 28.7293V34.8913L66.7734 39.966L70.0357 40.9326L72.573 35.3746L77.0435 35.8579C76.4797 35.5357 79.46 32.5474 79.46 30.9042C77.406 30.421 76.2802 30.3001 75.352 28.7293C73.7812 26.0712 70.3982 27.6419 68.8274 28.7293Z" fill="#828282"/>
<path d="M66.7729 19.1841C64.743 21.214 66.8937 26.3933 68.2227 28.7292C70.3492 27.5693 75.432 29.3334 76.4389 29.8167C72.3309 24.8629 76.5194 18.4995 78.2513 17.8551L76.4389 15.9219H70.881L69.7936 17.8551L66.7729 19.1841Z" fill="#EB5757"/>
<path d="M75.4001 29.3278C75.4001 29.3278 74.624 27.5209 74.0199 26.2656C73.4158 25.0103 74.1282 20.5355 76.9578 17.9694C80.4236 15.6802 83.2148 18.5205 81.149 22.4463L83.4447 22.8088C83.7017 23.1478 84.1696 24.6212 83.2025 24.742L80.786 25.5878C80.786 25.5878 79.8194 30.1791 75.4001 29.3278Z" fill="#333333"/>
<path d="M75.4001 29.3278C75.4001 29.3278 74.624 27.5209 74.0199 26.2656C73.4158 25.0103 74.1282 20.5355 76.9578 17.9694C80.4236 15.6802 83.2148 18.5205 81.149 22.4463L83.4447 22.8088C83.7017 23.1478 84.1696 24.6212 83.2025 24.742L80.786 25.5878C80.786 25.5878 79.8194 30.1791 75.4001 29.3278ZM75.4001 29.3278C75.3423 31.9475 74.3568 37.5976 70.877 39.2409" stroke="#4F4F4F"/>
<path d="M57.8306 52.532L54.4473 48.3031C54.1573 47.938 55.0919 47.1441 55.5349 46.7324L59.0388 50.8404C59.2321 51.4204 59.8443 51.6459 60.1262 51.6862H70.638C71.2179 51.4929 71.6851 51.0418 71.8462 50.8404L74.746 46.7324L76.5583 48.424C75.5515 49.4711 73.3686 51.7587 72.692 52.532C72.0154 53.3053 71.0407 53.5791 70.638 53.6194C67.6576 53.5389 61.3828 53.4261 60.1262 53.6194C58.8697 53.8127 58.0722 52.975 57.8306 52.532Z" fill="#EAFBF0"/>
<path d="M61.093 53.4979C60.4164 52.7246 61.2138 51.9675 61.6971 51.6855H65.3219C64.162 52.5555 64.4358 53.3368 64.7178 53.6187L64.2345 54.5853C63.1712 54.972 61.8583 54.7464 61.3347 54.5853L61.5763 53.8604L61.093 53.4979Z" fill="#EAFBF0"/>
<path d="M48.5264 46.1281C45.8199 46.1281 45.3834 44.799 45.5043 44.1949L48.1638 39.4828C49.6137 39.0961 51.1844 40.7716 51.7886 41.6576L55.1716 46.0073H56.1382C55.7516 47.4572 54.3661 48.3835 53.7218 48.6654V47.3363L50.2178 43.5908L48.5264 46.1281Z" fill="#4F4F4F"/>
<path d="M73.7793 46.6107L74.7459 45.8858L77.8873 41.4153C80.2071 40.4487 80.9482 42.3013 81.0288 43.3485L77.0416 48.3023L76.6791 49.2688C74.8426 48.8822 73.9807 47.3357 73.7793 46.6107Z" fill="#4F4F4F"/>
<path d="M51.5966 47.458C49.8931 45.8632 48.8004 45.7665 48.5273 46.129L49.1396 45.2832C50.1879 45.2832 51.6512 46.129 52.2519 46.5519C52.3829 47.1318 51.8697 47.3976 51.5966 47.458Z" fill="#828282"/>
<path d="M49.3745 86.364C49.7772 86.0821 50.8727 85.7116 52.0326 86.4849L51.7909 87.089L52.9992 87.3306C53.3617 87.8542 53.7241 88.9013 52.2742 88.9013L51.1868 88.7805L48.4079 95.9091C47.8037 96.1911 46.4022 96.5858 45.6289 95.9091L48.5287 88.6597H47.6829C47.4413 88.3375 47.2238 87.5723 48.287 87.089H49.1328L49.3745 86.364Z" fill="#828282"/>
</svg>
