<svg width="200" height="243" viewBox="0 0 200 243" fill="none" xmlns="http://www.w3.org/2000/svg">
<path d="M0 88C33.5778 113.17 74.4506 170.796 78 242H56.5141C53.9643 179.075 26.4825 110.355 0 88Z" fill="#EAFBF0"/>
<path d="M34 43C67.5778 75.5247 108.451 149.989 112 242H90.5141C87.9643 160.688 60.4825 71.8871 34 43Z" fill="#EAFBF0"/>
<path d="M66 43C99.5778 75.5247 140.451 149.989 144 242H122.514C119.964 160.688 92.4825 71.8871 66 43Z" fill="#EAFBF0"/>
<path d="M95 84C128.578 109.824 169.451 168.946 173 242H151.514C148.964 177.441 121.482 106.935 95 84Z" fill="#EAFBF0"/>
<path d="M73 84C106.578 109.824 147.451 168.946 151 242H129.514C126.964 177.441 99.4825 106.935 73 84Z" fill="#EAFBF0"/>
<path fill-rule="evenodd" clip-rule="evenodd" d="M88.3231 185.825C102.658 129.65 132.442 85.6273 158 63.4102C133.884 87.0175 108.94 155.212 102.748 222.317C113.108 174.613 148.39 136.728 178 119C159.125 131.726 139.742 163.265 129.24 198.531C143.543 154.688 173.393 120.325 199 103C176.468 120.168 153.212 167.632 145.205 216.392C155.564 186.33 178.994 162.715 199 151C178.968 164.21 158.181 204.817 156.252 242H142.486H140H121.486H121H100L80 242H59.4859H38L17 242C20.5518 168.863 61.4516 109.673 95.0516 83.8203C76.2018 100.153 56.8459 140.582 46.3231 185.825C60.6581 129.65 90.4422 85.6273 116 63.4102C91.5628 87.3323 66.2747 157.039 60.5109 225C68.9445 159.753 106.096 107.639 137.052 83.8203C118.202 100.153 98.846 140.582 88.3231 185.825Z" fill="#EAFBF0"/>
<path d="M158 63.4102L158.35 63.7675L157.672 63.0328L158 63.4102ZM88.3231 185.825L87.8361 185.712L88.8076 185.949L88.3231 185.825ZM102.748 222.317L102.251 222.271L103.237 222.423L102.748 222.317ZM178 119L178.28 119.415L177.743 118.571L178 119ZM129.24 198.531L128.761 198.388L129.716 198.686L129.24 198.531ZM199 103L199.303 103.398L198.72 102.586L199 103ZM145.205 216.392L144.712 216.311L145.678 216.555L145.205 216.392ZM199 151L199.275 151.417L198.747 150.569L199 151ZM156.252 242V242.5H156.727L156.751 242.026L156.252 242ZM100 242L100 242.5H100V242ZM80 242L80 241.5H80V242ZM38 242L38 242.5H38V242ZM17 242L16.5006 241.976L16.4751 242.5L17 242.5L17 242ZM95.0516 83.8203L95.379 84.1982L94.7467 83.424L95.0516 83.8203ZM46.3231 185.825L45.8361 185.712L46.8076 185.949L46.3231 185.825ZM116 63.4102L116.35 63.7675L115.672 63.0328L116 63.4102ZM60.5109 225L60.0127 224.958L61.0068 225.064L60.5109 225ZM137.052 83.8203L137.379 84.1982L136.747 83.424L137.052 83.8203ZM157.672 63.0328C132.03 85.3229 102.196 129.438 87.8387 185.702L88.8076 185.949C103.12 129.863 132.854 85.9317 158.328 63.7875L157.672 63.0328ZM103.246 222.363C106.338 188.853 114.113 155.069 124.124 126.719C134.142 98.3498 146.376 75.4887 158.35 63.7675L157.65 63.0529C145.508 74.939 133.212 97.9791 123.181 126.386C113.143 154.811 105.35 188.676 102.251 222.271L103.246 222.363ZM177.743 118.571C148.042 136.353 112.655 174.344 102.26 222.211L103.237 222.423C113.561 174.882 148.739 137.102 178.257 119.429L177.743 118.571ZM129.72 198.674C134.959 181.08 142.412 164.419 150.906 150.574C159.404 136.723 168.924 125.722 178.28 119.415L177.72 118.585C168.201 125.004 158.591 136.136 150.054 150.051C141.512 163.974 134.024 180.716 128.761 198.388L129.72 198.674ZM198.72 102.586C173.026 119.97 143.104 154.422 128.765 198.376L129.716 198.686C143.982 154.954 173.76 120.681 199.28 103.414L198.72 102.586ZM145.698 216.473C149.694 192.141 157.495 168.13 167.106 148.065C176.724 127.987 188.129 111.912 199.303 103.398L198.697 102.602C187.339 111.256 175.85 127.497 166.204 147.633C156.553 167.782 148.723 191.883 144.712 216.311L145.698 216.473ZM198.747 150.569C178.656 162.334 155.137 186.036 144.732 216.229L145.678 216.555C155.992 186.624 179.332 163.097 199.253 151.431L198.747 150.569ZM156.751 242.026C157.712 223.512 163.37 204.129 171.288 187.727C179.212 171.313 189.367 157.951 199.275 151.417L198.725 150.583C188.601 157.259 178.347 170.805 170.387 187.293C162.422 203.793 156.721 223.305 155.753 241.974L156.751 242.026ZM142.486 242.5H156.252V241.5H142.486V242.5ZM140 242.5H142.486V241.5H140V242.5ZM121.486 242.5H140V241.5H121.486V242.5ZM121 242.5H121.486V241.5H121V242.5ZM100 242.5H121V241.5H100V242.5ZM80 242.5L100 242.5L100 241.5L80 241.5L80 242.5ZM59.4859 242.5H80V241.5H59.4859V242.5ZM38 242.5H59.4859V241.5H38V242.5ZM38 241.5L17 241.5L17 242.5L38 242.5L38 241.5ZM17.4994 242.024C21.0434 169.047 61.8615 109.989 95.3565 84.2166L94.7467 83.424C61.0417 109.358 20.0601 168.679 16.5006 241.976L17.4994 242.024ZM94.7242 83.4424C85.2235 91.6746 75.6362 105.936 67.1136 123.766C58.586 141.606 51.1049 163.059 45.8361 185.712L46.8101 185.939C52.0641 163.349 59.5224 141.966 68.0158 124.197C76.5143 106.418 86.0299 92.299 95.379 84.1982L94.7242 83.4424ZM115.672 63.0328C90.0303 85.3229 60.1963 129.438 45.8386 185.702L46.8076 185.949C61.1199 129.863 90.8542 85.9317 116.328 63.7875L115.672 63.0328ZM61.0091 225.042C63.8873 191.105 71.641 156.729 81.725 127.855C91.8156 98.9619 104.216 75.6453 116.35 63.7675L115.65 63.0529C103.347 75.0971 90.8846 98.5948 80.7809 127.525C70.6706 156.475 62.8983 190.933 60.0127 224.958L61.0091 225.042ZM136.747 83.424C105.692 107.319 68.4666 159.55 60.015 224.936L61.0068 225.064C69.4224 159.955 106.5 107.958 137.357 84.2166L136.747 83.424ZM88.8101 185.938C94.0641 163.349 101.522 141.966 110.016 124.197C118.514 106.418 128.03 92.299 137.379 84.1982L136.724 83.4424C127.223 91.6746 117.636 105.936 109.114 123.766C100.586 141.606 93.105 163.059 87.8361 185.712L88.8101 185.938Z" fill="white"/>
</svg>
