<svg width="245" height="130" viewBox="0 0 245 130" fill="none" xmlns="http://www.w3.org/2000/svg">
<g clip-path="url(#clip0_425_17115)">
<g opacity="0.7">
<path d="M150.002 19.2379V10.1656C150.002 7.40418 152.241 5.1656 155.002 5.1656H172.622C174.085 5.1656 175.271 3.97951 175.271 2.5164C175.271 1.05328 176.457 -0.132812 177.921 -0.132812H196.261C197.724 -0.132812 198.91 1.05328 198.91 2.5164C198.91 3.97951 200.097 5.1656 201.56 5.1656H218.772C221.534 5.1656 223.772 7.40418 223.772 10.1656V18.1809C223.772 20.91 221.584 23.135 218.855 23.1802L155.085 24.2372C152.291 24.2835 150.002 22.0317 150.002 19.2379Z" stroke="white" stroke-width="5"/>
<circle cx="187.093" cy="8.42474" r="3.20599" stroke="white" stroke-width="5"/>
<path d="M150.002 14.5391H133.809C131.047 14.5391 128.809 16.7776 128.809 19.5391V130.289" stroke="white" stroke-width="5"/>
<path d="M223.773 14.5391H239.967C242.728 14.5391 244.967 16.7776 244.967 19.5391V130.289" stroke="white" stroke-width="5"/>
<path d="M149.595 22.2852H145.221C142.459 22.2852 140.221 24.5237 140.221 27.2852V130.291" stroke="white" stroke-width="5"/>
<path d="M223.772 22.2852H228.146C230.908 22.2852 233.146 24.5237 233.146 27.2852V130.291" stroke="white" stroke-width="5"/>
<line x1="151.227" y1="46.6816" x2="222.144" y2="46.6816" stroke="white" stroke-width="5"/>
<line x1="151.227" y1="62.9863" x2="222.144" y2="62.9863" stroke="white" stroke-width="5"/>
<line x1="151.227" y1="80.9199" x2="222.144" y2="80.9199" stroke="white" stroke-width="5"/>
</g>
<path opacity="0.7" d="M55.5636 58.3555L55.7154 60.3497L57.4402 60.2185L57.5589 58.4928L55.5636 58.3555ZM53.3673 49L53.5651 47.0098L52.2387 50.6511L53.3673 49ZM50.1295 59.068L48.5015 60.2296L49.2428 61.2686L50.4974 61.0338L50.1295 59.068ZM35.0508 53.8711L34.6167 51.9188L34.4947 55.7922L35.0508 53.8711ZM40.0624 62.0774L40.8339 63.9226L42.4259 63.257L42.0007 61.5846L40.0624 62.0774ZM35.3214 64.3597L34.134 65.9691L35.162 66.7276L36.2825 66.1137L35.3214 64.3597ZM19.375 64.0957L18.3569 62.3742L19.4422 66.0946L19.375 64.0957ZM26.6847 70.3436L27.9887 71.8599L29.2985 70.7335L28.3746 69.2739L26.6847 70.3436ZM22.8569 74.0012L22.2235 75.8982L23.4359 76.303L24.3125 75.3728L22.8569 74.0012ZM7.60938 78.6621L6.11064 77.3378L8.28878 80.5432L7.60938 78.6621ZM16.4868 82.3547L18.1949 83.3951L19.0931 81.9203L17.7652 80.8166L16.4868 82.3547ZM14.0026 86.9578L13.9868 88.9577L15.2631 88.9678L15.8099 87.8144L14.0026 86.9578ZM0.941451 96.1111L-0.893703 95.316L2.16995 97.6894L0.941451 96.1111ZM10.5264 96.8734L12.473 97.3326L12.8692 95.653L11.2657 95.0151L10.5264 96.8734ZM9.59435 102.013L10.1972 103.92L11.416 103.535L11.5782 102.267L9.59435 102.013ZM0 114.748L-1.99094 114.558L1.65549 115.87L0 114.748ZM9.34744 112.516L11.3411 112.356L11.2031 110.632L9.47703 110.52L9.34744 112.516ZM10.0764 117.921L11.2437 119.545L12.28 118.8L12.041 117.547L10.0764 117.921ZM4.93359 133.021L2.98292 133.463L6.85683 133.57L4.93359 133.021ZM13.1209 127.979L14.9634 127.201L14.292 125.611L12.6207 126.043L13.1209 127.979ZM15.4182 132.71L17.0319 133.891L17.7864 132.861L17.1689 131.743L15.4182 132.71ZM15.2129 148.656L13.4952 149.681L17.2115 148.582L15.2129 148.656ZM21.4309 141.326L22.9428 140.017L21.8116 138.71L20.3549 139.64L21.4309 141.326ZM25.0782 145.12L26.9773 145.747L27.3779 144.534L26.4459 143.66L25.0782 145.12ZM29.793 160.355L28.4741 161.859L31.6715 159.669L29.793 160.355ZM33.4506 151.468L34.4862 149.757L33.0075 148.862L31.9077 150.195L33.4506 151.468ZM38.0787 153.948L40.0787 153.957L40.0844 152.681L38.9296 152.138L38.0787 153.948ZM47.2812 166.979L46.4931 168.817L48.8548 165.744L47.2812 166.979ZM48.0067 157.392L48.4596 155.444L46.7777 155.053L46.1456 156.66L48.0067 157.392ZM53.1854 158.312L55.0901 157.702L54.7 156.485L53.4314 156.328L53.1854 158.312ZM65.957 167.857L65.7746 169.849L67.0728 166.198L65.957 167.857ZM63.6886 158.519L63.5213 156.526L61.7977 156.67L61.6923 158.397L63.6886 158.519ZM69.0926 157.768L70.7097 156.591L69.9602 155.562L68.7102 155.805L69.0926 157.768ZM84.2441 162.814L84.7003 164.762L84.7784 160.887L84.2441 162.814ZM79.1442 154.681L78.3588 152.842L76.765 153.522L77.2118 155.197L79.1442 154.681ZM83.8797 152.356L85.0518 150.736L84.0186 149.989L82.905 150.61L83.8797 152.356ZM99.8438 152.457L100.881 154.167L99.7547 150.459L99.8438 152.457ZM92.474 146.302L91.1581 144.796L89.8526 145.937L90.7964 147.391L92.474 146.302ZM96.2298 142.661L96.8503 140.759L95.6355 140.363L94.7653 141.299L96.2298 142.661ZM111.449 137.891L112.958 139.204L110.756 136.015L111.449 137.891ZM102.546 134.263L100.831 133.235L99.9417 134.716L101.279 135.811L102.546 134.263ZM105.011 129.619L105.012 127.619L103.735 127.618L103.197 128.775L105.011 129.619ZM118.004 120.367L119.845 121.148L116.764 118.798L118.004 120.367ZM108.415 119.678L106.465 119.233L106.081 120.916L107.689 121.542L108.415 119.678ZM109.313 114.502L108.695 112.599L107.479 112.994L107.327 114.263L109.313 114.502ZM118.809 101.693L120.801 101.868L117.145 100.584L118.809 101.693ZM109.478 103.998L107.486 104.173L107.637 105.896L109.364 105.994L109.478 103.998ZM108.85 99.3455L107.695 97.7129L106.653 98.4502L106.883 99.7057L108.85 99.3455ZM114.105 84.2852L116.059 83.8585L112.186 83.7219L114.105 84.2852ZM105.88 89.2659L104.031 90.0302L104.691 91.625L106.365 91.2061L105.88 89.2659ZM103.608 84.5026L102.003 83.3094L101.241 84.3347L101.851 85.4573L103.608 84.5026ZM103.93 68.5586L105.655 67.5468L101.931 68.6184L103.93 68.5586ZM97.6558 75.8449L96.1348 77.1436L97.2565 78.4572L98.7193 77.5387L97.6558 75.8449ZM94.0008 71.9937L92.106 71.3539L91.697 72.565L92.6245 73.4448L94.0008 71.9937ZM89.3945 56.7324L90.7243 55.2385L87.511 57.405L89.3945 56.7324ZM85.6691 65.5968L84.6231 67.3015L86.0943 68.2042L87.2025 66.8808L85.6691 65.5968ZM81.069 63.0949L79.0691 63.0719L79.0545 64.3487L80.2065 64.8994L81.069 63.0949ZM71.9648 50.002L72.7669 48.1698L70.382 51.2245L71.9648 50.002ZM71.1652 59.587L70.6998 61.5321L72.377 61.9334L73.0207 60.3335L71.1652 59.587ZM66.0648 58.6433L64.1556 59.2388L64.5361 60.4589L65.8032 60.6261L66.0648 58.6433ZM57.5589 58.4928C57.6982 56.4676 57.6834 54.297 57.3184 52.3857C56.9672 50.5467 56.2105 48.5208 54.4959 47.3489L52.2387 50.6511C52.6261 50.916 53.1011 51.6269 53.3894 53.136C53.6638 54.5729 53.6961 56.3616 53.5683 58.2182L57.5589 58.4928ZM50.4974 61.0338C52.2063 60.714 53.9473 60.4843 55.7154 60.3497L55.4119 56.3613C53.4982 56.5069 51.6129 56.7556 49.7616 57.1021L50.4974 61.0338ZM35.4848 55.8234C39.0416 55.0326 45.0825 55.4378 48.5015 60.2296L51.7576 57.9063C46.9981 51.2358 38.9176 50.9626 34.6167 51.9188L35.4848 55.8234ZM42.0007 61.5846C41.5003 59.6164 40.8077 57.5577 39.8635 55.8551C38.9551 54.217 37.6027 52.5276 35.6068 51.9499L34.4947 55.7922C34.9458 55.9228 35.6196 56.4502 36.3654 57.795C37.0754 59.0753 37.6652 60.7657 38.1241 62.5703L42.0007 61.5846ZM36.2825 66.1137C37.7548 65.307 39.2736 64.575 40.8339 63.9226L39.2909 60.2322C37.6004 60.939 35.955 61.732 34.3604 62.6058L36.2825 66.1137ZM20.3931 65.8172C23.5292 63.9624 29.3976 62.4743 34.134 65.9691L36.5089 62.7504C29.9156 57.8854 22.149 60.1315 18.3569 62.3742L20.3931 65.8172ZM28.3746 69.2739C27.2884 67.5579 25.9916 65.8154 24.5659 64.4895C23.1942 63.2138 21.3846 62.0271 19.3078 62.0968L19.4422 66.0946C19.9115 66.0788 20.7157 66.3713 21.8418 67.4186C22.9139 68.4156 23.9988 69.8398 24.9947 71.4132L28.3746 69.2739ZM24.3125 75.3728C25.4754 74.1388 26.7026 72.966 27.9887 71.8599L25.3806 68.8272C23.9884 70.0245 22.6601 71.2938 21.4014 72.6295L24.3125 75.3728ZM9.10811 79.9864C11.52 77.2569 16.643 74.0349 22.2235 75.8982L23.4904 72.1041C15.7218 69.5103 9.02719 74.0371 6.11064 77.3378L9.10811 79.9864ZM17.7652 80.8166C16.2035 79.5186 14.4333 78.2604 12.6687 77.4381C10.971 76.6469 8.88411 76.0752 6.92997 76.781L8.28878 80.5432C8.73039 80.3837 9.58544 80.4143 10.9791 81.0637C12.3059 81.682 13.7765 82.7027 15.2084 83.8928L17.7652 80.8166ZM15.8099 87.8144C16.5295 86.2962 17.3262 84.8214 18.1949 83.3951L14.7786 81.3144C13.8379 82.859 12.975 84.4564 12.1954 86.1011L15.8099 87.8144ZM2.77661 96.9062C4.22517 93.5629 8.10047 88.9112 13.9868 88.9577L14.0184 84.9578C5.82421 84.8931 0.857889 91.2733 -0.893703 95.316L2.77661 96.9062ZM11.2657 95.0151C9.37873 94.2644 7.30582 93.6161 5.37327 93.3806C3.51396 93.154 1.35254 93.2566 -0.28705 94.5329L2.16995 97.6894C2.54049 97.4009 3.36303 97.1652 4.8894 97.3512C6.34254 97.5283 8.05703 98.0435 9.7871 98.7318L11.2657 95.0151ZM11.5782 102.267C11.7923 100.594 12.0921 98.9474 12.473 97.3326L8.5798 96.4143C8.16708 98.1639 7.84236 99.9474 7.61052 101.76L11.5782 102.267ZM1.99094 114.938C2.33725 111.312 4.58722 105.694 10.1972 103.92L8.9915 100.106C1.18201 102.575 -1.57218 110.173 -1.99094 114.558L1.99094 114.938ZM9.47703 110.52C7.45131 110.388 5.28061 110.412 3.37066 110.784C1.53299 111.142 -0.490119 111.907 -1.65549 113.626L1.65549 115.87C1.91882 115.482 2.62796 115.004 4.13611 114.71C5.57198 114.43 7.36064 114.391 9.21785 114.511L9.47703 110.52ZM12.041 117.547C11.7168 115.847 11.4818 114.115 11.3411 112.356L7.35381 112.675C7.50615 114.579 7.7606 116.454 8.11177 118.296L12.041 117.547ZM6.88427 132.58C6.07992 129.026 6.46255 122.982 11.2437 119.545L8.90901 116.297C2.25332 121.081 2.01032 129.165 2.98292 133.463L6.88427 132.58ZM12.6207 126.043C10.6544 126.55 8.5984 127.251 6.89936 128.201C5.26471 129.116 3.5805 130.475 3.01036 132.473L6.85683 133.57C6.98568 133.119 7.51054 132.443 8.8525 131.692C10.1301 130.977 11.8182 130.381 13.621 129.915L12.6207 126.043ZM17.1689 131.743C16.3576 130.274 15.6208 128.758 14.9634 127.201L11.2783 128.757C11.9906 130.444 12.7888 132.086 13.6675 133.677L17.1689 131.743ZM16.9306 147.632C15.0645 144.503 13.5549 138.64 17.0319 133.891L13.8045 131.528C8.96429 138.139 11.2386 145.897 13.4952 149.681L16.9306 147.632ZM20.3549 139.64C18.6434 140.732 16.9065 142.035 15.5864 143.465C14.3163 144.841 13.1369 146.655 13.2143 148.731L17.2115 148.582C17.194 148.113 17.4833 147.308 18.5258 146.178C19.5183 145.103 20.9377 144.013 22.5069 143.012L20.3549 139.64ZM26.4459 143.66C25.216 142.508 24.0466 141.291 22.9428 140.017L19.9189 142.635C21.1136 144.015 22.3794 145.331 23.7105 146.579L26.4459 143.66ZM31.1118 158.852C28.3727 156.449 25.1311 151.336 26.9773 145.747L23.1791 144.492C20.6091 152.273 25.162 158.954 28.4741 161.859L31.1118 158.852ZM31.9077 150.195C30.616 151.761 29.3649 153.536 28.5496 155.303C27.7652 157.003 27.2017 159.091 27.9144 161.042L31.6715 159.669C31.5105 159.228 31.5378 158.374 32.1816 156.978C32.7946 155.65 33.8092 154.176 34.9935 152.74L31.9077 150.195ZM38.9296 152.138C37.4032 151.42 35.9203 150.625 34.4862 149.757L32.415 153.179C33.9681 154.119 35.5742 154.98 37.2278 155.758L38.9296 152.138ZM48.0694 165.14C44.7199 163.704 40.0525 159.845 40.0787 153.957L36.0787 153.939C36.0423 162.136 42.443 167.08 46.4931 168.817L48.0694 165.14ZM46.1456 156.66C45.4022 158.55 44.762 160.625 44.5339 162.558C44.3145 164.418 44.4254 166.578 45.7077 168.213L48.8548 165.744C48.5651 165.375 48.3263 164.553 48.5064 163.027C48.6779 161.573 49.1864 159.857 49.8679 158.125L46.1456 156.66ZM53.4314 156.328C51.7454 156.119 50.0866 155.823 48.4596 155.444L47.5539 159.341C49.3167 159.75 51.1136 160.071 52.9394 160.297L53.4314 156.328ZM66.1395 165.866C62.5121 165.533 56.8852 163.305 55.0901 157.702L51.2808 158.923C53.7797 166.722 61.3882 169.447 65.7746 169.849L66.1395 165.866ZM61.6923 158.397C61.5686 160.423 61.6002 162.594 61.9799 164.502C62.3453 166.338 63.1176 168.358 64.8412 169.517L67.0728 166.198C66.6834 165.936 66.2029 165.228 65.903 163.721C65.6175 162.287 65.5714 160.498 65.6849 158.64L61.6923 158.397ZM68.7102 155.805C67.0111 156.136 65.2798 156.378 63.5213 156.526L63.8559 160.512C65.7594 160.352 67.6344 160.09 69.4751 159.731L68.7102 155.805ZM83.788 160.867C80.2358 161.699 74.181 161.361 70.7097 156.591L67.4756 158.945C72.3079 165.584 80.4057 165.768 84.7003 164.762L83.788 160.867ZM77.2118 155.197C77.7348 157.157 78.4504 159.204 79.4134 160.892C80.34 162.517 81.7102 164.187 83.7099 164.742L84.7784 160.887C84.3267 160.762 83.6481 160.244 82.8881 158.911C82.1645 157.642 81.556 155.962 81.0766 154.166L77.2118 155.197ZM82.905 150.61C81.4351 151.43 79.918 152.176 78.3588 152.842L79.9296 156.52C81.6189 155.799 83.2624 154.991 84.8544 154.103L82.905 150.61ZM98.8068 150.747C95.6882 152.638 89.8289 154.191 85.0518 150.736L82.7076 153.977C89.3576 158.787 97.1101 156.453 100.881 154.167L98.8068 150.747ZM90.7964 147.391C91.9008 149.092 93.2155 150.817 94.6544 152.125C96.0389 153.383 97.8594 154.547 99.9328 154.455L99.7547 150.459C99.2863 150.48 98.4804 150.197 97.3447 149.165C96.2633 148.182 95.1641 146.773 94.1517 145.213L90.7964 147.391ZM94.7653 141.299C93.6242 142.526 92.4201 143.693 91.1581 144.796L93.79 147.808C95.1561 146.614 96.4594 145.351 97.6944 144.023L94.7653 141.299ZM109.941 136.577C107.548 139.325 102.446 142.586 96.8503 140.759L95.6093 144.562C103.4 147.104 110.064 142.527 112.958 139.204L109.941 136.577ZM101.279 135.811C102.85 137.097 104.629 138.342 106.399 139.152C108.103 139.93 110.194 140.487 112.142 139.767L110.756 136.015C110.316 136.177 109.461 136.153 108.062 135.514C106.731 134.905 105.253 133.895 103.813 132.716L101.279 135.811ZM103.197 128.775C102.485 130.307 101.694 131.795 100.831 133.235L104.261 135.292C105.196 133.733 106.052 132.122 106.824 130.462L103.197 128.775ZM116.163 119.586C114.739 122.94 110.899 127.622 105.012 127.619L105.01 131.619C113.205 131.623 118.124 125.205 119.845 121.148L116.163 119.586ZM107.689 121.542C109.582 122.278 111.659 122.91 113.593 123.131C115.454 123.344 117.615 123.225 119.244 121.936L116.764 118.798C116.395 119.089 115.575 119.331 114.047 119.157C112.593 118.991 110.875 118.489 109.14 117.814L107.689 121.542ZM107.327 114.263C107.125 115.948 106.836 117.606 106.465 119.233L110.364 120.123C110.767 118.36 111.08 116.564 111.299 114.74L107.327 114.263ZM116.816 101.518C116.498 105.147 114.291 110.783 108.695 112.599L109.93 116.404C117.721 113.875 120.416 106.256 120.801 101.868L116.816 101.518ZM109.364 105.994C111.391 106.11 113.561 106.07 115.469 105.683C117.303 105.311 119.321 104.531 120.473 102.803L117.145 100.584C116.884 100.974 116.179 101.458 114.673 101.763C113.239 102.054 111.451 102.107 109.593 102.001L109.364 105.994ZM106.883 99.7057C107.151 101.172 107.353 102.662 107.486 104.173L111.471 103.823C111.327 102.188 111.108 100.574 110.817 98.9853L106.883 99.7057ZM112.152 84.7118C112.929 88.272 112.501 94.3122 107.695 97.7129L110.005 100.978C116.696 96.2442 116.999 88.1633 116.059 83.8585L112.152 84.7118ZM106.365 91.2061C108.335 90.7131 110.397 90.0283 112.103 89.0905C113.745 88.1883 115.439 86.8423 116.025 84.8485L112.186 83.7219C112.054 84.1725 111.524 84.8443 110.176 85.5851C108.893 86.2903 107.201 86.8737 105.394 87.3257L106.365 91.2061ZM101.851 85.4573C102.655 86.9367 103.383 88.4627 104.031 90.0302L107.728 88.5016C107.026 86.8033 106.236 85.1502 105.366 83.5478L101.851 85.4573ZM102.205 69.5704C104.048 72.713 105.514 78.5861 102.003 83.3094L105.214 85.6957C110.101 79.1205 107.884 71.3468 105.655 67.5468L102.205 69.5704ZM98.7193 77.5387C100.439 76.4589 102.186 75.1685 103.517 73.7477C104.798 72.3807 105.991 70.5756 105.929 68.4987L101.931 68.6184C101.945 69.0878 101.649 69.8908 100.598 71.013C99.5972 72.0814 98.1692 73.161 96.5923 74.1511L98.7193 77.5387ZM92.6245 73.4448C93.8582 74.615 95.0301 75.8498 96.1348 77.1436L99.1768 74.5463C97.9811 73.1458 96.7126 71.8093 95.3772 70.5427L92.6245 73.4448ZM88.0648 58.2263C90.785 60.6477 93.9877 65.7813 92.106 71.3539L95.8957 72.6336C98.5153 64.8761 94.0138 58.1667 90.7243 55.2385L88.0648 58.2263ZM87.2025 66.8808C88.5063 65.3238 89.7711 63.5581 90.5999 61.7965C91.3974 60.1016 91.9768 58.0167 91.2781 56.0599L87.511 57.405C87.6689 57.8472 87.6352 58.7022 86.9805 60.0936C86.3573 61.4182 85.3311 62.8852 84.1357 64.3128L87.2025 66.8808ZM80.2065 64.8994C81.7241 65.6247 83.198 66.4271 84.6231 67.3015L86.7151 63.8921C85.1718 62.9452 83.5754 62.0761 81.9314 61.2904L80.2065 64.8994ZM71.1628 51.8341C74.5002 53.2951 79.1366 57.1871 79.0691 63.0719L83.0688 63.1178C83.1628 54.9257 76.8025 49.9364 72.7669 48.1698L71.1628 51.8341ZM73.0207 60.3335C73.7788 58.449 74.4353 56.3779 74.6784 54.4457C74.9123 52.5868 74.8181 50.4242 73.5477 48.7794L70.382 51.2245C70.6691 51.5963 70.9017 52.4201 70.7097 53.9464C70.5269 55.3995 70.0049 57.1127 69.3097 58.8406L73.0207 60.3335ZM65.8032 60.6261C67.4638 60.8452 69.0974 61.1487 70.6998 61.5321L71.6307 57.6419C69.8944 57.2265 68.1247 56.8977 66.3264 56.6604L65.8032 60.6261ZM53.1695 50.9902C56.7942 51.3505 62.4037 53.6221 64.1556 59.2388L67.9741 58.0478C65.5354 50.2289 57.9482 47.4455 53.5651 47.0098L53.1695 50.9902ZM70.7666 108.749C70.7666 114.465 66.1327 119.099 60.4165 119.099V123.099C68.3418 123.099 74.7666 116.674 74.7666 108.749H70.7666ZM60.4165 98.3984C66.1327 98.3984 70.7666 103.032 70.7666 108.749H74.7666C74.7666 100.823 68.3418 94.3984 60.4165 94.3984V98.3984ZM50.0664 108.749C50.0664 103.032 54.7003 98.3984 60.4165 98.3984V94.3984C52.4912 94.3984 46.0664 100.823 46.0664 108.749H50.0664ZM60.4165 119.099C54.7003 119.099 50.0664 114.465 50.0664 108.749H46.0664C46.0664 116.674 52.4912 123.099 60.4165 123.099V119.099Z" fill="white"/>
</g>
<defs>
<clipPath id="clip0_425_17115">
<rect width="245" height="130" fill="white"/>
</clipPath>
</defs>
</svg>
