<svg width="130" height="240" viewBox="0 0 130 240" fill="none" xmlns="http://www.w3.org/2000/svg">
<path fill-rule="evenodd" clip-rule="evenodd" d="M58.1294 239V238.995H62.4187C62.4189 221.952 63.865 205.608 66.439 193.557C69.0132 181.505 72.5045 174.735 76.1449 174.735C79.7853 174.735 83.2766 181.505 85.8508 193.557C88.4248 205.608 89.8709 221.952 89.8711 238.995L93.3027 238.995V239L75.7161 239H58.1294ZM93.3027 238.995C93.3025 213.173 91.4497 188.409 88.1517 170.15C84.8536 151.89 80.3803 141.632 75.7161 141.632C71.0518 141.632 66.5786 151.89 63.2804 170.15C59.9825 188.409 58.1296 213.173 58.1294 238.995H52.1244C52.1244 219.559 52.7457 200.314 53.9529 182.358C55.16 164.402 56.9294 148.086 59.1599 134.343C61.3905 120.6 64.0385 109.699 66.9528 102.261C69.8672 94.8234 72.9907 90.9953 76.1452 90.9953C79.2997 90.9953 82.4232 94.8234 85.3376 102.261C88.2519 109.699 90.8999 120.6 93.1305 134.343C95.361 148.086 97.1304 164.402 98.3375 182.358C99.5447 200.314 100.166 219.559 100.166 238.995L93.3027 238.995ZM54.9923 239.001V239.002H75.0694L95.1465 239.002V239.001H100.166V91.0012H52.1244V239.001H54.9923ZM54.9923 239.001H95.1465C95.1465 222.589 94.6272 206.338 93.6182 191.175C92.6092 176.012 91.1304 162.235 89.266 150.629C87.4017 139.024 85.1884 129.818 82.7526 123.538C80.3167 117.257 77.7059 114.024 75.0694 114.024C72.4328 114.024 69.8221 117.257 67.3862 123.538C64.9503 129.818 62.7371 139.024 60.8727 150.629C59.0084 162.235 57.5295 176.012 56.5206 191.175C55.5116 206.338 54.9923 222.589 54.9923 239.001ZM60.0118 239.001C60.0118 217.076 61.6738 196.049 64.6321 180.546C67.5905 165.043 71.6029 156.334 75.7867 156.334C79.9704 156.334 83.9828 165.043 86.9412 180.546C89.8995 196.049 91.5615 217.076 91.5615 239L75.7867 239.001H60.0118Z" fill="#EAFBF0"/>
<rect x="113.98" y="239" width="2.63112" height="148" transform="rotate(180 113.98 239)" fill="#EAFBF0"/>
<rect width="2.63112" height="148" transform="matrix(1 0 0 -1 37.0205 239)" fill="#EAFBF0"/>
<rect x="109.376" y="239" width="4.60446" height="148" transform="rotate(180 109.376 239)" fill="#EAFBF0"/>
<rect width="4.60446" height="148" transform="matrix(1 0 0 -1 41.625 239)" fill="#EAFBF0"/>
<rect x="102.798" y="239" width="7.89336" height="148" transform="rotate(180 102.798 239)" fill="#EAFBF0"/>
<rect width="7.89336" height="148" transform="matrix(1 0 0 -1 48.2021 239)" fill="#EAFBF0"/>
<rect x="113.5" y="238.5" width="76" height="147" transform="rotate(180 113.5 238.5)" stroke="#EAFBF0"/>
<path fill-rule="evenodd" clip-rule="evenodd" d="M2.86 0L0 7.69014C0.996667 6.83568 2.6 5.89577 2.86 9.1L0 16.7901C0.996667 15.9357 2.6 14.9958 2.86 18.2L0 25.8901C0.996667 25.0357 2.6 24.0958 2.86 27.3L0 34.9901C0.996667 34.1357 2.6 33.1958 2.86 36.4L0 44.0901C0.996667 43.2357 2.6 42.2958 2.86 45.5L0 53.1901C0.996667 52.3357 2.6 51.3958 2.86 54.6L0 62.2901C0.996667 61.4357 2.6 60.4958 2.86 63.7L0 71.3901C0.996667 70.5357 2.6 69.5958 2.86 72.8L0 80.4901C0.996667 79.6357 2.6 78.6958 2.86 81.9L0 89.5901C0.996667 88.7357 2.6 87.7958 2.86 91H37.1797L37.18 0H2.86ZM21.4502 18.1992C20.2297 18.1992 19.2402 19.1887 19.2402 20.4092V27.9492C19.2402 29.1698 20.2297 30.1592 21.4502 30.1592C22.6708 30.1592 23.6602 29.1698 23.6602 27.9492V20.4092C23.6602 19.1887 22.6708 18.1992 21.4502 18.1992ZM19.2402 47.9698C19.2402 46.7492 20.2297 45.7598 21.4502 45.7598C22.6708 45.7598 23.6602 46.7492 23.6602 47.9698V55.5098C23.6602 56.7303 22.6708 57.7198 21.4502 57.7198C20.2297 57.7198 19.2402 56.7303 19.2402 55.5098V47.9698ZM21.4502 71.498C20.2297 71.498 19.2402 72.4875 19.2402 73.708V81.248C19.2402 82.4686 20.2297 83.458 21.4502 83.458C22.6708 83.458 23.6602 82.4686 23.6602 81.248V73.708C23.6602 72.4875 22.6708 71.498 21.4502 71.498Z" fill="#EAFBF0"/>
</svg>
