<svg width="194" height="119" viewBox="0 0 194 119" fill="none" xmlns="http://www.w3.org/2000/svg">
<g filter="url(#filter0_d_453_16057)">
<path d="M116.107 86.4786V62.9609C116.107 62.9609 167.217 63.8868 175.55 65.7386C183.883 67.5904 183.512 81.664 175.55 83.7009C167.587 85.7379 116.107 86.4786 116.107 86.4786Z" fill="#828282"/>
<path fill-rule="evenodd" clip-rule="evenodd" d="M117.912 58.752L117.77 61.7114L117.707 63.0061L120.667 63.1486L120.729 61.8538L117.912 58.752ZM121.056 58.9036L120.914 61.863L120.852 63.1578L123.811 63.3002L123.873 62.0055L121.056 58.9036ZM124.06 62.0147L124.202 59.0553L127.019 62.1571L126.957 63.4519L123.998 63.3094L124.06 62.0147ZM127.348 59.2069L127.206 62.1663L127.144 63.4611L130.103 63.6035L130.165 62.3088L127.348 59.2069ZM130.346 62.318L130.488 59.3585L133.305 62.4604L133.243 63.7552L130.284 63.6127L130.346 62.318ZM133.633 59.5102L133.49 62.4696L133.428 63.7644L136.388 63.9068L136.45 62.6121L133.633 59.5102ZM136.636 62.6183L136.779 59.6589L139.596 62.7607L139.533 64.0555L136.574 63.913L136.636 62.6183ZM139.923 59.8105L139.781 62.7699L139.719 64.0647L142.678 64.2071L142.74 62.9124L139.923 59.8105ZM142.927 62.9216L143.069 59.9622L145.886 63.064L145.824 64.3588L142.864 64.2163L142.927 62.9216ZM146.209 60.1138L146.067 63.0732L146.005 64.368L148.964 64.5104L149.026 63.2157L146.209 60.1138ZM149.213 63.2249L149.355 60.2655L152.172 63.3673L152.11 64.6621L149.15 64.5196L149.213 63.2249ZM152.5 60.4171L152.357 63.3765L152.295 64.6713L155.254 64.8137L155.317 63.519L152.5 60.4171ZM155.503 63.5282L155.646 60.5688L158.463 63.6706L158.4 64.9654L155.441 64.8229L155.503 63.5282ZM158.792 60.7204L158.649 63.6798L158.587 64.9746L161.546 65.117L161.609 63.8223L158.792 60.7204ZM161.789 63.8315L161.932 60.8721L164.749 63.9739L164.686 65.2687L161.727 65.1262L161.789 63.8315ZM165.076 61.0207L164.934 63.9802L164.871 65.2749L167.831 65.4173L167.893 64.1226L165.076 61.0207ZM168.08 64.1318L168.222 61.1724L171.039 64.2742L170.977 65.569L168.017 65.4266L168.08 64.1318ZM171.368 61.324L171.226 64.2835L171.163 65.5782L174.123 65.7206L174.185 64.4259L171.368 61.324ZM174.37 64.4351L174.513 61.4757L176.763 63.9534L177.87 62.0362L178.917 65.9455L180.974 63.8887V67.7563L183.47 66.3151L182.446 70.1384L185.04 69.4432L182.945 73.0719L182.661 73.1482H182.962H185.925L182.986 76.0866L185.803 76.8412L182.174 78.9363L181.796 78.8349L182.045 78.9786L184.611 80.46L180.654 81.5201L182.699 83.5643H178.603L180.064 86.0948L176.3 85.0862L176.442 87.9409L173.335 85.1292L173.271 83.8345L175.668 83.7151L177.695 82.5445L179.574 80.666L180.922 78.3304L180.985 78.3667L181.666 75.8255V73.3053L180.926 70.5455L180.985 70.5296L180.084 68.9685L180.057 68.9954L178.216 67.1544L175.88 65.8055L174.308 65.7299L174.37 64.4351ZM173.149 85.1363L173.296 88.0955L170.189 85.2838L170.125 83.9891L173.084 83.8417L173.149 85.1363ZM170.156 88.2531L170.009 85.2939L169.944 83.9993L166.985 84.1467L167.049 85.4414L170.156 88.2531ZM166.864 85.4515L167.012 88.4107L163.905 85.599L163.84 84.3043L166.8 84.1569L166.864 85.4515ZM163.866 88.5683L163.718 85.6091L163.654 84.3144L160.694 84.4619L160.759 85.7566L163.866 88.5683ZM160.572 85.7637L160.72 88.7229L157.613 85.9112L157.549 84.6165L160.508 84.4691L160.572 85.7637ZM157.575 88.8805L157.428 85.9213L157.363 84.6267L154.404 84.7741L154.469 86.0688L157.575 88.8805ZM154.288 86.0789L154.435 89.0381L151.329 86.2264L151.264 84.9317L154.223 84.7843L154.288 86.0789ZM151.289 89.1927L151.142 86.2335L151.077 84.9389L148.118 85.0864L148.183 86.381L151.289 89.1927ZM147.996 86.3911L148.143 89.3503L145.037 86.5386L144.972 85.244L147.931 85.0965L147.996 86.3911ZM144.999 89.5079L144.851 86.5487L144.787 85.2541L141.828 85.4015L141.892 86.6962L144.999 89.5079ZM141.711 86.7033L141.859 89.6625L138.752 86.8508L138.688 85.5562L141.647 85.4087L141.711 86.7033ZM138.713 89.8201L138.565 86.8609L138.501 85.5663L135.542 85.7138L135.606 87.0084L138.713 89.8201ZM135.419 87.0185L135.567 89.9777L132.46 87.166L132.396 85.8714L135.355 85.7239L135.419 87.0185ZM132.422 90.1353L132.275 87.1761L132.21 85.8815L129.251 86.029L129.316 87.3236L132.422 90.1353ZM129.129 87.3307L129.276 90.2899L126.17 87.4782L126.105 86.1836L129.064 86.0361L129.129 87.3307ZM126.136 90.4475L125.989 87.4883L125.924 86.1937L122.965 86.3412L123.03 87.6358L126.136 90.4475ZM122.843 87.6459L122.99 90.6051L119.884 87.7934L119.819 86.4988L122.778 86.3513L122.843 87.6459ZM119.846 90.7597L119.699 87.8006L119.634 86.5059L116.675 86.6534L116.739 87.948L119.846 90.7597Z" fill="#BDBDBD"/>
<path d="M56.8487 70.7391L52.96 64.2578L56.8487 64.9985L60.7375 71.2946L56.8487 70.7391Z" fill="#1C9045"/>
<path d="M63.3301 63.8876L61.8486 62.0358L75.3667 53.5176L77.9591 54.999L63.3301 63.8876Z" fill="#1C9045"/>
<path d="M43.5169 50.5556L38.3319 41.4819L70.553 39.2598L77.0342 51.1112L90.367 51.1112L85.182 59.259L69.0715 69.9994V90.5542L75.9231 95.1836L72.2196 105.554H63.331L18.703 109.072L17.2216 110.739H4.99982L0 95.1836L4.99982 84.2581L4.99982 66.2958L11.4811 62.5922V84.2581L7.03678 88.332L11.4811 95.1836L63.331 90.5542L64.8124 84.2581L54.998 74.0733L48.3316 78.7027L43.5169 77.962V50.5556Z" fill="#4F4F4F"/>
<path fill-rule="evenodd" clip-rule="evenodd" d="M87.0281 51.1092H77.2137L70.7324 39.2578L37.9559 41.4799L35.7337 36.295L46.2889 27.036H53.3257L58.3255 11.6662L77.9544 0L82.9542 0L107.398 39.2578L112.432 51.6646H117.583L120.731 56.8495L117.583 58.7013V101.107L115.546 97.2184H84.621V95.9222H74.6213L68.8808 92.0334V69.9972L84.621 58.7013L89.2504 51.6646H99.5895L103.139 43.1465V39.2578L80.1765 4.44428L77.0285 4.44428L64.4364 11.6662V14.4439L87.0281 51.1092ZM50.9201 57.4068L43.1426 49.259C43.1426 53.1107 40.3032 56.2958 38.8835 57.4068C24.5137 57.4068 13.761 60.9869 10.1809 62.777L11.2919 84.6281L8.32908 85.9243L6.84766 88.8871L38.8835 77.4061H43.1426L53.5126 69.8138L49.0683 63.7029L50.9201 57.4068ZM47.774 79.0716C47.6506 80.2444 48.5147 82.4048 52.959 81.6641L56.2921 77.7754H59.4401L54.8106 72.9608L47.774 79.0716Z" fill="#EB5757"/>
<path d="M96.8496 70.1836H117.59V82.7757H96.8496V70.1836Z" fill="#4F4F4F"/>
<circle cx="110.924" cy="76.8498" r="4.81464" fill="white"/>
</g>
<defs>
<filter id="filter0_d_453_16057" x="0" y="0" width="193.925" height="118.738" filterUnits="userSpaceOnUse" color-interpolation-filters="sRGB">
<feFlood flood-opacity="0" result="BackgroundImageFix"/>
<feColorMatrix in="SourceAlpha" type="matrix" values="0 0 0 0 0 0 0 0 0 0 0 0 0 0 0 0 0 0 127 0" result="hardAlpha"/>
<feOffset dx="4" dy="4"/>
<feGaussianBlur stdDeviation="2"/>
<feComposite in2="hardAlpha" operator="out"/>
<feColorMatrix type="matrix" values="0 0 0 0 0.97125 0 0 0 0 0.958217 0 0 0 0 0.645417 0 0 0 1 0"/>
<feBlend mode="normal" in2="BackgroundImageFix" result="effect1_dropShadow_453_16057"/>
<feBlend mode="normal" in="SourceGraphic" in2="effect1_dropShadow_453_16057" result="shape"/>
</filter>
</defs>
</svg>
