<svg width="122" height="122" viewBox="0 0 122 122" fill="none" xmlns="http://www.w3.org/2000/svg">
<circle cx="61" cy="61" r="61" fill="#EAFBF0"/>
<path d="M10.4001 64.9509L9.91578 60.1074H18.1695L17.7658 64.9509H10.4001Z" fill="#2D9CDB" stroke="#2D9CDB"/>
<path d="M8.6817 69.2482L12.2852 71.0987C13.2201 71.0987 13.1942 70.5143 13.0644 70.2222L11.1165 68.0795C10.8828 68.0016 10.6296 67.5926 10.5322 67.3978L10.4348 63.6969C10.3374 62.723 8.87652 62.1387 8.48696 62.1387C8.1753 62.1387 8.03246 62.5282 8 62.723C8.09738 64.2813 8.27266 67.5536 8.19475 68.1769C8.11683 68.8002 8.48692 69.1508 8.6817 69.2482Z" fill="white"/>
<path d="M19.4609 69.2482L15.8574 71.0987C14.9225 71.0987 14.9484 70.5143 15.0782 70.2222L17.0261 68.0795C17.2598 68.0016 17.513 67.5926 17.6104 67.3978L17.7078 63.6969C17.8052 62.723 19.2661 62.1387 19.6556 62.1387C19.9673 62.1387 20.1101 62.5282 20.1426 62.723C20.0452 64.2813 19.8699 67.5536 19.9478 68.1769C20.0257 68.8002 19.6557 69.1508 19.4609 69.2482Z" fill="white"/>
<circle cx="9.1678" cy="63.8924" r="0.5" stroke="#2D9CDB" stroke-width="0.558262"/>
<circle cx="0.779131" cy="0.779131" r="0.5" transform="matrix(-1 0 0 1 19.6875 63.1133)" stroke="#2D9CDB" stroke-width="0.558262"/>
<circle cx="9.36312" cy="67.5916" r="0.5" stroke="#2D9CDB" stroke-width="0.558262"/>
<circle cx="0.779131" cy="0.779131" r="0.5" transform="matrix(-1 0 0 1 19.4922 66.8125)" stroke="#2D9CDB" stroke-width="0.558262"/>
<path d="M11.9933 57.0742H16.376L16.5707 59.6064H11.7012L11.9933 57.0742Z" fill="#2D9CDB"/>
<path d="M10.1743 51.8343C10.0565 51.2178 10.529 50.6465 11.1566 50.6465H17.0961C17.7294 50.6465 18.2032 51.2278 18.0755 51.8481L17.1238 56.4708C17.0281 56.9356 16.6189 57.2691 16.1444 57.2691H12.0403C11.5604 57.2691 11.1482 56.9282 11.0581 56.4569L10.1743 51.8343Z" fill="#2D9CDB"/>
<path d="M90.9413 33.9824H82.1993C72.0472 37.8124 70.0732 51.633 70.3552 58.0646H106.028V49.5053C105.577 46.7199 104.242 46.5071 103.631 46.7489H92.6334V35.9299C92.6334 35.0801 91.5054 34.2775 90.9413 33.9824Z" fill="#F2C94C"/>
<path d="M53.3757 25.5176L53.8696 23.7656L36.7361 17.749L36.0944 19.7139L53.3757 25.5176Z" fill="white"/>
<path d="M52.2081 25.3801L53.5635 22.9073L73.4114 31.5176L72.056 33.9903L64.1291 30.5806L52.2081 25.3801Z" fill="#F2C94C"/>
<path d="M36.8993 16.5586L11.1172 50.132L17.6169 49.0618L36.8993 31.7162V16.5586Z" fill="#F2C94C"/>
<path d="M23.0152 33.6985L21.7403 32.9902L14.5156 42.4815L15.9322 43.3314L23.0152 33.6985Z" fill="white"/>
<path d="M15.3657 43.5549L13.7344 42.1992L9.41602 49.8489H11.2393L15.3657 43.5549Z" fill="#F2C94C"/>
<rect x="9.41602" y="47.8652" width="9.34957" height="2.8332" fill="white"/>
<path d="M22.7331 34.4083L21.0332 32.9917L30.6661 22.3672L32.366 23.7838L28.5412 28.0336L22.7331 34.4083Z" fill="#F2C94C"/>
<path d="M60.2726 34.8327L36.332 31.5745V28.3164C40.0152 28.3164 51.0062 26.9849 63.3891 28.3163C76.5635 29.7328 78.5468 33.7466 78.6884 35.8243V46.5905H68.7722V41.774C67.4123 37.1276 62.5392 35.2105 60.2726 34.8327Z" fill="#F2C94C"/>
<path d="M67.4979 46.4492H80.6723V58.0654H65.373V49.1408C65.373 46.9875 66.7896 46.4492 67.4979 46.4492Z" fill="#F2C94C"/>
<path d="M82.23 33.9824C72.3644 34.1184 69.4308 49.905 69.1973 57.7813H70.8789C70.8789 42.414 78.4463 37.3256 82.23 36.7023V33.9824Z" fill="#828282"/>
<path d="M64.9473 62.5987L83.0798 57.6406H92.4293L83.0798 68.2651H64.9473V62.5987Z" fill="#D9D9D9"/>
<path d="M80.1054 38.7988H84.4968V48.715C81.3237 48.4884 78.8779 51.8316 78.5473 53.5315H72.8809C73.7308 46.5901 77.9333 40.8765 80.1054 38.7988Z" fill="#828282"/>
<rect x="85.6289" y="38.7988" width="3.96648" height="9.91621" fill="#828282"/>
<rect x="72.8809" y="54.6641" width="5.38309" height="1.98324" fill="#828282"/>
<rect x="64.9473" y="57.2148" width="41.3648" height="4.2498" fill="#F2C94C"/>
<path d="M65.09 68.4053V58.9141L57.582 68.4053H65.09Z" fill="#828282"/>
<path d="M67.4303 60.473C67.9969 59.1131 92.1264 57.7343 104.12 57.2148C111.147 62.2013 107.048 66.9422 104.12 68.6893C95.7623 68.9726 77.2331 69.3693 69.9801 68.6893C60.9139 67.8394 66.722 62.1729 67.4303 60.473Z" fill="#828282" stroke="#4F4F4F"/>
<circle cx="70.1897" cy="64.4397" r="2.97486" fill="#D9D9D9"/>
<path d="M74.3164 62.2207L104.839 60.1661L106.312 62.2207L105.124 64.4063L74.6018 66.4609L74.3164 62.2207Z" fill="#D9D9D9"/>
<path d="M91.8382 91.9412C91.8219 91.7022 90.6031 92.0834 89.9828 89.4412C87.8173 80.2485 81.5057 58 58.4302 58L58.4248 58.6137L58.4194 58C35.2787 58 29.5982 79.4087 27.4381 88.7758C26.7689 91.6635 25.0332 91.6893 25.0114 91.9477C24.8264 94.3379 26.8831 97.7101 31.4373 101.037C38.1842 105.96 49.7464 108.608 58.4194 108.615H58.4302C67.1033 108.615 78.6654 105.96 85.4123 101.037C89.9665 97.7101 92.0232 94.3379 91.8382 91.9412Z" fill="white"/>
<path d="M31.6855 93.334C47.0465 98.4273 71.3268 98.4273 84.2102 93.334" stroke="#E0E0E0"/>
<path fill-rule="evenodd" clip-rule="evenodd" d="M59.8917 79.0098H56.248V83.8711H50.7852V88.1248H56.248V92.3699H59.8917V88.1248H65.3599V83.8711H59.8917V79.0098Z" fill="#1C9045"/>
</svg>
