<svg width="122" height="122" viewBox="0 0 122 122" fill="none" xmlns="http://www.w3.org/2000/svg">
<circle cx="61" cy="61" r="61" fill="#EAFBF0"/>
<path d="M71.1738 68.3514V57.3945C71.1738 57.3945 94.9857 57.8259 98.868 58.6887C102.75 59.5514 102.578 66.1083 98.868 67.0573C95.1582 68.0063 71.1738 68.3514 71.1738 68.3514Z" fill="#828282"/>
<path fill-rule="evenodd" clip-rule="evenodd" d="M72.0204 55.4336L71.9541 56.8124L71.925 57.4156L73.3038 57.482L73.3329 56.8788L72.0204 55.4336ZM73.4853 55.5039L73.4189 56.8827L73.3899 57.4859L74.7687 57.5523L74.7977 56.9491L73.4853 55.5039ZM74.8837 56.953L74.9501 55.5742L76.2625 57.0194L76.2335 57.6226L74.8547 57.5562L74.8837 56.953ZM76.415 55.6465L76.3486 57.0253L76.3196 57.6285L77.6984 57.6949L77.7274 57.0916L76.415 55.6465ZM77.8115 57.0956L77.8778 55.7168L79.1903 57.162L79.1612 57.7652L77.7824 57.6988L77.8115 57.0956ZM79.3446 55.7871L79.2783 57.1659L79.2492 57.7691L80.628 57.8355L80.6571 57.2323L79.3446 55.7871ZM80.7431 57.2343L80.8095 55.8555L82.1219 57.3006L82.0929 57.9039L80.7141 57.8375L80.7431 57.2343ZM82.2763 55.9277L82.2099 57.3065L82.1809 57.9098L83.5597 57.9761L83.5887 57.3729L82.2763 55.9277ZM83.6748 57.3768L83.7411 55.998L85.0536 57.4432L85.0245 58.0464L83.6457 57.9801L83.6748 57.3768ZM85.204 56.0684L85.1377 57.4472L85.1086 58.0504L86.4874 58.1167L86.5165 57.5135L85.204 56.0684ZM86.6025 57.5175L86.6689 56.1387L87.9813 57.5838L87.9523 58.1871L86.5735 58.1207L86.6025 57.5175ZM88.1337 56.209L88.0673 57.5878L88.0383 58.191L89.4171 58.2574L89.4461 57.6541L88.1337 56.209ZM89.5341 57.6581L89.6005 56.2793L90.9129 57.7245L90.8839 58.3277L89.5051 58.2613L89.5341 57.6581ZM91.0653 56.3516L90.999 57.7304L90.9699 58.3336L92.3487 58.4L92.3778 57.7967L91.0653 56.3516ZM92.4619 57.8007L92.5282 56.4219L93.8407 57.867L93.8116 58.4703L92.4328 58.4039L92.4619 57.8007ZM93.995 56.4902L93.9287 57.869L93.8996 58.4723L95.2784 58.5386L95.3075 57.9354L93.995 56.4902ZM95.3935 57.9393L95.4599 56.5605L96.7723 58.0057L96.7433 58.6089L95.3645 58.5426L95.3935 57.9393ZM96.9247 56.6328L96.8584 58.0116L96.8293 58.6148L98.2081 58.6812L98.2372 58.078L96.9247 56.6328ZM98.3232 58.0819L98.3896 56.7031L99.4365 57.8559L99.9521 56.9629L100.44 58.7836L101.398 57.826L101.398 59.629L102.561 58.957L102.084 60.7376L103.292 60.4141L102.316 62.1047L102.182 62.1406H102.324H103.704L102.335 63.5097L103.647 63.8613L101.957 64.8374L101.783 64.791L101.897 64.8567L103.093 65.5469L101.25 66.0405L102.202 66.9922H100.293L100.974 68.1718L99.2198 67.7019L99.286 69.0312L97.8387 67.7213L97.8086 67.1181L98.9266 67.0624L99.8707 66.5173L100.747 65.6409L101.374 64.5547L101.403 64.5712L101.72 63.3887V62.2133L101.375 60.9276L101.403 60.9201L100.983 60.1924L100.971 60.2052L100.112 59.3464L99.0276 58.7205L98.2942 58.6852L98.3232 58.0819ZM97.7544 67.7248L97.8232 69.1035L96.3758 67.7935L96.3457 67.1904L97.7244 67.1217L97.7544 67.7248ZM96.3603 69.1758L96.2916 67.7971L96.2615 67.1939L94.8828 67.2626L94.9129 67.8658L96.3603 69.1758ZM94.8248 67.8713L94.8935 69.25L93.4461 67.94L93.416 67.3368L94.7947 67.2681L94.8248 67.8713ZM93.4286 69.3223L93.3599 67.9436L93.3299 67.3404L91.9512 67.4091L91.9812 68.0123L93.4286 69.3223ZM91.8931 68.0158L91.9618 69.3945L90.5144 68.0846L90.4844 67.4814L91.8631 67.4127L91.8931 68.0158ZM90.497 69.4688L90.4283 68.0901L90.3982 67.4869L89.0195 67.5556L89.0496 68.1588L90.497 69.4688ZM88.9654 68.1643L89.0341 69.543L87.5867 68.233L87.5566 67.6298L88.9353 67.5611L88.9654 68.1643ZM87.5693 69.6133L87.5005 68.2346L87.4705 67.6314L86.0918 67.7001L86.1219 68.3033L87.5693 69.6133ZM86.0357 68.3088L86.1044 69.6875L84.657 68.3775L84.627 67.7743L86.0056 67.7056L86.0357 68.3088ZM84.6376 69.7617L84.5689 68.383L84.5388 67.7799L83.1602 67.8486L83.1902 68.4517L84.6376 69.7617ZM83.106 68.4533L83.1747 69.832L81.7273 68.5221L81.6973 67.9189L83.076 67.8502L83.106 68.4533ZM81.7099 69.9062L81.6412 68.5276L81.6111 67.9244L80.2324 67.9931L80.2625 68.5963L81.7099 69.9062ZM80.1744 68.6018L80.2431 69.9805L78.7957 68.6705L78.7656 68.0673L80.1443 67.9986L80.1744 68.6018ZM78.7782 70.0527L78.7095 68.674L78.6795 68.0709L77.3008 68.1396L77.3308 68.7428L78.7782 70.0527ZM77.2447 68.7463L77.3134 70.125L75.866 68.815L75.8359 68.2118L77.2146 68.1431L77.2447 68.7463ZM75.8505 70.1992L75.7818 68.8205L75.7517 68.2174L74.373 68.2861L74.4031 68.8892L75.8505 70.1992ZM74.3169 68.8928L74.3857 70.2715L72.9383 68.9615L72.9082 68.3583L74.2869 68.2896L74.3169 68.8928ZM72.9189 70.3438L72.8502 68.9651L72.8201 68.3619L71.4414 68.4306L71.4715 69.0338L72.9189 70.3438Z" fill="#BDBDBD"/>
<path d="M43.5657 61.0177L41.7539 57.998L43.5657 58.3431L45.3774 61.2765L43.5657 61.0177Z" fill="#1C9045"/>
<path d="M46.5847 57.8255L45.8945 56.9628L52.1926 52.9941L53.4004 53.6843L46.5847 57.8255Z" fill="#1C9045"/>
<path d="M37.3546 51.6143L34.939 47.3869L49.9508 46.3516L52.9704 51.8731H59.1822L56.7665 55.6692L49.2606 60.6732V70.2497L52.4527 72.4065L50.7272 77.2379H46.586L25.7938 78.8771L25.1036 79.6536H19.4095L17.0801 72.4065L19.4095 67.3163V58.9477L22.4291 57.2222V67.3163L20.3585 69.2144L22.4291 72.4065L46.586 70.2497L47.2762 67.3163L42.7037 62.5712L39.5978 64.7281L37.3546 64.383V51.6143Z" fill="#4F4F4F"/>
<path fill-rule="evenodd" clip-rule="evenodd" d="M57.6266 51.8724H53.0541L50.0344 46.3508L34.7638 47.3861L33.7285 44.9704L38.6462 40.6567H41.9246L44.254 33.4959L53.3992 28.0605H55.7286L67.1168 46.3508L69.4624 52.1309H71.8612L73.3278 54.5466L71.8612 55.4093V75.1662L70.9121 73.3545H56.5043V72.7505H51.8454L49.1709 70.9388V60.6721L56.5043 55.4093L58.6611 52.1309H63.4791L65.1325 48.1626V46.3508L54.4345 30.1311H52.9678L47.1011 33.4959V34.79L57.6266 51.8724ZM40.8029 54.8059L37.1794 51.0098C37.1794 52.8043 35.8565 54.2882 35.1951 54.8059C28.5001 54.8059 23.4905 56.4738 21.8225 57.3078L22.3401 67.4882L20.9597 68.0922L20.2695 69.4726L35.1951 64.1235H37.1794L42.0108 60.5863L39.9402 57.7392L40.8029 54.8059ZM39.3372 64.8998C39.2796 65.4462 39.6823 66.4527 41.7529 66.1076L43.3057 64.2959H44.7724L42.6155 62.0527L39.3372 64.8998Z" fill="#EB5757"/>
<path d="M62.2031 60.7578H71.8659V66.6245H62.2031V60.7578Z" fill="#4F4F4F"/>
<circle cx="68.7588" cy="63.8662" r="2.24314" fill="white"/>
</svg>
