<svg width="122" height="122" viewBox="0 0 122 122" fill="none" xmlns="http://www.w3.org/2000/svg">
<circle cx="61" cy="61" r="61" fill="#EAFBF0"/>
<rect x="56.418" y="68.5215" width="15.2252" height="3.23941" fill="#BCDDC8"/>
<rect x="45.1445" y="61.0176" width="2.44092" height="11.391" fill="#D9D9D9"/>
<rect x="45.293" y="71.7617" width="41.0325" height="1.40374" fill="#4F4F4F"/>
<rect x="38.8125" y="73.166" width="43.732" height="29.3706" fill="#BCDDC8"/>
<rect x="47.1289" y="58.1562" width="24.5115" height="10.3661" fill="#BDBDBD"/>
<rect x="72.0703" y="58.1562" width="14.2534" height="10.3661" fill="#BDBDBD"/>
<rect x="72.0703" y="68.5215" width="14.2534" height="3.23941" fill="#BCDDC8"/>
<rect x="49.1797" y="61.2871" width="3.23941" height="3.45537" fill="#F2994A"/>
<rect x="49.1797" y="58.373" width="3.23941" height="2.91547" fill="#4F4F4F"/>
<path fill-rule="evenodd" clip-rule="evenodd" d="M52.9577 62.1543H52.4178V64.7458H52.9577V62.1543ZM52.959 64.7461H49.1797V68.5254H52.959V64.7461Z" fill="#F2C94C"/>
<rect x="49.7227" y="65.2852" width="2.80749" height="3.23941" fill="#E0E0E0"/>
<rect x="52.4219" y="57.5098" width="0.539901" height="4.64315" fill="#828282"/>
<rect x="74.9883" y="33.1035" width="1.18778" height="24.2956" fill="#4F4F4F"/>
<rect x="70.3438" y="42.8223" width="3.23941" height="15.8731" fill="#F2994A"/>
<circle cx="35.5211" cy="72.6812" r="5.02108" fill="#BCDDC8"/>
<path fill-rule="evenodd" clip-rule="evenodd" d="M35.4128 75.7749C37.1218 75.7749 38.5073 74.3894 38.5073 72.6804C38.5073 70.9714 37.1218 69.5859 35.4128 69.5859C33.7038 69.5859 32.3184 70.9714 32.3184 72.6804C32.3184 74.3894 33.7038 75.7749 35.4128 75.7749ZM35.4128 76.4057C37.4703 76.4057 39.1381 74.7378 39.1381 72.6804C39.1381 70.623 37.4703 68.9551 35.4128 68.9551C33.3554 68.9551 31.6875 70.623 31.6875 72.6804C31.6875 74.7378 33.3554 76.4057 35.4128 76.4057Z" fill="#4F4F4F"/>
<path fill-rule="evenodd" clip-rule="evenodd" d="M35.4137 74.8019C36.586 74.8019 37.5363 73.8516 37.5363 72.6793C37.5363 71.507 36.586 70.5566 35.4137 70.5566C34.2414 70.5566 33.291 71.507 33.291 72.6793C33.291 73.8516 34.2414 74.8019 35.4137 74.8019ZM35.4137 75.4328C36.9344 75.4328 38.1672 74.2 38.1672 72.6793C38.1672 71.1586 36.9344 69.9258 35.4137 69.9258C33.8929 69.9258 32.6602 71.1586 32.6602 72.6793C32.6602 74.2 33.8929 75.4328 35.4137 75.4328Z" fill="#4F4F4F"/>
<path fill-rule="evenodd" clip-rule="evenodd" d="M35.4665 73.9389C36.1319 73.9389 36.6713 73.3995 36.6713 72.7341C36.6713 72.0687 36.1319 71.5293 35.4665 71.5293C34.8011 71.5293 34.2617 72.0687 34.2617 72.7341C34.2617 73.3995 34.8011 73.9389 35.4665 73.9389ZM35.4665 74.5698C36.4803 74.5698 37.3022 73.7479 37.3022 72.7341C37.3022 71.7203 36.4803 70.8984 35.4665 70.8984C34.4527 70.8984 33.6309 71.7203 33.6309 72.7341C33.6309 73.7479 34.4527 74.5698 35.4665 74.5698Z" fill="#4F4F4F"/>
<rect x="34.709" y="68.4141" width="1.6197" height="3.77931" fill="#BCDDC8"/>
<rect x="34.7441" y="72.1953" width="1.6197" height="3.77931" transform="rotate(60 34.7441 72.1953)" fill="#BCDDC8"/>
<rect width="1.6197" height="3.77931" transform="matrix(-0.5 0.866025 0.866025 0.5 36.3867 72.1953)" fill="#BCDDC8"/>
<rect x="38.8125" y="50.8125" width="6.47882" height="27.9669" fill="#4F4F4F"/>
<rect x="38.8125" y="41.4199" width="6.47882" height="9.39428" fill="#828282"/>
<path d="M38.8125 27.2579C38.8125 20.2896 44.4614 14.6406 51.4298 14.6406H68.6315C75.5998 14.6406 81.2487 20.2896 81.2487 27.2579V42.8235H38.8125V27.2579Z" fill="#BCDDC8"/>
<rect x="81.1445" y="37.9648" width="1.72768" height="3.99527" fill="#4F4F4F"/>
<rect x="82.8691" y="38.7188" width="2.15961" height="1.29576" fill="#4F4F4F"/>
<rect x="85.0312" y="36.1289" width="1.29576" height="6.5868" fill="#4F4F4F"/>
<rect x="57.1738" y="31.5938" width="1.51172" height="1.51172" rx="0.755862" fill="#828282" stroke="#4F4F4F" stroke-width="1.51172"/>
<rect x="73.584" y="55.0254" width="2.80749" height="1.72768" fill="#4F4F4F"/>
<rect x="38.8125" y="96.8145" width="6.47882" height="5.72295" fill="#BCDDC8"/>
<rect x="38.8125" y="102.537" width="7.01872" height="4.85911" fill="#BCDDC8"/>
<rect x="75.6348" y="102.537" width="7.01872" height="4.85911" fill="#BCDDC8"/>
<circle cx="40.6504" cy="45.7383" r="0.755862" fill="#D9D9D9"/>
<circle cx="40.6504" cy="47.6816" r="0.755862" fill="#D9D9D9"/>
<circle cx="42.8106" cy="45.7383" r="0.755862" fill="#D9D9D9"/>
<circle cx="42.8106" cy="47.6816" r="0.755862" fill="#D9D9D9"/>
<rect x="71.5312" y="58.6973" width="0.539901" height="5.61497" fill="#4F4F4F"/>
<path d="M46.9102 68.5215H56.4124V74.6764H46.9102V68.5215Z" fill="#BCDDC8"/>
<path fill-rule="evenodd" clip-rule="evenodd" d="M56.097 68.8369H47.2256V74.3609H56.097V68.8369ZM46.9102 68.5215V74.6764H56.4124V68.5215H46.9102Z" fill="#828282"/>
<path fill-rule="evenodd" clip-rule="evenodd" d="M51.6045 75.5586C53.1346 75.5586 54.375 74.3182 54.375 72.7881C54.375 71.258 53.1346 70.0176 51.6045 70.0176C50.0744 70.0176 48.834 71.258 48.834 72.7881C48.834 74.3182 50.0744 75.5586 51.6045 75.5586ZM51.6045 76.1895C53.483 76.1895 55.0059 74.6666 55.0059 72.7881C55.0059 70.9096 53.483 69.3867 51.6045 69.3867C49.726 69.3867 48.2031 70.9096 48.2031 72.7881C48.2031 74.6666 49.726 76.1895 51.6045 76.1895Z" fill="#828282"/>
<circle cx="48.1505" cy="69.8712" r="0.5" fill="#828282" stroke="#828282" stroke-width="0.187783"/>
<circle cx="54.9513" cy="69.8712" r="0.5" fill="#828282" stroke="#828282" stroke-width="0.187783"/>
<circle cx="51.6118" cy="72.895" r="1.02581" fill="#828282"/>
<rect x="51.123" y="69.6035" width="1.0798" height="3.23941" fill="#828282"/>
<rect x="54.6836" y="73.9219" width="1.0798" height="3.23941" transform="rotate(120 54.6836 73.9219)" fill="#828282"/>
<rect width="1.0798" height="3.23941" transform="matrix(0.5 0.866025 0.866025 -0.5 48.6367 73.9219)" fill="#828282"/>
<rect x="81.1445" y="27.8145" width="1.40374" height="3.56335" fill="#828282"/>
</svg>
