<svg width="146" height="239" viewBox="0 0 146 239" fill="none" xmlns="http://www.w3.org/2000/svg">
<mask id="path-1-inside-1_454_16809" fill="white">
<path fill-rule="evenodd" clip-rule="evenodd" d="M49.7869 0L83.0869 39.0908H67.8712L93.1019 68.7231H77.8969L100.15 95.138H0L22.2535 68.7231H6.47178L31.7025 39.0908H16.4869L49.7869 0Z"/>
</mask>
<path fill-rule="evenodd" clip-rule="evenodd" d="M49.7869 0L83.0869 39.0908H67.8712L93.1019 68.7231H77.8969L100.15 95.138H0L22.2535 68.7231H6.47178L31.7025 39.0908H16.4869L49.7869 0Z" fill="white"/>
<path d="M83.0869 39.0908V41.0908H87.4179L84.6094 37.7938L83.0869 39.0908ZM49.7869 0L51.3094 -1.29694L49.7869 -3.08417L48.2644 -1.29694L49.7869 0ZM67.8712 39.0908V37.0908H63.5415L66.3484 40.3873L67.8712 39.0908ZM93.1019 68.7231V70.7231H97.4316L94.6247 67.4265L93.1019 68.7231ZM77.8969 68.7231V66.7231H73.5968L76.3673 70.0117L77.8969 68.7231ZM100.15 95.138V97.138H104.45L101.68 93.8494L100.15 95.138ZM0 95.138L-1.52956 93.8494L-4.30005 97.138H0V95.138ZM22.2535 68.7231L23.7831 70.0117L26.5536 66.7231H22.2535V68.7231ZM6.47178 68.7231L4.949 67.4265L2.14209 70.7231H6.47178V68.7231ZM31.7025 39.0908L33.2253 40.3873L36.0322 37.0908H31.7025V39.0908ZM16.4869 39.0908L14.9644 37.7938L12.1559 41.0908H16.4869V39.0908ZM84.6094 37.7938L51.3094 -1.29694L48.2644 1.29694L81.5644 40.3877L84.6094 37.7938ZM67.8712 41.0908H83.0869V37.0908H67.8712V41.0908ZM94.6247 67.4265L69.394 37.7942L66.3484 40.3873L91.5791 70.0197L94.6247 67.4265ZM77.8969 70.7231H93.1019V66.7231H77.8969V70.7231ZM76.3673 70.0117L98.6208 96.4266L101.68 93.8494L79.4265 67.4345L76.3673 70.0117ZM100.15 93.138H0V97.138H100.15V93.138ZM1.52956 96.4266L23.7831 70.0117L20.7239 67.4345L-1.52956 93.8494L1.52956 96.4266ZM6.47178 70.7231H22.2535V66.7231H6.47178V70.7231ZM30.1797 37.7942L4.949 67.4265L7.99456 70.0197L33.2253 40.3873L30.1797 37.7942ZM16.4869 41.0908H31.7025V37.0908H16.4869V41.0908ZM48.2644 -1.29694L14.9644 37.7938L18.0094 40.3877L51.3094 1.29694L48.2644 -1.29694Z" fill="#EAFBF0" mask="url(#path-1-inside-1_454_16809)"/>
<path fill-rule="evenodd" clip-rule="evenodd" d="M95.118 46.8633L128.418 85.954H113.202L138.433 115.586H123.228L145.481 142.001H45.3311L67.5846 115.586H51.8028L77.0335 85.954H61.818L95.118 46.8633Z" fill="#EAFBF0"/>
<rect x="2.74121" y="182" width="54" height="56.5" fill="#EAFBF0"/>
<path d="M56.2412 181.75C56.2412 184.964 53.4638 188.026 48.6196 190.313C43.814 192.583 37.1401 194 29.7412 194C22.3423 194 15.6684 192.583 10.8628 190.313C6.01864 188.026 3.24121 184.964 3.24121 181.75C3.24121 178.536 6.01864 175.474 10.8628 173.187C15.6684 170.917 22.3423 169.5 29.7412 169.5C37.1401 169.5 43.814 170.917 48.6196 173.187C53.4638 175.474 56.2412 178.536 56.2412 181.75Z" fill="white" stroke="#EAFBF0"/>
<path d="M50.7412 181.75C50.7412 184.273 48.5522 186.71 44.6576 188.546C40.8021 190.363 35.4405 191.5 29.4912 191.5C23.542 191.5 18.1804 190.363 14.3248 188.546C10.4302 186.71 8.24121 184.273 8.24121 181.75C8.24121 179.227 10.4302 176.79 14.3248 174.954C18.1804 173.137 23.542 172 29.4912 172C35.4405 172 40.8021 173.137 44.6576 174.954C48.5522 176.79 50.7412 179.227 50.7412 181.75Z" fill="white" stroke="#EAFBF0"/>
<path d="M38.7412 181.75C38.7412 181.938 38.4853 182.756 36.5424 183.643C34.7769 184.449 32.1975 185 29.2412 185C26.2849 185 23.7055 184.449 21.9401 183.643C19.9971 182.756 19.7412 181.938 19.7412 181.75C19.7412 181.562 19.9971 180.744 21.9401 179.857C23.7055 179.051 26.2849 178.5 29.2412 178.5C32.1975 178.5 34.7769 179.051 36.5424 179.857C38.4853 180.744 38.7412 181.562 38.7412 181.75Z" fill="#EAFBF0" stroke="#EAFBF0" stroke-width="4"/>
<rect x="67.7412" y="145" width="54" height="94" fill="#EAFBF0"/>
<path d="M121.241 145C121.241 148.288 118.456 151.411 113.616 153.742C108.812 156.055 102.139 157.5 94.7412 157.5C87.3436 157.5 80.6709 156.055 75.8662 153.742C71.026 151.411 68.2412 148.288 68.2412 145C68.2412 141.712 71.026 138.589 75.8662 136.258C80.6709 133.945 87.3436 132.5 94.7412 132.5C102.139 132.5 108.812 133.945 113.616 136.258C118.456 138.589 121.241 141.712 121.241 145Z" fill="white" stroke="#EAFBF0"/>
<path d="M116.241 144.5C116.241 147.096 114.019 149.594 110.082 151.473C106.182 153.335 100.759 154.5 94.7412 154.5C88.7237 154.5 83.3005 153.335 79.4002 151.473C75.4631 149.594 73.2412 147.096 73.2412 144.5C73.2412 141.904 75.4631 139.406 79.4002 137.527C83.3005 135.665 88.7237 134.5 94.7412 134.5C100.759 134.5 106.182 135.665 110.082 137.527C114.019 139.406 116.241 141.904 116.241 144.5Z" fill="white" stroke="#EAFBF0"/>
<path d="M112.241 145C112.241 145.942 111.814 146.877 110.964 147.769C110.113 148.664 108.857 149.493 107.266 150.2C104.086 151.613 99.6586 152.5 94.7412 152.5C89.8239 152.5 85.3961 151.613 82.2164 150.2C80.6259 149.493 79.3697 148.664 78.5179 147.769C77.6686 146.877 77.2412 145.942 77.2412 145C77.2412 144.058 77.6686 143.123 78.5179 142.231C79.3697 141.336 80.6259 140.507 82.2164 139.8C85.3961 138.387 89.8239 137.5 94.7412 137.5C99.6586 137.5 104.086 138.387 107.266 139.8C108.857 140.507 110.113 141.336 110.964 142.231C111.814 143.123 112.241 144.058 112.241 145Z" fill="white" stroke="#EAFBF0"/>
<path d="M103.741 145C103.741 145.024 103.738 145.208 103.404 145.552C103.06 145.905 102.466 146.314 101.575 146.701C99.8007 147.473 97.2092 148 94.2412 148C91.2733 148 88.6817 147.473 86.9069 146.701C86.0164 146.314 85.422 145.905 85.0785 145.552C84.7441 145.208 84.7412 145.024 84.7412 145C84.7412 144.976 84.7441 144.792 85.0785 144.448C85.422 144.095 86.0164 143.686 86.9069 143.299C88.6817 142.527 91.2733 142 94.2412 142C97.2092 142 99.8007 142.527 101.575 143.299C102.466 143.686 103.06 144.095 103.404 144.448C103.738 144.792 103.741 144.976 103.741 145Z" fill="#EAFBF0" stroke="#EAFBF0" stroke-width="4"/>
</svg>
