<svg width="615" height="284" viewBox="0 0 615 284" fill="none" xmlns="http://www.w3.org/2000/svg">
<circle cx="86" cy="86" r="85.5" fill="#FDF9A0" stroke="#F8F4A5"/>
<rect x="79.5391" y="96.6055" width="21.4651" height="4.56703" fill="#BCDDC8"/>
<rect x="63.6465" y="86.0249" width="3.4413" height="16.0594" fill="#D9D9D9"/>
<rect x="63.8555" y="101.172" width="57.8491" height="1.97905" fill="#4F4F4F"/>
<rect x="54.7207" y="103.151" width="61.655" height="41.4078" fill="#BCDDC8"/>
<rect x="66.4453" y="81.9902" width="34.5572" height="14.6145" fill="#BDBDBD"/>
<rect x="101.607" y="81.9902" width="20.095" height="14.6145" fill="#BDBDBD"/>
<rect x="101.607" y="96.6055" width="20.095" height="4.56703" fill="#BCDDC8"/>
<rect x="69.3379" y="86.4058" width="4.56703" height="4.8715" fill="#F2994A"/>
<rect x="69.3379" y="82.2949" width="4.56703" height="4.11033" fill="#4F4F4F"/>
<path fill-rule="evenodd" clip-rule="evenodd" d="M74.6605 87.624H73.8994V91.2777H74.6605V87.624ZM74.6622 91.2777H69.334V96.6059H74.6622V91.2777Z" fill="#F2C94C"/>
<rect x="70.0996" y="92.0381" width="3.9581" height="4.56703" fill="#E0E0E0"/>
<rect x="73.9062" y="81.0771" width="0.761172" height="6.54608" fill="#828282"/>
<rect x="105.719" y="46.6724" width="1.67458" height="34.2528" fill="#4F4F4F"/>
<rect x="99.1719" y="60.3735" width="4.56703" height="22.3785" fill="#F2994A"/>
<circle cx="50.0789" cy="102.466" r="7.0789" fill="#BCDDC8"/>
<path fill-rule="evenodd" clip-rule="evenodd" d="M49.9259 106.829C52.3354 106.829 54.2886 104.876 54.2886 102.466C54.2886 100.057 52.3354 98.1038 49.9259 98.1038C47.5165 98.1038 45.5632 100.057 45.5632 102.466C45.5632 104.876 47.5165 106.829 49.9259 106.829ZM49.9259 107.719C52.8266 107.719 55.178 105.367 55.178 102.466C55.178 99.5658 52.8266 97.2144 49.9259 97.2144C47.0253 97.2144 44.6738 99.5658 44.6738 102.466C44.6738 105.367 47.0253 107.719 49.9259 107.719Z" fill="#4F4F4F"/>
<path fill-rule="evenodd" clip-rule="evenodd" d="M49.9249 105.459C51.5777 105.459 52.9175 104.119 52.9175 102.466C52.9175 100.813 51.5777 99.4734 49.9249 99.4734C48.2722 99.4734 46.9324 100.813 46.9324 102.466C46.9324 104.119 48.2722 105.459 49.9249 105.459ZM49.9249 106.348C52.0689 106.348 53.8069 104.61 53.8069 102.466C53.8069 100.322 52.0689 98.584 49.9249 98.584C47.781 98.584 46.043 100.322 46.043 102.466C46.043 104.61 47.781 106.348 49.9249 106.348Z" fill="#4F4F4F"/>
<path fill-rule="evenodd" clip-rule="evenodd" d="M50.002 104.241C50.9401 104.241 51.7006 103.48 51.7006 102.542C51.7006 101.604 50.9401 100.844 50.002 100.844C49.064 100.844 48.3035 101.604 48.3035 102.542C48.3035 103.48 49.064 104.241 50.002 104.241ZM50.002 105.13C51.4314 105.13 52.59 103.971 52.59 102.542C52.59 101.113 51.4314 99.9541 50.002 99.9541C48.5727 99.9541 47.4141 101.113 47.4141 102.542C47.4141 103.971 48.5727 105.13 50.002 105.13Z" fill="#4F4F4F"/>
<rect x="48.9355" y="96.4531" width="2.28352" height="5.32821" fill="#BCDDC8"/>
<rect x="48.9824" y="101.781" width="2.28352" height="5.32821" transform="rotate(60 48.9824 101.781)" fill="#BCDDC8"/>
<rect width="2.28352" height="5.32821" transform="matrix(-0.5 0.866025 0.866025 0.5 51.2969 101.781)" fill="#BCDDC8"/>
<rect x="54.7207" y="71.6387" width="9.13407" height="39.4287" fill="#4F4F4F"/>
<rect x="54.7207" y="58.3945" width="9.13407" height="13.2444" fill="#828282"/>
<path d="M54.7207 38.4284C54.7207 28.6042 62.6848 20.6401 72.509 20.6401H96.7606C106.585 20.6401 114.549 28.6042 114.549 38.4284V60.3733H54.7207V38.4284Z" fill="#BCDDC8"/>
<rect x="114.4" y="53.5225" width="2.43575" height="5.63268" fill="#4F4F4F"/>
<rect x="116.832" y="54.5884" width="3.04469" height="1.82681" fill="#4F4F4F"/>
<rect x="119.879" y="50.9346" width="1.82681" height="9.2863" fill="#4F4F4F"/>
<rect x="80.6047" y="44.5407" width="2.13128" height="2.13128" rx="1.06564" fill="#828282" stroke="#4F4F4F" stroke-width="2.13128"/>
<rect x="103.74" y="77.5757" width="3.9581" height="2.43575" fill="#4F4F4F"/>
<rect x="54.7207" y="136.49" width="9.13407" height="8.06843" fill="#BCDDC8"/>
<rect x="54.7207" y="144.559" width="9.89524" height="6.85055" fill="#BCDDC8"/>
<rect x="106.633" y="144.559" width="9.89524" height="6.85055" fill="#BCDDC8"/>
<circle cx="57.3117" cy="64.4841" r="1.06564" fill="#D9D9D9"/>
<circle cx="57.3117" cy="67.2238" r="1.06564" fill="#D9D9D9"/>
<circle cx="60.3547" cy="64.4841" r="1.06564" fill="#D9D9D9"/>
<circle cx="60.3547" cy="67.2238" r="1.06564" fill="#D9D9D9"/>
<rect x="100.848" y="82.752" width="0.761172" height="7.91619" fill="#4F4F4F"/>
<path d="M66.1348 96.6045H79.5314V105.282H66.1348V96.6045Z" fill="#BCDDC8"/>
<path fill-rule="evenodd" clip-rule="evenodd" d="M79.0867 97.0492H66.5795V104.837H79.0867V97.0492ZM66.1348 96.6045V105.282H79.5314V96.6045H66.1348Z" fill="#828282"/>
<path fill-rule="evenodd" clip-rule="evenodd" d="M72.7544 106.524C74.9116 106.524 76.6603 104.775 76.6603 102.618C76.6603 100.461 74.9116 98.7122 72.7544 98.7122C70.5972 98.7122 68.8484 100.461 68.8484 102.618C68.8484 104.775 70.5972 106.524 72.7544 106.524ZM72.7544 107.414C75.4028 107.414 77.5498 105.267 77.5498 102.618C77.5498 99.9697 75.4028 97.8228 72.7544 97.8228C70.106 97.8228 67.959 99.9697 67.959 102.618C67.959 105.267 70.106 107.414 72.7544 107.414Z" fill="#828282"/>
<circle cx="67.8822" cy="98.5077" r="0.5" fill="#828282" stroke="#828282" stroke-width="0.674579"/>
<circle cx="77.474" cy="98.5077" r="0.5" fill="#828282" stroke="#828282" stroke-width="0.674579"/>
<circle cx="72.7665" cy="102.77" r="1.44623" fill="#828282"/>
<rect x="72.0762" y="98.1274" width="1.52234" height="4.56703" fill="#828282"/>
<rect x="77.0938" y="104.217" width="1.52234" height="4.56703" transform="rotate(120 77.0938 104.217)" fill="#828282"/>
<rect width="1.52234" height="4.56703" transform="matrix(0.5 0.866025 0.866025 -0.5 68.5723 104.217)" fill="#828282"/>
<rect x="114.4" y="39.2129" width="1.97905" height="5.02374" fill="#828282"/>
<circle cx="305" cy="132" r="86" fill="#FDF9A0"/>
<path d="M319.344 142.363V126.916C319.344 126.916 352.915 127.524 358.388 128.74C363.862 129.956 363.618 139.2 358.388 140.538C353.158 141.876 319.344 142.363 319.344 142.363Z" fill="#828282"/>
<path fill-rule="evenodd" clip-rule="evenodd" d="M320.531 124.151L320.438 126.095L320.397 126.946L322.341 127.039L322.382 126.189L320.531 124.151ZM322.597 124.251L322.504 126.195L322.463 127.045L324.407 127.139L324.448 126.288L322.597 124.251ZM324.57 126.294L324.663 124.35L326.514 126.388L326.473 127.238L324.529 127.145L324.57 126.294ZM326.729 124.45L326.636 126.393L326.595 127.244L328.539 127.338L328.58 126.487L326.729 124.45ZM328.698 126.493L328.792 124.549L330.642 126.586L330.601 127.437L328.658 127.343L328.698 126.493ZM330.858 124.648L330.764 126.592L330.724 127.443L332.667 127.536L332.708 126.686L330.858 124.648ZM332.831 126.692L332.924 124.748L334.774 126.785L334.733 127.636L332.79 127.542L332.831 126.692ZM334.99 124.847L334.897 126.791L334.856 127.642L336.799 127.735L336.84 126.885L334.99 124.847ZM336.963 126.89L337.056 124.947L338.906 126.984L338.865 127.834L336.922 127.741L336.963 126.89ZM339.119 125.046L339.025 126.99L338.984 127.84L340.928 127.934L340.969 127.084L339.119 125.046ZM341.091 127.089L341.185 125.145L343.035 127.183L342.994 128.033L341.05 127.94L341.091 127.089ZM343.251 125.245L343.157 127.189L343.116 128.039L345.06 128.133L345.101 127.282L343.251 125.245ZM345.223 127.288L345.317 125.344L347.167 127.382L347.126 128.232L345.182 128.139L345.223 127.288ZM347.383 125.444L347.289 127.387L347.248 128.238L349.192 128.331L349.233 127.481L347.383 125.444ZM349.352 127.487L349.445 125.543L351.296 127.581L351.255 128.431L349.311 128.337L349.352 127.487ZM351.511 125.642L351.418 127.586L351.377 128.437L353.321 128.53L353.362 127.68L351.511 125.642ZM353.484 127.686L353.577 125.742L355.428 127.779L355.387 128.63L353.443 128.536L353.484 127.686ZM355.644 125.841L355.55 127.785L355.509 128.636L357.453 128.729L357.494 127.879L355.644 125.841ZM357.616 127.885L357.71 125.941L359.187 127.567L359.914 126.307L360.602 128.875L361.953 127.524V130.065L363.592 129.119L362.92 131.63L364.624 131.173L363.248 133.556L363.064 133.606H363.259H365.205L363.274 135.537L365.124 136.032L362.741 137.408L362.491 137.342L362.656 137.437L364.341 138.41L361.742 139.106L363.085 140.449H360.396L361.355 142.11L358.883 141.448L358.977 143.323L356.936 141.476L356.894 140.625L358.467 140.547L359.801 139.777L361.034 138.544L361.919 137.011L361.959 137.035L362.407 135.363V133.71L361.921 131.897L361.96 131.887L361.368 130.861L361.351 130.878L360.143 129.67L358.61 128.785L357.575 128.735L357.616 127.885ZM356.814 141.482L356.911 143.426L354.87 141.579L354.828 140.728L356.771 140.632L356.814 141.482ZM354.848 143.529L354.751 141.585L354.709 140.734L352.765 140.831L352.807 141.682L354.848 143.529ZM352.685 141.688L352.782 143.632L350.741 141.785L350.699 140.934L352.643 140.837L352.685 141.688ZM350.716 143.734L350.619 141.791L350.577 140.94L348.633 141.037L348.675 141.888L350.716 143.734ZM348.553 141.894L348.65 143.837L346.609 141.99L346.567 141.14L348.511 141.043L348.553 141.894ZM346.584 143.94L346.487 141.996L346.445 141.146L344.501 141.243L344.543 142.093L346.584 143.94ZM344.424 142.099L344.521 144.043L342.481 142.196L342.438 141.346L344.382 141.249L344.424 142.099ZM342.455 144.146L342.358 142.202L342.316 141.352L340.372 141.449L340.415 142.299L342.455 144.146ZM340.292 142.305L340.389 144.249L338.349 142.402L338.306 141.552L340.25 141.455L340.292 142.305ZM338.323 144.352L338.226 142.408L338.184 141.558L336.24 141.655L336.283 142.505L338.323 144.352ZM336.164 142.511L336.26 144.455L334.22 142.608L334.178 141.758L336.121 141.661L336.164 142.511ZM334.194 144.558L334.098 142.614L334.055 141.764L332.111 141.861L332.154 142.711L334.194 144.558ZM332.032 142.717L332.128 144.661L330.088 142.814L330.045 141.963L331.989 141.867L332.032 142.717ZM330.062 144.764L329.966 142.82L329.923 141.97L327.979 142.067L328.022 142.917L330.062 144.764ZM327.9 142.923L327.996 144.867L325.956 143.02L325.913 142.169L327.857 142.072L327.9 142.923ZM325.934 144.97L325.837 143.026L325.795 142.175L323.851 142.272L323.893 143.123L325.934 144.97ZM323.771 143.129L323.868 145.072L321.827 143.226L321.785 142.375L323.728 142.278L323.771 143.129ZM321.802 145.175L321.705 143.232L321.662 142.381L319.719 142.478L319.761 143.329L321.802 145.175Z" fill="#BDBDBD"/>
<path d="M280.421 132.024L277.867 127.767L280.421 128.253L282.976 132.389L280.421 132.024Z" fill="#1C9045"/>
<path d="M284.678 127.523L283.705 126.307L292.584 120.712L294.287 121.685L284.678 127.523Z" fill="#1C9045"/>
<path d="M271.664 118.766L268.258 112.806L289.422 111.346L293.68 119.131H302.437L299.031 124.483L288.449 131.537V145.039L292.95 148.079L290.517 154.891H284.679L255.365 157.202L254.392 158.297H246.364L243.08 148.079L246.364 140.903V129.105L250.621 126.672V140.903L247.702 143.579L250.621 148.079L284.679 145.039L285.652 140.903L279.205 134.213L274.826 137.254L271.664 136.768V118.766Z" fill="#4F4F4F"/>
<path fill-rule="evenodd" clip-rule="evenodd" d="M300.244 119.131H293.798L289.541 111.346L268.011 112.806L266.552 109.4L273.485 103.319H278.107L281.391 93.223L294.284 85.5601H297.568L313.624 111.346L316.931 119.496H320.314L322.381 122.902L320.314 124.118V151.972L318.976 149.418H298.663V148.566H292.095L288.324 146.012V131.538L298.663 124.118L301.704 119.496H308.495L310.826 113.901V111.346L295.744 88.4793H293.676L285.405 93.223V95.0475L300.244 119.131ZM276.527 123.266L271.418 117.915C271.418 120.445 269.553 122.537 268.621 123.266C259.182 123.266 252.119 125.618 249.768 126.794L250.497 141.147L248.551 141.998L247.578 143.944L268.621 136.403H271.418L278.23 131.416L275.311 127.402L276.527 123.266ZM274.46 137.498C274.379 138.268 274.947 139.687 277.866 139.2L280.055 136.646H282.123L279.082 133.484L274.46 137.498Z" fill="#EB5757"/>
<path d="M306.695 131.659H320.318V139.93H306.695V131.659Z" fill="#4F4F4F"/>
<circle cx="315.94" cy="136.038" r="3.16247" fill="white"/>
<circle cx="529" cy="198" r="86" fill="#F8F4A5"/>
<path d="M500.367 240.103C505.409 236.152 510.758 236.186 512.802 236.697C525.612 236.697 531.881 245.1 533.414 249.302C523.875 243.578 507.408 245.441 500.367 247.087C497.233 245.725 499.061 241.864 500.367 240.103Z" fill="#EB5757"/>
<path d="M500.004 240.374C501.791 238.104 503.172 236.809 509.713 234.242C511.587 233.587 510.224 233.587 518.231 234.242C528.205 235.058 534.129 244.576 536.287 248.38L533.561 249.402L516.186 238.356L509.713 237.989L500.004 240.374Z" fill="#F2994A"/>
<path d="M511.077 247.214C508.624 249.122 507.67 248.009 507.5 247.214L541.909 156.592C544.362 153.458 545.486 155.286 546.168 156.592L511.077 247.214Z" fill="#E0E0E0"/>
<path fill-rule="evenodd" clip-rule="evenodd" d="M507.116 248.887C507.323 248.667 507.674 248.667 507.882 248.887C508.072 249.089 508.386 249.109 508.599 248.932L508.703 248.848C508.916 248.672 509.233 248.716 509.39 248.942C509.536 249.153 509.823 249.208 510.037 249.068L510.283 248.906C510.492 248.769 510.774 248.849 510.88 249.076C510.979 249.289 511.237 249.376 511.444 249.265L511.829 249.061C512.031 248.954 512.279 249.065 512.334 249.287C512.386 249.497 512.614 249.61 512.813 249.525L513.319 249.307C513.512 249.224 513.729 249.361 513.736 249.572C513.743 249.773 513.943 249.911 514.133 249.845L514.73 249.638C514.917 249.573 515.105 249.734 515.07 249.929C515.037 250.117 515.21 250.275 515.394 250.225L516.046 250.046C516.229 249.996 516.391 250.177 516.321 250.353C516.254 250.524 516.404 250.702 516.583 250.664L517.253 250.523C517.435 250.485 517.573 250.683 517.476 250.841C517.381 250.994 517.509 251.187 517.686 251.16L518.341 251.061C518.522 251.034 518.64 251.246 518.52 251.385C518.404 251.52 518.512 251.728 518.689 251.711L519.3 251.652C519.481 251.634 519.58 251.859 519.443 251.981C519.31 252.099 519.399 252.319 519.577 252.311L520.121 252.287C520.304 252.279 520.385 252.515 520.235 252.621C520.089 252.724 520.16 252.954 520.339 252.955L520.798 252.959C520.984 252.961 521.048 253.207 520.886 253.299C520.729 253.388 520.784 253.627 520.965 253.638L521.325 253.66C521.514 253.671 521.562 253.927 521.39 254.006C521.223 254.083 521.263 254.331 521.446 254.352L521.698 254.381C521.89 254.402 521.923 254.668 521.741 254.736C521.565 254.801 521.589 255.058 521.775 255.09L521.914 255.113C522.11 255.147 522.127 255.423 521.936 255.479C521.75 255.534 521.758 255.8 521.947 255.844L521.971 255.849C522.173 255.895 522.173 256.183 521.971 256.229L521.947 256.235C521.758 256.278 521.75 256.544 521.936 256.599C522.127 256.655 522.11 256.931 521.914 256.965L521.775 256.988C521.589 257.02 521.565 257.277 521.741 257.342C521.923 257.41 521.89 257.676 521.698 257.697L521.446 257.726C521.263 257.747 521.223 257.995 521.39 258.072C521.562 258.151 521.514 258.407 521.325 258.418L520.965 258.44C520.784 258.451 520.729 258.69 520.886 258.779C521.048 258.871 520.984 259.117 520.798 259.119L520.339 259.123C520.16 259.124 520.089 259.354 520.235 259.457C520.385 259.563 520.304 259.799 520.121 259.791L519.577 259.767C519.399 259.759 519.31 259.979 519.443 260.097C519.58 260.219 519.481 260.444 519.3 260.426L518.689 260.367C518.512 260.35 518.404 260.558 518.52 260.693C518.64 260.832 518.522 261.044 518.341 261.017L517.686 260.918C517.509 260.891 517.381 261.085 517.476 261.237C517.573 261.395 517.435 261.593 517.253 261.555L516.583 261.414C516.404 261.376 516.254 261.554 516.321 261.725C516.391 261.901 516.229 262.082 516.046 262.032L515.394 261.853C515.21 261.803 515.037 261.961 515.07 262.149C515.105 262.344 514.917 262.505 514.73 262.44L514.133 262.233C513.943 262.167 513.743 262.305 513.736 262.506C513.729 262.717 513.512 262.854 513.319 262.771L512.813 262.553C512.614 262.468 512.386 262.581 512.334 262.791C512.279 263.013 512.031 263.124 511.829 263.017L511.444 262.813C511.237 262.703 510.979 262.789 510.88 263.002C510.774 263.229 510.492 263.309 510.283 263.172L510.037 263.01C509.823 262.87 509.536 262.925 509.39 263.136C509.233 263.362 508.916 263.406 508.703 263.231L508.599 263.146C508.386 262.969 508.072 262.989 507.882 263.191C507.674 263.412 507.323 263.412 507.116 263.191C506.926 262.989 506.612 262.969 506.398 263.146L506.295 263.231C506.082 263.406 505.765 263.362 505.607 263.136C505.461 262.925 505.174 262.87 504.961 263.01L504.715 263.172C504.506 263.309 504.223 263.229 504.118 263.002C504.018 262.789 503.761 262.703 503.553 262.813L503.168 263.017C502.967 263.124 502.718 263.013 502.664 262.791C502.612 262.581 502.384 262.468 502.185 262.553L501.679 262.771C501.485 262.854 501.269 262.717 501.262 262.506C501.255 262.305 501.055 262.167 500.864 262.233L500.268 262.44C500.08 262.505 499.892 262.344 499.927 262.149C499.961 261.961 499.787 261.803 499.603 261.853L498.952 262.032C498.768 262.082 498.606 261.901 498.676 261.725C498.744 261.554 498.594 261.376 498.414 261.414L497.744 261.555C497.563 261.593 497.424 261.395 497.522 261.237C497.617 261.085 497.489 260.891 497.311 260.918L496.657 261.017C496.476 261.044 496.358 260.832 496.477 260.693C496.594 260.558 496.486 260.35 496.309 260.367L495.698 260.426C495.516 260.444 495.418 260.219 495.554 260.097C495.687 259.979 495.598 259.759 495.421 259.767L494.877 259.791C494.693 259.799 494.613 259.563 494.763 259.457C494.909 259.354 494.837 259.124 494.658 259.123L494.2 259.119C494.014 259.117 493.95 258.871 494.111 258.779C494.269 258.69 494.213 258.451 494.033 258.44L493.672 258.418C493.484 258.407 493.436 258.151 493.607 258.072C493.775 257.995 493.735 257.747 493.552 257.726L493.3 257.697C493.107 257.676 493.075 257.41 493.256 257.342C493.433 257.277 493.408 257.02 493.223 256.988L493.084 256.965C492.887 256.931 492.871 256.655 493.062 256.599C493.247 256.544 493.239 256.278 493.051 256.235L493.026 256.229C492.825 256.183 492.825 255.895 493.026 255.849L493.051 255.844C493.239 255.8 493.247 255.534 493.062 255.479C492.871 255.423 492.887 255.147 493.084 255.113L493.223 255.09C493.408 255.058 493.433 254.801 493.256 254.736C493.075 254.668 493.107 254.402 493.3 254.381L493.552 254.352C493.735 254.331 493.775 254.083 493.607 254.006C493.436 253.927 493.484 253.671 493.672 253.66L494.033 253.638C494.213 253.627 494.269 253.388 494.111 253.299C493.95 253.207 494.014 252.961 494.2 252.959L494.658 252.955C494.837 252.954 494.909 252.724 494.763 252.621C494.613 252.515 494.693 252.279 494.877 252.287L495.421 252.311C495.598 252.319 495.687 252.099 495.554 251.981C495.418 251.859 495.516 251.634 495.698 251.652L496.309 251.711C496.486 251.728 496.594 251.52 496.477 251.385C496.358 251.246 496.476 251.034 496.657 251.061L497.311 251.16C497.489 251.187 497.617 250.994 497.522 250.841C497.424 250.683 497.563 250.485 497.744 250.523L498.414 250.664C498.594 250.702 498.744 250.524 498.676 250.353C498.606 250.177 498.768 249.996 498.952 250.046L499.603 250.225C499.787 250.275 499.961 250.117 499.927 249.929C499.892 249.734 500.08 249.573 500.268 249.638L500.864 249.845C501.055 249.911 501.255 249.773 501.262 249.572C501.269 249.361 501.485 249.224 501.679 249.307L502.185 249.525C502.384 249.61 502.612 249.497 502.664 249.287C502.718 249.065 502.967 248.954 503.168 249.061L503.553 249.265C503.761 249.376 504.018 249.289 504.118 249.076C504.223 248.849 504.506 248.769 504.715 248.906L504.961 249.068C505.174 249.208 505.461 249.153 505.607 248.942C505.765 248.716 506.082 248.672 506.295 248.848L506.398 248.932C506.612 249.109 506.926 249.089 507.116 248.887ZM508.829 251.51C508.829 251.855 508.233 252.135 507.498 252.135C506.764 252.135 506.168 251.855 506.168 251.51C506.168 251.165 506.764 250.885 507.498 250.885C508.233 250.885 508.829 251.165 508.829 251.51ZM507.498 259.631C508.233 259.631 508.829 259.351 508.829 259.006C508.829 258.661 508.233 258.382 507.498 258.382C506.764 258.382 506.168 258.661 506.168 259.006C506.168 259.351 506.764 259.631 507.498 259.631ZM517.472 255.258C517.472 255.603 516.877 255.883 516.142 255.883C515.407 255.883 514.812 255.603 514.812 255.258C514.812 254.913 515.407 254.633 516.142 254.633C516.877 254.633 517.472 254.913 517.472 255.258ZM513.481 259.006C514.216 259.006 514.812 258.726 514.812 258.381C514.812 258.036 514.216 257.757 513.481 257.757C512.747 257.757 512.151 258.036 512.151 258.381C512.151 258.726 512.747 259.006 513.481 259.006ZM514.812 252.759C514.812 253.104 514.216 253.384 513.481 253.384C512.747 253.384 512.151 253.104 512.151 252.759C512.151 252.414 512.747 252.135 513.481 252.135C514.216 252.135 514.812 252.414 514.812 252.759ZM501.502 259.006C502.237 259.006 502.832 258.726 502.832 258.381C502.832 258.036 502.237 257.757 501.502 257.757C500.767 257.757 500.172 258.036 500.172 258.381C500.172 258.726 500.767 259.006 501.502 259.006ZM502.832 252.759C502.832 253.104 502.237 253.384 501.502 253.384C500.767 253.384 500.172 253.104 500.172 252.759C500.172 252.414 500.767 252.135 501.502 252.135C502.237 252.135 502.832 252.414 502.832 252.759ZM498.848 255.883C499.583 255.883 500.178 255.603 500.178 255.258C500.178 254.913 499.583 254.633 498.848 254.633C498.113 254.633 497.518 254.913 497.518 255.258C497.518 255.603 498.113 255.883 498.848 255.883Z" fill="#E0E0E0"/>
<path fill-rule="evenodd" clip-rule="evenodd" d="M520.4 255.477C520.4 258.925 514.624 261.721 507.5 261.721C500.375 261.721 494.6 258.925 494.6 255.477C494.6 252.028 500.375 249.233 507.5 249.233C514.624 249.233 520.4 252.028 520.4 255.477ZM508.782 251.394C508.782 251.728 508.215 251.999 507.516 251.999C506.816 251.999 506.249 251.728 506.249 251.394C506.249 251.06 506.816 250.789 507.516 250.789C508.215 250.789 508.782 251.06 508.782 251.394ZM507.516 259.255C508.215 259.255 508.782 258.984 508.782 258.65C508.782 258.316 508.215 258.046 507.516 258.046C506.816 258.046 506.249 258.316 506.249 258.65C506.249 258.984 506.816 259.255 507.516 259.255ZM517.009 255.022C517.009 255.356 516.442 255.627 515.743 255.627C515.044 255.627 514.476 255.356 514.476 255.022C514.476 254.688 515.044 254.418 515.743 254.418C516.442 254.418 517.009 254.688 517.009 255.022ZM513.213 258.65C513.913 258.65 514.48 258.38 514.48 258.046C514.48 257.712 513.913 257.441 513.213 257.441C512.514 257.441 511.947 257.712 511.947 258.046C511.947 258.38 512.514 258.65 513.213 258.65ZM514.48 252.603C514.48 252.937 513.913 253.208 513.213 253.208C512.514 253.208 511.947 252.937 511.947 252.603C511.947 252.269 512.514 251.999 513.213 251.999C513.913 251.999 514.48 252.269 514.48 252.603ZM501.812 258.65C502.511 258.65 503.078 258.38 503.078 258.046C503.078 257.712 502.511 257.441 501.812 257.441C501.112 257.441 500.545 257.712 500.545 258.046C500.545 258.38 501.112 258.65 501.812 258.65ZM503.078 252.603C503.078 252.937 502.511 253.208 501.812 253.208C501.112 253.208 500.545 252.937 500.545 252.603C500.545 252.269 501.112 251.999 501.812 251.999C502.511 251.999 503.078 252.269 503.078 252.603ZM499.279 255.627C499.978 255.627 500.545 255.356 500.545 255.022C500.545 254.688 499.978 254.418 499.279 254.418C498.579 254.418 498.012 254.688 498.012 255.022C498.012 255.356 498.579 255.627 499.279 255.627Z" fill="#BDBDBD"/>
<path d="M502.729 255.391L504.091 253.006V249.599C504.441 249.288 505.206 248.892 506.135 249.023L507.498 247.044C508.861 248.407 510.564 247.612 511.246 247.044L507.498 253.006L508.35 255.391C505.897 256.481 503.58 255.845 502.729 255.391Z" fill="#828282"/>
<path d="M561.792 150.953C559.18 155.629 553.116 157.215 548.247 154.496C543.378 151.777 541.548 145.782 544.159 141.106C546.77 136.431 552.834 134.844 557.703 137.563C562.572 140.283 564.403 146.277 561.792 150.953Z" fill="#EB5757"/>
<path d="M561.792 150.953C559.18 155.629 553.116 157.215 548.247 154.496C543.378 151.777 541.548 145.782 544.159 141.106C546.77 136.431 552.834 134.844 557.703 137.563C562.572 140.283 564.403 146.277 561.792 150.953Z" stroke="#1C9045"/>
<path d="M540.034 152.504V161.191L537.139 168.346L541.738 169.708L545.315 161.872L551.618 162.554C550.823 162.1 555.025 157.887 555.025 155.57C552.129 154.889 550.542 154.718 549.233 152.504C547.019 148.756 542.249 150.971 540.034 152.504Z" fill="#828282"/>
<path d="M537.138 139.047C534.276 141.909 537.308 149.211 539.182 152.504C542.18 150.869 549.346 153.356 550.765 154.037C544.974 147.053 550.879 138.082 553.321 137.173L550.765 134.448H542.93L541.397 137.173L537.138 139.047Z" fill="#EB5757"/>
<path d="M549.301 153.348C549.301 153.348 548.206 150.801 547.355 149.031C546.503 147.261 547.507 140.952 551.497 137.334C556.383 134.107 560.318 138.111 557.406 143.646L560.642 144.157C561.004 144.635 561.664 146.712 560.301 146.883L556.894 148.075C556.894 148.075 555.531 154.548 549.301 153.348Z" fill="#333333"/>
<path d="M549.301 153.348C549.301 153.348 548.206 150.801 547.355 149.031C546.503 147.261 547.507 140.952 551.497 137.334C556.383 134.107 560.318 138.111 557.406 143.646L560.642 144.157C561.004 144.635 561.664 146.712 560.301 146.883L556.894 148.075C556.894 148.075 555.531 154.548 549.301 153.348ZM549.301 153.348C549.219 157.041 547.83 165.007 542.924 167.324" stroke="#4F4F4F"/>
<path d="M524.531 186.061L519.761 180.099C519.352 179.584 520.67 178.465 521.294 177.885L526.234 183.676C526.507 184.494 527.37 184.812 527.767 184.869H542.587C543.405 184.596 544.063 183.96 544.29 183.676L548.379 177.885L550.934 180.27C549.514 181.746 546.437 184.971 545.483 186.061C544.529 187.151 543.155 187.538 542.587 187.594C538.385 187.481 529.539 187.322 527.767 187.594C525.996 187.867 524.871 186.686 524.531 186.061Z" fill="#EAFBF0"/>
<path d="M529.132 187.424C528.178 186.334 529.302 185.267 529.983 184.869H535.094C533.458 186.096 533.844 187.197 534.242 187.595L533.561 188.957C532.062 189.502 530.21 189.184 529.472 188.957L529.813 187.935L529.132 187.424Z" fill="#EAFBF0"/>
<path d="M511.415 177.033C507.599 177.033 506.984 175.159 507.154 174.308L510.904 167.664C512.948 167.119 515.162 169.481 516.014 170.73L520.784 176.863H522.146C521.601 178.907 519.648 180.213 518.74 180.61V178.737L513.8 173.456L511.415 177.033Z" fill="#4F4F4F"/>
<path d="M547.016 177.715L548.378 176.693L552.807 170.39C556.078 169.027 557.123 171.639 557.236 173.115L551.615 180.1L551.104 181.462C548.515 180.917 547.3 178.737 547.016 177.715Z" fill="#4F4F4F"/>
<path d="M515.743 178.907C513.341 176.658 511.801 176.522 511.416 177.033L512.279 175.841C513.757 175.841 515.82 177.033 516.667 177.629C516.852 178.447 516.128 178.822 515.743 178.907Z" fill="#828282"/>
<path d="M512.609 233.758C513.177 233.36 514.721 232.838 516.356 233.928L516.016 234.78L517.719 235.12C518.23 235.858 518.741 237.335 516.697 237.335L515.164 237.164L511.246 247.215C510.394 247.612 508.418 248.168 507.328 247.215L511.416 236.994H510.224C509.883 236.54 509.577 235.461 511.076 234.78H512.268L512.609 233.758Z" fill="#828282"/>
</svg>
